<?xml version="1.0" standalone="no"?>
<!DOCTYPE svg PUBLIC "-//W3C//DTD SVG 1.1//EN" "http://www.w3.org/Graphics/SVG/1.1/DTD/svg11.dtd" >
<svg>
<metadata>
Created by FontForge 20120731 at Thu Aug  8 23:38:59 2019
 By www
Copyright (c) Mark Simonson, 2005. All rights reserved.
</metadata>
<defs>
<font id="ProximaNovaCondensedW07-Md" horiz-adv-x="475" >
  <font-face 
    font-family="ProximaNovaCondensedW07-Md"
    font-weight="500"
    font-stretch="condensed"
    units-per-em="1000"
    panose-1="2 0 5 6 3 0 0 2 0 4"
    ascent="800"
    descent="-200"
    x-height="483"
    cap-height="667"
    bbox="-172 -315 943 887"
    underline-thickness="50"
    underline-position="-125"
    unicode-range="U+000D-FB04"
  />
<missing-glyph horiz-adv-x="485" 
d="M67 752h351v-842h-351v842zM98 722v-782h288v782h-288z" />
    <glyph glyph-name="uniE004" unicode="ffj" horiz-adv-x="737" 
d="M81 408h-63v75h63v52q0 66 34 104t90 38q40 0 68 -15l-19 -66q-14 8 -31 8q-26 0 -41 -18t-15 -51v-52h81v-75h-81v-408h-86v408zM345 408h-63v75h63v52q0 66 34 104t90 38q40 0 68 -16l-19 -66q-12 9 -32 9q-26 0 -40.5 -18t-14.5 -51v-52h81v-75h-81v-408h-86v408z
M592.5 564.5q-16.5 16.5 -16.5 39.5t16.5 39.5t39.5 16.5t39.5 -16.5t16.5 -39.5t-16.5 -39.5t-39.5 -16.5t-39.5 16.5zM675 -57q0 -68 -32.5 -103.5t-93.5 -35.5q-26 0 -47 6l11 73q12 -4 24 -4q24 0 38 15.5t14 48.5v540h86v-540z" />
    <glyph glyph-name="uniE005" unicode="fj" horiz-adv-x="474" 
d="M81 408h-63v75h63v52q0 66 34 104t90 38q40 0 68 -16l-19 -66q-12 9 -32 9q-26 0 -40.5 -18t-14.5 -51v-52h81v-75h-81v-408h-86v408zM329.5 564.5q-16.5 16.5 -16.5 39.5t16.5 39.5t39.5 16.5t39.5 -16.5t16.5 -39.5t-16.5 -39.5t-39.5 -16.5t-39.5 16.5zM412 -57
q0 -68 -32.5 -103.5t-93.5 -35.5q-26 0 -47 6l11 73q12 -4 24 -4q24 0 38 15.5t14 48.5v540h86v-540z" />
    <glyph glyph-name="uniFB00" unicode="ff" horiz-adv-x="527" 
d="M81 408h-63v75h63v52q0 66 34 104t90 38q40 0 68 -15l-19 -66q-14 8 -31 8q-26 0 -41 -18t-15 -51v-52h81v-75h-81v-408h-86v408zM345 408h-63v75h63v52q0 66 34 104t90 38q40 0 68 -15l-19 -66q-14 8 -31 8q-26 0 -41 -18t-15 -51v-52h81v-75h-81v-408h-86v408z" />
    <glyph glyph-name="uniFB01" unicode="fi" horiz-adv-x="474" 
d="M81 408h-63v75h63v52q0 66 34 104t90 38q40 0 68 -16l-19 -66q-12 9 -32 9q-26 0 -40.5 -18t-14.5 -51v-52h81v-75h-81v-408h-86v408zM329.5 564.5q-16.5 16.5 -16.5 39.5t16.5 39.5t39.5 16.5t39.5 -16.5t16.5 -39.5t-16.5 -39.5t-39.5 -16.5t-39.5 16.5zM326 483h86
v-483h-86v483z" />
    <glyph glyph-name="uniFB02" unicode="fl" horiz-adv-x="474" 
d="M81 408h-63v75h63v52q0 66 34 104t90 38q40 0 68 -16l-19 -66q-12 9 -32 9q-26 0 -40.5 -18t-14.5 -51v-52h81v-75h-81v-408h-86v408zM326 667h86v-667h-86v667z" />
    <glyph glyph-name="uniFB03" unicode="ffi" horiz-adv-x="737" 
d="M81 408h-63v75h63v52q0 66 34 104t90 38q40 0 68 -15l-19 -66q-14 8 -31 8q-26 0 -41 -18t-15 -51v-52h81v-75h-81v-408h-86v408zM345 408h-63v75h63v52q0 66 34 104t90 38q40 0 68 -16l-19 -66q-12 9 -32 9q-26 0 -40.5 -18t-14.5 -51v-52h81v-75h-81v-408h-86v408z
M592.5 564.5q-16.5 16.5 -16.5 39.5t16.5 39.5t39.5 16.5t39.5 -16.5t16.5 -39.5t-16.5 -39.5t-39.5 -16.5t-39.5 16.5zM589 483h86v-483h-86v483z" />
    <glyph glyph-name="uniFB04" unicode="ffl" horiz-adv-x="737" 
d="M81 408h-63v75h63v52q0 66 34 104t90 38q40 0 68 -15l-19 -66q-14 8 -31 8q-26 0 -41 -18t-15 -51v-52h81v-75h-81v-408h-86v408zM345 408h-63v75h63v52q0 66 34 104t90 38q40 0 68 -16l-19 -66q-12 9 -32 9q-26 0 -40.5 -18t-14.5 -51v-52h81v-75h-81v-408h-86v408z
M589 667h86v-667h-86v667z" />
    <glyph glyph-name="f_b.liga" unicode="fb" horiz-adv-x="750" 
d="M81 408h-63v75h63v52q0 66 34 104t90 38q40 0 68 -16l-19 -66q-12 9 -32 9q-26 0 -40.5 -18t-14.5 -51v-52h81v-75h-81v-408h-86v408zM326 667h86v-251q21 38 54.5 58.5t70.5 20.5q81 0 128 -69.5t47 -184.5q0 -116 -47 -184.5t-128 -68.5q-37 0 -70.5 21t-54.5 57v-66
h-86v667zM454.5 85q28.5 -21 58.5 -21q54 0 82 49.5t28 127.5t-28 128t-82 50q-30 0 -58.5 -21.5t-42.5 -52.5v-209q14 -30 42.5 -51z" />
    <glyph glyph-name="f_h.liga" unicode="fh" horiz-adv-x="739" 
d="M81 408h-63v75h63v52q0 66 34 104t90 38q40 0 68 -16l-19 -66q-12 9 -32 9q-26 0 -40.5 -18t-14.5 -51v-52h81v-75h-81v-408h-86v408zM591 338q0 43 -18.5 62t-54.5 19q-32 0 -61 -21t-45 -51v-347h-86v667h86v-251q22 32 60.5 55.5t80.5 23.5q63 0 93.5 -32.5
t30.5 -97.5v-365h-86v338z" />
    <glyph glyph-name="f_k.liga" unicode="fk" horiz-adv-x="710" 
d="M81 408h-63v75h63v52q0 66 34 104t90 38q40 0 68 -16l-19 -66q-12 9 -32 9q-26 0 -40.5 -18t-14.5 -51v-52h81v-75h-81v-408h-86v408zM475 210l-63 -83v-127h-86v667h86v-434l185 250h101l-164 -217l165 -266h-101z" />
    <glyph glyph-name=".notdef" horiz-adv-x="485" 
d="M67 752h351v-842h-351v842zM98 722v-782h288v782h-288z" />
    <glyph glyph-name="glyph1" horiz-adv-x="0" 
 />
    <glyph glyph-name="glyph1" horiz-adv-x="0" 
 />
    <glyph glyph-name="uni000D" unicode="&#xd;" horiz-adv-x="214" 
 />
    <glyph glyph-name="space" unicode=" " horiz-adv-x="214" 
 />
    <glyph glyph-name="exclam" unicode="!" horiz-adv-x="235" 
d="M65 667h105l-16 -474h-72zM74.5 92.5q17.5 17.5 42.5 17.5t43 -17.5t18 -42.5q0 -24 -18 -42t-43 -18t-42.5 18t-17.5 42q0 25 17.5 42.5z" />
    <glyph glyph-name="quotedbl" unicode="&#x22;" horiz-adv-x="356" 
d="M64 527q-12 90 -12 100q0 20 14.5 35t35.5 15q20 0 35 -15t15 -35q0 -10 -12 -100t-17 -122h-42q-5 32 -17 122zM216.5 527q-12.5 90 -12.5 100q0 20 14.5 35t35.5 15t35.5 -15t14.5 -35q0 -10 -12 -100t-17 -122h-41q-5 32 -17.5 122z" />
    <glyph glyph-name="numbersign" unicode="#" horiz-adv-x="515" 
d="M258 179h-88l-50 -179h-68l51 179h-85l16 58h86l54 192h-86l15 58h88l50 180h68l-51 -180h87l51 180h67l-51 -180h85l-15 -58h-87l-54 -192h88l-15 -58h-90l-50 -179h-68zM241 429l-53 -192h85l55 192h-87z" />
    <glyph glyph-name="dollar" unicode="$" horiz-adv-x="478" 
d="M403 56q-42 -51 -122 -63v-93h-68v88q-113 7 -185 84l50 74q25 -29 60 -48.5t75 -23.5v226q-53 25 -87 48.5t-56 60t-22 88.5q0 70 45.5 118.5t119.5 59.5v93h68v-92q93 -9 151 -69l-48 -72q-42 45 -103 54v-207q50 -23 84 -47t57 -62.5t23 -94.5q0 -71 -42 -122z
M162.5 457.5q17.5 -18.5 50.5 -35.5v161q-31 -7 -49.5 -28.5t-18.5 -52.5q0 -26 17.5 -44.5zM331 118.5q17 23.5 17 53.5q0 31 -18 51.5t-51 37.5v-175q35 9 52 32.5z" />
    <glyph glyph-name="percent" unicode="%" horiz-adv-x="657" 
d="M67.5 630q39.5 47 103.5 47t104 -47t40 -119q0 -71 -40 -117.5t-104 -46.5t-103.5 46.5t-39.5 117.5q0 72 39.5 119zM479 667h53l-352 -667h-51zM229 589.5q-22 30.5 -58 30.5t-57.5 -30.5t-21.5 -78.5q0 -47 22 -77.5t57 -30.5q36 0 58 31t22 77q0 48 -22 78.5z
M381.5 271q39.5 47 103.5 47t104 -47t40 -119q0 -71 -40 -117.5t-104 -46.5t-103.5 46.5t-39.5 117.5q0 72 39.5 119zM543 230.5q-22 30.5 -58 30.5t-57.5 -30.5t-21.5 -78.5q0 -47 21.5 -77.5t57.5 -30.5t58 30.5t22 77.5q0 48 -22 78.5z" />
    <glyph glyph-name="ampersand" unicode="&#x26;" horiz-adv-x="528" 
d="M410 0l-48 60q-69 -72 -156 -72q-76 0 -124.5 48.5t-48.5 134.5q0 69 32.5 114.5t89.5 84.5q-43 88 -43 147q0 70 40.5 115t103.5 45q57 0 95 -36.5t38 -96.5q0 -46 -18.5 -79.5t-44.5 -55.5t-73 -54q19 -33 55 -87q29 -45 55 -79q31 62 51 140l71 -31q-35 -108 -74 -172
q50 -62 80 -97l24 -29h-105zM222 414q44 30 67.5 58.5t23.5 68.5q0 34 -15.5 52.5t-39.5 18.5q-29 0 -46 -25t-17 -71q0 -41 27 -102zM319 116q-50 63 -71 98q-43 65 -60 94q-31 -28 -48 -59t-17 -73q0 -54 27.5 -86t67.5 -32q53 0 101 58z" />
    <glyph glyph-name="quotesingle" unicode="'" horiz-adv-x="204" 
d="M64 527q-12 90 -12 100q0 20 14.5 35t35.5 15q20 0 35 -15t15 -35q0 -10 -12 -100t-17 -122h-42q-5 32 -17 122z" />
    <glyph glyph-name="parenleft" unicode="(" horiz-adv-x="243" 
d="M76.5 10.5q-31.5 112.5 -31.5 232.5t31.5 232.5t90.5 209.5l57 -33q-43 -101 -64 -197t-21 -212t21 -212t64 -196l-57 -34q-59 97 -90.5 209.5z" />
    <glyph glyph-name="parenright" unicode=")" horiz-adv-x="243" 
d="M82.5 455q-21.5 96 -64.5 197l56 33q60 -97 92 -209.5t32 -232.5t-32 -232.5t-92 -209.5l-56 34q43 100 64.5 196t21.5 212t-21.5 212z" />
    <glyph glyph-name="asterisk" unicode="*" horiz-adv-x="325" 
d="M144 498l-96 -61l-24 42l101 52l-101 51l24 43l96 -62l-6 114h49l-5 -114l95 62l25 -43l-101 -51l101 -52l-25 -42l-95 61l5 -113h-49z" />
    <glyph glyph-name="plus" unicode="+" horiz-adv-x="440" 
d="M251 127h-62v181h-160v58h160v174h62v-174h160v-58h-160v-181z" />
    <glyph glyph-name="comma" unicode="," horiz-adv-x="235" 
d="M57 -96q24 16 43.5 43t23.5 51q-4 -2 -14 -2q-23 0 -38 15.5t-15 39.5t17 41.5t42 17.5q28 0 47.5 -21.5t19.5 -59.5q0 -47 -23.5 -89t-61.5 -69z" />
    <glyph glyph-name="hyphen" unicode="-" horiz-adv-x="268" 
d="M30 279h208v-74h-208v74z" />
    <glyph glyph-name="period" unicode="." horiz-adv-x="235" 
d="M75 92.5q18 17.5 43 17.5q24 0 42 -17.5t18 -42.5t-18 -42.5t-42 -17.5q-25 0 -43 17.5t-18 42.5t18 42.5z" />
    <glyph glyph-name="slash" unicode="/" horiz-adv-x="257" 
d="M192 687h65l-192 -707h-65z" />
    <glyph glyph-name="zero" unicode="0" horiz-adv-x="519" 
d="M65 499.5q22 78.5 71 128t124 49.5t123.5 -49.5t70.5 -128t22 -166.5t-22 -166.5t-70.5 -128.5t-123.5 -50t-124 50t-71 128.5t-22 166.5t22 166.5zM352 519.5q-27 72.5 -92 72.5q-66 0 -93 -72.5t-27 -186.5t27 -187t93 -73q65 0 92 73t27 187t-27 186.5z" />
    <glyph glyph-name="one" unicode="1" horiz-adv-x="334" 
d="M172 543l-103 -109l-56 59l170 174h83v-667h-94v543z" />
    <glyph glyph-name="two" unicode="2" horiz-adv-x="498" 
d="M50 77q135 148 189 210.5t79.5 109.5t25.5 92q0 47 -29.5 75t-72.5 28q-89 0 -141 -81l-60 58q36 53 87 80.5t115 27.5q55 0 100.5 -22.5t71.5 -65.5t26 -100q0 -52 -26 -106t-75.5 -117t-151.5 -182h256v-84h-394v77z" />
    <glyph glyph-name="three" unicode="3" horiz-adv-x="485" 
d="M87 156q24 -38 61 -60.5t82 -22.5q56 0 85.5 31t29.5 85q0 58 -33.5 84t-88.5 26q-46 0 -55 -1v86q9 -1 53 -1q52 0 83.5 26t31.5 76q0 52 -29.5 79.5t-79.5 27.5q-80 0 -135 -75l-57 54q32 50 83.5 78t114.5 28q89 0 143.5 -46t54.5 -132q0 -58 -35.5 -100.5
t-85.5 -53.5q32 -5 62 -26.5t49 -57t19 -80.5q0 -86 -55.5 -139.5t-151.5 -53.5q-70 0 -123.5 30.5t-83.5 79.5z" />
    <glyph glyph-name="four" unicode="4" horiz-adv-x="477" 
d="M288 163h-266v81l239 423h122v-420h71v-84h-71v-163h-95v163zM109 247h179v319z" />
    <glyph glyph-name="five" unicode="5" horiz-adv-x="501" 
d="M109 155q25 -41 59.5 -61.5t80.5 -20.5q52 0 83 39t31 94q0 65 -29 100t-80 35q-35 0 -63 -14t-54 -46l-70 22v364h357v-84h-262v-216q20 25 52.5 41t70.5 16q49 0 89 -25t63 -74t23 -116q0 -64 -26 -114t-73.5 -78.5t-108.5 -28.5q-72 0 -120.5 27.5t-83.5 80.5z" />
    <glyph glyph-name="six" unicode="6" horiz-adv-x="501" 
d="M69 506.5q26 77.5 79 124t132 46.5q51 0 92 -21.5t68 -58.5l-50 -69q-21 33 -46 48.5t-63 15.5q-69 0 -105.5 -73t-36.5 -174v-17q20 39 59.5 66.5t86.5 27.5q50 0 90.5 -24.5t64 -72.5t23.5 -117q0 -60 -24 -110t-69 -80t-106 -30q-115 0 -168 97.5t-53 247.5
q0 96 26 173.5zM336 307q-30 33 -78 33q-36 0 -67 -26t-51 -66q5 -70 32 -122.5t87 -52.5q52 0 79.5 39.5t27.5 92.5q0 69 -30 102z" />
    <glyph glyph-name="seven" unicode="7" horiz-adv-x="435" 
d="M305 583h-281v84h388v-66l-211 -601h-103z" />
    <glyph glyph-name="eight" unicode="8" horiz-adv-x="497" 
d="M79.5 275q38.5 48 92.5 69q-51 19 -86 61t-35 101q0 56 27.5 94.5t73 57.5t97.5 19t97 -19t73 -57.5t28 -94.5q0 -59 -35.5 -101t-87.5 -61q54 -21 93 -69t39 -109q0 -82 -57.5 -130t-149.5 -48q-93 0 -150.5 47.5t-57.5 130.5q0 61 38.5 109zM323 565q-28 27 -74 27
q-47 0 -75 -27t-28 -73q0 -49 34.5 -76.5t68.5 -36.5q34 9 68 36.5t34 76.5q0 46 -28 73zM339.5 243q-20.5 28 -47 43.5t-43.5 18.5q-18 -2 -44.5 -18t-47 -44t-20.5 -65q0 -49 32 -77t80 -28q47 0 79 28.5t32 76.5q0 37 -20.5 65z" />
    <glyph glyph-name="nine" unicode="9" horiz-adv-x="501" 
d="M111 137q21 -31 46.5 -47t62.5 -16q71 0 106.5 72.5t35.5 173.5v19q-20 -39 -59.5 -67t-85.5 -28q-50 0 -90.5 24.5t-64.5 72.5t-24 117q0 59 24 109.5t69.5 80.5t105.5 30q115 0 168.5 -97.5t53.5 -247.5q0 -95 -26 -173t-79.5 -124.5t-132.5 -46.5q-51 0 -92 21t-67 59
zM329.5 539.5q-27.5 53.5 -86.5 53.5q-52 0 -80 -39.5t-28 -92.5q0 -69 30 -102t77 -33q38 0 68.5 26t49.5 66q-3 68 -30.5 121.5z" />
    <glyph glyph-name="colon" unicode=":" horiz-adv-x="235" 
d="M75 472.5q18 17.5 43 17.5q24 0 42 -17.5t18 -42.5t-18 -42.5t-42 -17.5q-25 0 -43 17.5t-18 42.5t18 42.5zM75 92.5q18 17.5 43 17.5q24 0 42 -17.5t18 -42.5t-18 -42.5t-42 -17.5q-25 0 -43 17.5t-18 42.5t18 42.5z" />
    <glyph glyph-name="semicolon" unicode=";" horiz-adv-x="235" 
d="M75 388q-18 18 -18 42q0 25 18 42.5t43 17.5q24 0 42 -17.5t18 -42.5q0 -24 -18 -42t-42 -18q-25 0 -43 18zM57 -94q24 15 43.5 42t23.5 51q-4 -2 -14 -2q-23 0 -38 15.5t-15 39.5t17 41.5t42 17.5q28 0 47.5 -22t19.5 -59q0 -47 -23.5 -89t-61.5 -69z" />
    <glyph glyph-name="less" unicode="&#x3c;" horiz-adv-x="440" 
d="M29 365l382 180v-69l-313 -142l313 -140v-69l-382 179v61z" />
    <glyph glyph-name="equal" unicode="=" horiz-adv-x="440" 
d="M29 459h382v-58h-382v58zM29 266h382v-57h-382v57z" />
    <glyph glyph-name="greater" unicode="&#x3e;" horiz-adv-x="440" 
d="M29 194l312 140l-312 142v69l382 -180v-61l-382 -179v69z" />
    <glyph glyph-name="question" unicode="?" horiz-adv-x="388" 
d="M150 343.5q19 28.5 55 62.5q31 29 47 52t16 55q0 33 -23.5 57t-64.5 24q-34 0 -59.5 -14t-46.5 -41l-49 61q31 38 74.5 58t94.5 20t89.5 -20t59.5 -54t21 -76q0 -35 -12 -62.5t-29 -47t-45 -45.5q-34 -34 -49 -55.5t-15 -50.5q0 -13 6 -27t15 -22l-72 -29q-32 33 -32 84
q0 42 19 70.5zM150 92.5q18 17.5 43 17.5t42.5 -17.5t17.5 -42.5t-17.5 -42.5t-42.5 -17.5t-43 17.5t-18 42.5t18 42.5z" />
    <glyph glyph-name="at" unicode="@" horiz-adv-x="696" 
d="M86 430.5q51 94.5 135.5 151.5t179.5 57q76 0 135.5 -36t92 -99.5t32.5 -143.5t-24.5 -143t-63 -97.5t-79.5 -34.5q-37 0 -59.5 21t-25.5 53l-1 7q-25 -36 -58.5 -58.5t-73.5 -22.5q-54 0 -88.5 37.5t-34.5 107.5q0 67 28.5 129.5t76.5 101t104 38.5q37 0 62.5 -20
t37.5 -53l11 57h78l-57 -267q-2 -10 -2 -23q0 -47 36 -47q19 0 41.5 24.5t38.5 72.5t16 116q0 74 -28 129t-79 85t-118 30q-87 0 -162.5 -53t-120.5 -139.5t-45 -179.5q0 -77 30.5 -137.5t85.5 -95t126 -34.5q45 0 84.5 14.5t77.5 41.5l18 -27q-87 -63 -185 -63
q-80 0 -142 38t-96.5 106.5t-34.5 155.5q0 106 51 200.5zM449 370q-8 27 -26.5 46.5t-47.5 19.5q-40 0 -72.5 -30.5t-50.5 -76.5t-18 -91q0 -41 18.5 -65.5t52.5 -24.5q62 0 113 79z" />
    <glyph glyph-name="A" unicode="A" horiz-adv-x="523" 
d="M376 141h-229l-39 -141h-103l199 667h114l200 -667h-103zM167 225h189l-95 339z" />
    <glyph glyph-name="B" unicode="B" horiz-adv-x="528" 
d="M67 667h237q79 0 123.5 -47t44.5 -123q0 -61 -28.5 -100.5t-74.5 -52.5q48 -7 81 -55t33 -109q0 -82 -44.5 -131t-127.5 -49h-244v667zM284 382q45 0 67.5 27.5t22.5 72.5t-22.5 73t-67.5 28h-122v-201h122zM288 84q47 0 72 28t25 79q0 46 -25 76.5t-72 30.5h-126v-214
h126z" />
    <glyph glyph-name="C" unicode="C" horiz-adv-x="540" 
d="M168 32q-60 44 -92.5 122.5t-32.5 178.5t32.5 178.5t92.5 122.5t140 44q135 0 204 -139l-79 -36q-20 42 -52 66t-73 24q-51 0 -89 -33.5t-58.5 -92.5t-20.5 -134t20.5 -134t58.5 -92.5t89 -33.5q43 0 75 26.5t50 71.5l80 -36q-31 -66 -80 -106.5t-125 -40.5
q-80 0 -140 44z" />
    <glyph glyph-name="D" unicode="D" horiz-adv-x="573" 
d="M67 667h188q86 0 148 -43t94.5 -118.5t32.5 -172.5t-32 -172.5t-94 -118t-148 -42.5h-189v667zM255 84q85 0 131 69t46 180q0 113 -45.5 181.5t-131.5 68.5h-93v-499h93z" />
    <glyph glyph-name="E" unicode="E" horiz-adv-x="466" 
d="M67 667h354v-84h-259v-201h252v-84h-252v-214h259v-84h-354v667z" />
    <glyph glyph-name="F" unicode="F" horiz-adv-x="457" 
d="M67 667h354v-84h-259v-201h252v-84h-252v-298h-95v667z" />
    <glyph glyph-name="G" unicode="G" horiz-adv-x="569" 
d="M76 513.5q33 78.5 93 121.5t139 43q72 0 123 -36.5t82 -97.5l-77 -38q-21 40 -53 63.5t-75 23.5q-50 0 -88 -32.5t-59 -91t-21 -136.5q0 -77 21 -136.5t59.5 -92t87.5 -32.5q37 0 68 15t51 37v140h-150v84h240v-260q-82 -101 -209 -101q-79 0 -139 43.5t-93 122
t-33 180.5t33 180.5z" />
    <glyph glyph-name="H" unicode="H" horiz-adv-x="583" 
d="M421 301h-259v-301h-95v667h95v-282h259v282h96v-667h-96v301z" />
    <glyph glyph-name="I" unicode="I" horiz-adv-x="229" 
d="M67 667h95v-667h-95v667z" />
    <glyph glyph-name="J" unicode="J" horiz-adv-x="404" 
d="M48 120q40 -47 93 -47q48 0 74.5 28t26.5 79v487h95v-490q0 -94 -51 -141.5t-137 -47.5t-141 58z" />
    <glyph glyph-name="K" unicode="K" horiz-adv-x="522" 
d="M215 285l-53 -79v-206h-95v667h95v-334l220 334h112l-220 -316l238 -351h-114z" />
    <glyph glyph-name="L" unicode="L" horiz-adv-x="428" 
d="M67 667h95v-583h237v-84h-332v667z" />
    <glyph glyph-name="M" unicode="M" horiz-adv-x="698" 
d="M537 492l-169 -492h-38l-168 492v-492h-95v667h131l151 -440l153 440h129v-667h-94v492z" />
    <glyph glyph-name="N" unicode="N" horiz-adv-x="582" 
d="M162 464v-464h-95v667h96l257 -453v453h95v-667h-91z" />
    <glyph glyph-name="O" unicode="O" horiz-adv-x="606" 
d="M73.5 509.5q30.5 78.5 89.5 123.5t139 45q81 0 140 -45t90 -123.5t31 -176.5t-31 -176.5t-90 -123.5t-140 -45q-80 0 -139 45t-89.5 123.5t-30.5 176.5t30.5 176.5zM422 520q-43 73 -120 73q-76 0 -119 -73t-43 -187q0 -113 43 -186.5t119 -73.5q51 0 88 34t56 93.5
t19 132.5q0 114 -43 187z" />
    <glyph glyph-name="P" unicode="P" horiz-adv-x="500" 
d="M67 667h215q61 0 104 -27.5t65 -74t22 -102.5t-22 -102.5t-65 -74t-104 -27.5h-120v-259h-95v667zM347 550q-28 33 -76 33h-109v-240h109q48 0 76 33t28 87t-28 87z" />
    <glyph glyph-name="Q" unicode="Q" horiz-adv-x="606" 
d="M541.5 184q-21.5 -68 -61.5 -115l40 -61l-67 -43l-34 53q-54 -30 -117 -30q-80 0 -139 45t-89.5 123.5t-30.5 176.5t30.5 176.5t89.5 123.5t139 45q81 0 140 -45t90 -123.5t31 -176.5q0 -81 -21.5 -149zM371 93l-72 114l67 42l60 -95q39 71 39 179q0 114 -43 187t-120 73
q-76 0 -119 -73t-43 -187q0 -113 43 -186.5t119 -73.5q38 0 69 20z" />
    <glyph glyph-name="R" unicode="R" horiz-adv-x="521" 
d="M251 259h-89v-259h-95v667h217q55 0 98 -25t67 -71t24 -107q0 -82 -37.5 -129.5t-91.5 -59.5l135 -275h-107zM347 550q-28 33 -76 33h-109v-240h109q48 0 76 33t28 87t-28 87z" />
    <glyph glyph-name="S" unicode="S" horiz-adv-x="478" 
d="M75 146q28 -32 69 -52.5t88 -20.5q55 0 84.5 28.5t29.5 70.5q0 31 -16.5 53.5t-42 38t-68.5 35.5q-57 26 -91 47t-58.5 58t-24.5 93q0 51 25.5 92.5t71 65t103.5 23.5q56 0 103 -18.5t81 -52.5l-48 -72q-27 29 -63 43.5t-76 14.5q-44 0 -72 -25t-28 -66q0 -27 15.5 -46.5
t39 -33t65.5 -33.5q57 -26 93 -49.5t61.5 -63t25.5 -98.5q0 -53 -23.5 -96t-70.5 -68.5t-115 -25.5q-66 0 -118 22t-89 62z" />
    <glyph glyph-name="T" unicode="T" horiz-adv-x="454" 
d="M179 583h-155v84h406v-84h-156v-583h-95v583z" />
    <glyph glyph-name="U" unicode="U" horiz-adv-x="580" 
d="M67 667h95v-448q0 -71 33.5 -109t94.5 -38t94.5 38t33.5 109v448h95v-447q0 -111 -59 -171.5t-164 -60.5t-164 60.5t-59 171.5v447z" />
    <glyph glyph-name="V" unicode="V" horiz-adv-x="523" 
d="M5 667h103l153 -554l154 554h103l-200 -667h-114z" />
    <glyph glyph-name="W" unicode="W" horiz-adv-x="730" 
d="M365 503l-102 -503h-100l-150 667h102l103 -521l108 521h78l109 -521l102 521h102l-149 -667h-101z" />
    <glyph glyph-name="X" unicode="X" horiz-adv-x="522" 
d="M261 265l-146 -265h-110l198 341l-187 326h110l135 -251l134 251h111l-186 -326l197 -341h-110z" />
    <glyph glyph-name="Y" unicode="Y" horiz-adv-x="510" 
d="M208 280l-206 387h106l147 -297l148 297h105l-205 -387v-280h-95v280z" />
    <glyph glyph-name="Z" unicode="Z" horiz-adv-x="468" 
d="M39 80l269 503h-269v84h383v-78l-270 -505h277v-84h-390v80z" />
    <glyph glyph-name="bracketleft" unicode="[" horiz-adv-x="221" 
d="M38 678h166v-61h-101v-746h101v-61h-166v868z" />
    <glyph glyph-name="backslash" unicode="\" horiz-adv-x="257" 
d="M65 687l192 -707h-64l-192 707h64z" />
    <glyph glyph-name="bracketright" unicode="]" horiz-adv-x="221" 
d="M17 -129h100v746h-100v61h166v-868h-166v61z" />
    <glyph glyph-name="asciicircum" unicode="^" horiz-adv-x="383" 
d="M191 601l-105 -268h-67l141 334h64l140 -334h-66z" />
    <glyph glyph-name="underscore" unicode="_" horiz-adv-x="422" 
d="M-3 -40h428v-61h-428v61z" />
    <glyph glyph-name="grave" unicode="`" horiz-adv-x="194" 
d="M0 700h83l111 -144h-60z" />
    <glyph glyph-name="a" unicode="a" horiz-adv-x="459" 
d="M311 50q-22 -30 -55.5 -46t-71.5 -16q-40 0 -73.5 19.5t-53.5 56t-20 85.5t20 85t53.5 54.5t73.5 18.5q39 0 72.5 -15t54.5 -45v77q0 47 -25 72.5t-71 25.5q-65 0 -121 -57l-35 60q34 35 78 52.5t92 17.5q78 0 123 -39.5t45 -121.5v-334h-86v50zM311 188q-15 27 -41 42.5
t-56 15.5q-41 0 -65.5 -28t-24.5 -71t24.5 -71t65.5 -28q30 0 56 15.5t41 42.5v82z" />
    <glyph glyph-name="b" unicode="b" horiz-adv-x="486" 
d="M62 667h86v-251q21 38 54.5 58.5t70.5 20.5q81 0 128 -69.5t47 -184.5q0 -116 -47 -184.5t-128 -68.5q-37 0 -70.5 21t-54.5 57v-66h-86v667zM190.5 85q28.5 -21 58.5 -21q54 0 82 49.5t28 127.5t-28 128t-82 50q-30 0 -58.5 -21.5t-42.5 -52.5v-209q14 -30 42.5 -51z
" />
    <glyph glyph-name="c" unicode="c" horiz-adv-x="411" 
d="M63.5 371.5q25.5 57.5 72 90.5t108.5 33q92 0 143 -65l-45 -58q-36 47 -90 47q-59 0 -92 -50.5t-33 -126.5t33 -127t92 -51q53 0 90 47l45 -58q-50 -65 -143 -65q-62 0 -108.5 33t-72 91t-25.5 130t25.5 129.5z" />
    <glyph glyph-name="d" unicode="d" horiz-adv-x="486" 
d="M339 66q-22 -36 -55.5 -57t-70.5 -21q-81 0 -128 68.5t-47 184.5q0 115 47 184.5t128 69.5q37 0 70.5 -20.5t55.5 -58.5v251h85v-667h-85v66zM339 346q-14 30 -42.5 51.5t-59.5 21.5q-53 0 -81.5 -50t-28.5 -128q0 -77 28.5 -127t81.5 -50q31 0 59.5 21t42.5 51v210z" />
    <glyph glyph-name="e" unicode="e" horiz-adv-x="471" 
d="M62.5 370q24.5 58 70.5 91.5t107 33.5q93 0 144.5 -72t51.5 -184v-25h-310q3 -69 38 -112t95 -43q30 0 60 15t51 41l44 -52q-31 -36 -73 -55.5t-90 -19.5q-64 0 -112.5 32t-74.5 90t-26 132q0 70 24.5 128zM156 378.5q-28 -45.5 -31 -103.5h227q-1 59 -29 104t-84 45
q-55 0 -83 -45.5z" />
    <glyph glyph-name="f" unicode="f" horiz-adv-x="264" 
d="M81 408h-63v75h63v52q0 66 34 104t90 38q40 0 68 -15l-19 -66q-14 8 -31 8q-26 0 -41 -18t-15 -51v-52h81v-75h-81v-408h-86v408z" />
    <glyph glyph-name="g" unicode="g" horiz-adv-x="486" 
d="M96 -68q48 -55 125 -55q51 0 84 31t33 95v74q-21 -37 -54.5 -58.5t-70.5 -21.5q-81 0 -128 67t-47 182q0 114 47 181.5t128 67.5q37 0 70.5 -20.5t54.5 -58.5v67h86v-474q0 -110 -56 -157.5t-144 -47.5q-52 0 -91.5 14t-74.5 47zM338 346q-13 30 -41.5 51.5t-59.5 21.5
q-53 0 -81.5 -48t-28.5 -125q0 -78 28 -125.5t82 -47.5q31 0 59.5 21.5t41.5 51.5v200z" />
    <glyph glyph-name="h" unicode="h" 
d="M327 338q0 43 -18.5 62t-54.5 19q-32 0 -61 -21t-45 -51v-347h-86v667h86v-251q22 32 60.5 55.5t80.5 23.5q63 0 93.5 -32.5t30.5 -97.5v-365h-86v338z" />
    <glyph glyph-name="i" unicode="i" horiz-adv-x="210" 
d="M65.5 564.5q-16.5 16.5 -16.5 39.5t16.5 39.5t39.5 16.5t39.5 -16.5t16.5 -39.5t-16.5 -39.5t-39.5 -16.5t-39.5 16.5zM62 483h86v-483h-86v483z" />
    <glyph glyph-name="j" unicode="j" horiz-adv-x="210" 
d="M65.5 564.5q-16.5 16.5 -16.5 39.5t16.5 39.5t39.5 16.5t39.5 -16.5t16.5 -39.5t-16.5 -39.5t-39.5 -16.5t-39.5 16.5zM148 -57q0 -68 -32.5 -103.5t-93.5 -35.5q-26 0 -47 6l11 73q12 -4 24 -4q24 0 38 15.5t14 48.5v540h86v-540z" />
    <glyph glyph-name="k" unicode="k" horiz-adv-x="447" 
d="M211 210l-63 -83v-127h-86v667h86v-434l185 250h101l-164 -217l165 -266h-101z" />
    <glyph glyph-name="l" unicode="l" horiz-adv-x="210" 
d="M62 667h86v-667h-86v667z" />
    <glyph glyph-name="m" unicode="m" horiz-adv-x="707" 
d="M559 343q0 76 -64 76q-30 0 -57 -21.5t-42 -50.5v-347h-85v343q0 76 -65 76q-29 0 -55.5 -21.5t-42.5 -50.5v-347h-86v483h86v-67q16 29 54 54t79 25q46 0 74.5 -23t36.5 -63q18 35 56.5 60.5t80.5 25.5q115 0 115 -126v-369h-85v343z" />
    <glyph glyph-name="n" unicode="n" 
d="M327 336q0 44 -19 63.5t-54 19.5q-33 0 -61.5 -21t-44.5 -51v-347h-86v483h86v-67q22 33 60 56t80 23q124 0 124 -131v-364h-85v336z" />
    <glyph glyph-name="o" unicode="o" horiz-adv-x="482" 
d="M131 22.5q-46 34.5 -69.5 92t-23.5 127.5q0 69 23.5 127t69.5 92t110 34t110 -34t69.5 -92t23.5 -127q0 -70 -23.5 -127.5t-69.5 -92t-110 -34.5t-110 34.5zM326 115q29 51 29 127q0 75 -29 126t-85 51q-55 0 -84 -51t-29 -126t29 -126.5t84 -51.5q56 0 85 51z" />
    <glyph glyph-name="p" unicode="p" horiz-adv-x="486" 
d="M62 -184v667h86v-66q21 36 54.5 57t70.5 21q81 0 128 -68.5t47 -184.5t-47 -185t-128 -69q-37 0 -70.5 20.5t-54.5 59.5v-252h-86zM330.5 369q-28.5 50 -81.5 50q-30 0 -58.5 -21t-42.5 -51v-210q14 -30 42.5 -51.5t58.5 -21.5q53 0 81.5 50t28.5 128q0 77 -28.5 127z
" />
    <glyph glyph-name="q" unicode="q" horiz-adv-x="486" 
d="M338 -184v252q-21 -39 -54.5 -59.5t-70.5 -20.5q-81 0 -128 69t-47 185t47 184.5t128 68.5q37 0 70.5 -21t54.5 -57v66h86v-667h-86zM338 347q-13 30 -41.5 51t-59.5 21q-53 0 -81.5 -50t-28.5 -127q0 -78 28.5 -128t81.5 -50q31 0 59.5 21.5t41.5 51.5v210z" />
    <glyph glyph-name="r" unicode="r" horiz-adv-x="299" 
d="M62 483h86v-74q24 39 59 62t76 23v-87q-12 3 -25 3q-31 0 -62.5 -21.5t-47.5 -51.5v-337h-86v483z" />
    <glyph glyph-name="s" unicode="s" horiz-adv-x="394" 
d="M64 117q23 -26 57.5 -43t71.5 -17q40 0 63 19t23 51q0 30 -23.5 47t-72.5 36q-46 17 -74.5 32.5t-49 44.5t-20.5 74q0 57 43 95.5t117 38.5q47 0 86 -16.5t67 -45.5l-38 -59q-18 24 -48.5 38t-65.5 14q-36 0 -58 -17.5t-22 -44.5t21.5 -42t70.5 -35q46 -17 76 -33.5
t51.5 -47t21.5 -77.5q0 -62 -45.5 -101.5t-121.5 -39.5q-110 0 -170 68z" />
    <glyph glyph-name="t" unicode="t" horiz-adv-x="273" 
d="M79 102v306h-64v75h64v132h85v-132h81v-75h-81v-289q0 -55 38 -55q26 0 41 17l22 -64q-29 -29 -82 -29q-104 0 -104 114z" />
    <glyph glyph-name="u" unicode="u" 
d="M327 65q-24 -33 -61 -55t-80 -22q-63 0 -93.5 32.5t-30.5 97.5v365h86v-338q0 -43 18.5 -62t54.5 -19q32 0 60.5 20t45.5 50v349h85v-483h-85v65z" />
    <glyph glyph-name="v" unicode="v" horiz-adv-x="419" 
d="M4 483h92l113 -381l115 381h91l-159 -483h-93z" />
    <glyph glyph-name="w" unicode="w" horiz-adv-x="652" 
d="M326 371l-98 -371h-89l-129 483h89l89 -369l97 369h80l98 -369l90 369h90l-130 -483h-89z" />
    <glyph glyph-name="x" unicode="x" horiz-adv-x="415" 
d="M208 185l-105 -185h-94l146 246l-138 237h94l97 -175l96 175h94l-138 -237l146 -246h-95z" />
    <glyph glyph-name="y" unicode="y" horiz-adv-x="419" 
d="M86 -120q21 0 34 10t22 34l23 66l-161 493h92l113 -379l115 379h91l-192 -579q-18 -55 -49.5 -77.5t-81.5 -22.5q-12 0 -27 2t-24 5l14 76q13 -7 31 -7z" />
    <glyph glyph-name="z" unicode="z" horiz-adv-x="393" 
d="M41 66l200 342h-200v75h307v-64l-201 -344h205v-75h-311v66z" />
    <glyph glyph-name="braceleft" unicode="{" horiz-adv-x="238" 
d="M117.5 -174.5q-27.5 15.5 -44 44t-16.5 65.5v213q0 30 -13.5 49.5t-38.5 19.5v54q25 0 38.5 19.5t13.5 49.5v213q0 37 16.5 65.5t44 44t57.5 15.5h46v-61h-46q-22 0 -37.5 -18t-15.5 -46v-220q0 -70 -45 -89q45 -19 45 -89v-220q0 -27 15.5 -45.5t37.5 -18.5h46v-61h-46
q-30 0 -57.5 15.5z" />
    <glyph glyph-name="bar" unicode="|" horiz-adv-x="195" 
d="M67 687h61v-707h-61v707z" />
    <glyph glyph-name="braceright" unicode="}" horiz-adv-x="238" 
d="M62 -129q22 0 37.5 18.5t15.5 45.5v220q0 69 46 89q-46 20 -46 89v220q0 28 -15.5 46t-37.5 18h-45v61h45q31 0 58.5 -15.5t44 -44t16.5 -65.5v-213q0 -30 13.5 -49.5t38.5 -19.5v-54q-25 0 -38.5 -19.5t-13.5 -49.5v-213q0 -37 -16.5 -65.5t-44 -44t-58.5 -15.5h-45v61
h45z" />
    <glyph glyph-name="asciitilde" unicode="~" horiz-adv-x="453" 
d="M391.5 487.5q-26.5 -66.5 -92.5 -66.5q-30 0 -49 16.5t-29 39.5t-20 59q-10 37 -19.5 54.5t-27.5 17.5q-29 0 -43 -45.5t-22 -142.5l-62 7q8 106 34.5 172.5t92.5 66.5q31 0 49.5 -16.5t28 -39.5t20.5 -60q10 -37 19.5 -54.5t27.5 -17.5q29 0 43 45.5t22 143.5l62 -7
q-8 -106 -34.5 -172.5z" />
    <glyph glyph-name="uni00A0" unicode="&#xa0;" horiz-adv-x="214" 
 />
    <glyph glyph-name="exclamdown" unicode="&#xa1;" horiz-adv-x="235" 
d="M160 475q18 -18 18 -42q0 -25 -18 -42.5t-42 -17.5q-25 0 -43 17.5t-18 42.5q0 24 18 42t43 18q24 0 42 -18zM154 290l17 -474h-106l17 474h72z" />
    <glyph glyph-name="cent" unicode="&#xa2;" horiz-adv-x="411" 
d="M342 111l45 -58q-40 -53 -110 -63v-90h-66v91q-79 13 -126 82t-47 169q0 99 47 168t126 82v73h66v-73q69 -10 110 -62l-45 -58q-28 37 -65 44v-349q36 7 65 44zM149 136q22 -46 62 -62v335q-40 -15 -62 -61t-22 -106t22 -106z" />
    <glyph glyph-name="sterling" unicode="&#xa3;" horiz-adv-x="460" 
d="M448 33q-17 -20 -49.5 -33t-70.5 -13q-28 0 -46 6t-42 18q-19 10 -32.5 15t-31.5 5q-40 0 -98 -38l-33 68q49 26 77.5 65.5t28.5 82.5q0 33 -14 61h-112v59h78q-28 42 -42 74.5t-14 77.5q0 54 27 99t72.5 71t98.5 26q64 0 111 -30.5t67 -86.5l-76 -39q-11 34 -35.5 55.5
t-59.5 21.5q-44 0 -73 -32t-29 -87q0 -38 11 -65t32 -60l15 -25h112v-59h-88q4 -16 4 -40q0 -41 -19 -75.5t-49 -57.5q23 9 45 9q18 0 32.5 -4.5t32.5 -13.5q17 -8 29 -12t27 -4q25 0 46.5 11t32.5 25z" />
    <glyph glyph-name="currency" unicode="&#xa4;" horiz-adv-x="505" 
d="M417 185l75 -74l-52 -52l-72 71q-49 -36 -115 -36q-67 0 -117 37l-71 -70l-52 51l74 74q-37 63 -37 147q0 86 38 148l-75 75l52 52l72 -73q49 36 116 36q66 0 115 -36l72 73l52 -53l-75 -75q38 -62 38 -147q0 -86 -38 -148zM340 218.5q30 46.5 30 114.5q0 67 -30 113.5
t-87 46.5t-87.5 -46.5t-30.5 -113.5q0 -68 30.5 -114.5t87.5 -46.5t87 46.5z" />
    <glyph glyph-name="yen" unicode="&#xa5;" horiz-adv-x="510" 
d="M333 338h154v-58h-184v-101h184v-58h-184v-121h-95v121h-186v58h186v101h-186v58h155l-175 329h106l147 -297l148 297h105z" />
    <glyph glyph-name="brokenbar" unicode="&#xa6;" horiz-adv-x="195" 
d="M67 687h61v-316h-61v316zM67 296h61v-316h-61v316z" />
    <glyph glyph-name="section" unicode="&#xa7;" horiz-adv-x="396" 
d="M341 134.5q20 -30.5 20 -73.5q0 -63 -47 -102.5t-120 -39.5q-104 0 -169 70l39 56q22 -25 55 -44t72 -19t63.5 21t24.5 54q0 23 -13 39.5t-32.5 26.5t-55.5 25q-45 18 -72.5 33.5t-47 43.5t-19.5 71q0 44 27 75.5t69 43.5q-49 26 -72.5 58t-23.5 74q0 57 43.5 93.5
t112.5 36.5q100 0 156 -63l-37 -52q-45 52 -114 52q-35 0 -57.5 -18.5t-22.5 -47.5q0 -22 12.5 -36.5t30.5 -23.5t54 -24q46 -18 74.5 -34t49 -45t20.5 -74q0 -39 -20.5 -71.5t-60.5 -51.5q41 -23 61 -53.5zM118 308q0 -32 24.5 -52.5t75.5 -41.5q62 28 62 82
q0 36 -21.5 57.5t-56.5 35.5q-84 -19 -84 -81z" />
    <glyph glyph-name="dieresis" unicode="&#xa8;" horiz-adv-x="273" 
d="M12 569.5q-15 14.5 -15 35.5t15 36t36 15t35.5 -15t14.5 -36t-14.5 -35.5t-35.5 -14.5t-36 14.5zM190 569.5q-15 14.5 -15 35.5t15 36t35 15q21 0 36 -15t15 -36t-15 -35.5t-36 -14.5q-20 0 -35 14.5z" />
    <glyph glyph-name="copyright" unicode="&#xa9;" horiz-adv-x="778" 
d="M216.5 34.5q-79.5 46.5 -126 126t-46.5 172.5q0 94 46.5 173t125.5 125.5t173 46.5t173 -46.5t125.5 -125.5t46.5 -173t-46.5 -173t-125.5 -125.5t-173 -46.5q-93 0 -172.5 46.5zM232.5 603.5q-71.5 -42.5 -114 -114t-42.5 -156.5t42.5 -156.5t114 -114t156.5 -42.5
t156.5 42.5t114 114t42.5 156.5t-42.5 156.5t-114 114t-156.5 42.5t-156.5 -42.5zM392 120q-57 0 -104.5 28.5t-75.5 77.5t-28 108q0 60 28 108.5t75.5 76t104.5 27.5q91 0 146 -65l-26 -26q-19 26 -52 41.5t-68 15.5q-45 0 -84 -22.5t-62.5 -63t-23.5 -92.5q0 -51 23.5 -92
t62.5 -64t84 -23q36 0 68 16t52 42l27 -26q-57 -67 -147 -67z" />
    <glyph glyph-name="ordfeminine" unicode="&#xaa;" horiz-adv-x="333" 
d="M218 359q-14 -19 -36.5 -30t-50.5 -11q-42 0 -71 28t-29 76t29 75.5t71 27.5q28 0 50.5 -10.5t36.5 -29.5v50q0 30 -17.5 46t-46.5 16q-48 0 -82 -40l-27 43q24 24 55 36t64 12q55 0 86.5 -27.5t31.5 -86.5v-208h-64v33zM218 449q-10 17 -27 26t-37 9q-26 0 -42 -17
t-16 -44q0 -28 16 -45t42 -17q20 0 37 9t27 26v53z" />
    <glyph glyph-name="guillemotleft" unicode="&#xab;" horiz-adv-x="403" 
d="M30 243l125 177h77l-125 -177l125 -180h-77zM171 243l125 177h77l-125 -177l125 -180h-77z" />
    <glyph glyph-name="logicalnot" unicode="&#xac;" horiz-adv-x="443" 
d="M351 209v192h-322v58h382v-250h-60z" />
    <glyph glyph-name="uni00AD" unicode="&#xad;" horiz-adv-x="268" 
d="M30 279h208v-74h-208v74z" />
    <glyph glyph-name="registered" unicode="&#xae;" horiz-adv-x="494" 
d="M140.5 281.5q-48.5 28.5 -77 77t-28.5 106.5t28.5 106.5t77 77t106.5 28.5t106.5 -28.5t77 -77t28.5 -106.5t-28.5 -106.5t-77 -77t-106.5 -28.5t-106.5 28.5zM155 623q-42 -24 -66.5 -66t-24.5 -92q0 -49 24.5 -91t66.5 -67t92 -25t91.5 25t66 67t24.5 91q0 50 -24.5 92
t-66 66t-91.5 24t-92 -24zM242 439h-44v-96h-32v243h99q32 0 54.5 -20.5t22.5 -53.5q0 -25 -11.5 -41t-26.5 -23.5t-24 -7.5l65 -97h-40zM198 557v-88h67q17 0 30.5 12.5t13.5 30.5q0 20 -13.5 32.5t-30.5 12.5h-67z" />
    <glyph glyph-name="macron" unicode="&#xaf;" horiz-adv-x="307" 
d="M0 623h307v-53h-307v53z" />
    <glyph glyph-name="degree" unicode="&#xb0;" horiz-adv-x="295" 
d="M58.5 464q-36.5 36 -36.5 88q0 34 17 62.5t45.5 45.5t61.5 17q52 0 88.5 -36.5t36.5 -88.5t-36.5 -88t-88.5 -36q-51 0 -87.5 36zM96 603.5q-21 -21.5 -21 -51.5t21 -51t50 -21q30 0 51.5 21t21.5 51t-21.5 51.5t-51.5 21.5q-29 0 -50 -21.5z" />
    <glyph glyph-name="plusminus" unicode="&#xb1;" horiz-adv-x="440" 
d="M251 136h-62v181h-160v57h160v175h62v-175h160v-57h-160v-181zM29 77h382v-57h-382v57z" />
    <glyph glyph-name="uni00B2" unicode="&#xb2;" horiz-adv-x="332" 
d="M40 471q81 77 118.5 116t54.5 67.5t17 55.5q0 29 -19 45.5t-47 16.5q-29 0 -53 -14t-38 -36l-40 40q24 32 58 48.5t75 16.5q57 0 94 -30t37 -84q0 -47 -36.5 -96t-129.5 -141h168v-55h-259v50z" />
    <glyph glyph-name="uni00B3" unicode="&#xb3;" horiz-adv-x="332" 
d="M83 432q-35 18 -54 47l40 41q16 -24 40.5 -37.5t52.5 -13.5q35 0 53.5 17.5t18.5 47.5q0 35 -22.5 50t-57.5 15q-29 0 -34 -1v55q6 -1 32 -1q35 0 55.5 15t20.5 45q0 29 -19 44.5t-50 15.5q-54 0 -87 -47l-39 39q22 29 55.5 46t75.5 17q59 0 94.5 -28t35.5 -79
q0 -36 -23 -61t-54 -31q32 -4 57.5 -30.5t25.5 -67.5q0 -52 -36.5 -84t-99.5 -32q-46 0 -81 18z" />
    <glyph glyph-name="acute" unicode="&#xb4;" horiz-adv-x="194" 
d="M0 556l111 144h83l-134 -144h-60z" />
    <glyph glyph-name="mu" unicode="&#xb5;" horiz-adv-x="487" 
d="M62 -184v667h86v-338q0 -42 19.5 -62t55.5 -20q31 0 59 20.5t45 50.5v349h85v-368q0 -51 37 -51q7 0 17 2l6 -73q-17 -5 -41 -5q-87 0 -101 85q-19 -38 -50 -61.5t-66 -23.5q-47 0 -66 30v-202h-86z" />
    <glyph glyph-name="paragraph" unicode="&#xb6;" horiz-adv-x="449" 
d="M334 619h-87v-719h-48v423q-47 0 -86.5 23t-62.5 62.5t-23 86.5t23 86.5t62.5 62.5t86.5 23h184v-767h-49v719z" />
    <glyph glyph-name="periodcentered" unicode="&#xb7;" horiz-adv-x="235" 
d="M74.5 202q-17.5 18 -17.5 43q0 24 17.5 42t42.5 18t43 -18t18 -42q0 -25 -18 -43t-43 -18t-42.5 18z" />
    <glyph glyph-name="cedilla" unicode="&#xb8;" horiz-adv-x="190" 
d="M20 -122q32 -28 70 -28q21 0 36.5 11t15.5 29q0 15 -8 23.5t-24 8.5q-19 0 -31 -15l-36 21l31 83h48l-26 -66q14 11 33 11q26 0 43.5 -18.5t17.5 -48.5q0 -36 -28.5 -58.5t-69.5 -22.5q-28 0 -52 8.5t-40 21.5z" />
    <glyph glyph-name="uni00B9" unicode="&#xb9;" horiz-adv-x="237" 
d="M114 734l-63 -65l-39 40l111 112h58v-400h-67v313z" />
    <glyph glyph-name="ordmasculine" unicode="&#xba;" horiz-adv-x="350" 
d="M71 600.5q38 47.5 104 47.5t104 -47.5t38 -117.5t-38 -117.5t-104 -47.5t-104 47.5t-38 117.5t38 117.5zM231 562.5q-19 30.5 -56 30.5t-56 -30.5t-19 -79.5t19 -80.5t56 -31.5t56 31.5t19 80.5t-19 79.5z" />
    <glyph glyph-name="guillemotright" unicode="&#xbb;" horiz-adv-x="403" 
d="M30 63l125 180l-125 177h77l125 -177l-125 -180h-77zM171 63l125 180l-125 177h77l125 -177l-125 -180h-77z" />
    <glyph glyph-name="onequarter" unicode="&#xbc;" horiz-adv-x="692" 
d="M127 0l351 667h53l-352 -667h-52zM622 0h-67v97h-169v51l148 252h88v-249h46v-54h-46v-97zM449 151h106v182zM114 580l-63 -65l-39 40l111 112h58v-400h-67v313z" />
    <glyph glyph-name="onehalf" unicode="&#xbd;" horiz-adv-x="727" 
d="M127 0l351 667h53l-352 -667h-52zM435 50q81 77 118.5 116t54.5 67.5t17 55.5q0 29 -19 45.5t-47 16.5q-29 0 -53 -14t-38 -36l-40 40q24 32 58 48.5t75 16.5q57 0 94 -30t37 -84q0 -47 -36.5 -96t-129.5 -141h168v-55h-259v50zM114 580l-63 -65l-39 40l111 112h58v-400
h-67v313z" />
    <glyph glyph-name="threequarters" unicode="&#xbe;" horiz-adv-x="761" 
d="M196 0l351 667h53l-352 -667h-52zM692 0h-67v97h-169v51l148 252h88v-249h46v-54h-46v-97zM519 151h106v182zM83 278q-35 18 -54 47l40 41q16 -24 40.5 -37.5t52.5 -13.5q35 0 53.5 17.5t18.5 47.5q0 35 -22.5 50t-57.5 15q-29 0 -34 -1v55q6 -1 32 -1q35 0 55.5 15
t20.5 45q0 29 -19 44.5t-50 15.5q-54 0 -87 -47l-39 39q22 29 55.5 46t75.5 17q59 0 94.5 -28t35.5 -79q0 -36 -23 -61t-54 -31q32 -4 57.5 -30.5t25.5 -67.5q0 -52 -36.5 -84t-99.5 -32q-46 0 -81 18z" />
    <glyph glyph-name="questiondown" unicode="&#xbf;" horiz-adv-x="335" 
d="M238 390.5q-18 -17.5 -43 -17.5t-42.5 17.5t-17.5 42.5q0 24 17.5 42t42.5 18t43 -18t18 -42q0 -25 -18 -42.5zM238 137.5q-19 -28.5 -55 -61.5q-32 -31 -47.5 -53.5t-15.5 -54.5q0 -33 23.5 -57t64.5 -24q34 0 59.5 13.5t47.5 40.5l48 -61q-31 -37 -74.5 -56.5
t-94.5 -19.5t-89.5 19.5t-59 53t-20.5 75.5q0 51 22 84.5t63 71.5q33 31 49 53.5t16 52.5q0 13 -6 27t-16 22l72 29q32 -33 32 -84q0 -42 -19 -70.5z" />
    <glyph glyph-name="Agrave" unicode="&#xc0;" horiz-adv-x="523" 
d="M117 867h83l111 -144h-60zM376 141h-229l-39 -141h-103l199 667h114l200 -667h-103zM167 225h189l-95 339z" />
    <glyph glyph-name="Aacute" unicode="&#xc1;" horiz-adv-x="523" 
d="M213 723l111 144h83l-134 -144h-60zM376 141h-229l-39 -141h-103l199 667h114l200 -667h-103zM167 225h189l-95 339z" />
    <glyph glyph-name="Acircumflex" unicode="&#xc2;" horiz-adv-x="523" 
d="M261 824l-66 -101h-53l79 144h81l82 -144h-53zM376 141h-229l-39 -141h-103l199 667h114l200 -667h-103zM167 225h189l-95 339z" />
    <glyph glyph-name="Atilde" unicode="&#xc3;" horiz-adv-x="523" 
d="M227 799.5q-7 8.5 -18 8.5q-16 0 -26.5 -20.5t-10.5 -60.5h-48q0 60 23 97t65 37q24 0 37.5 -13.5t28.5 -38.5q12 -18 19.5 -26.5t17.5 -8.5q17 0 27 20t10 61h48q0 -60 -23 -97t-65 -37q-24 0 -37.5 13t-29.5 39q-11 18 -18 26.5zM376 141h-229l-39 -141h-103l199 667
h114l200 -667h-103zM167 225h189l-95 339z" />
    <glyph glyph-name="Adieresis" unicode="&#xc4;" horiz-adv-x="523" 
d="M137 736.5q-15 14.5 -15 35.5t15 36t36 15t35.5 -15t14.5 -36t-14.5 -35.5t-35.5 -14.5t-36 14.5zM315 736.5q-15 14.5 -15 35.5t15 36t35 15q21 0 36 -15t15 -36t-15 -35.5t-36 -14.5q-20 0 -35 14.5zM376 141h-229l-39 -141h-103l199 667h114l200 -667h-103zM167 225
h189l-95 339z" />
    <glyph glyph-name="Aring" unicode="&#xc5;" horiz-adv-x="523" 
d="M197.5 849q27.5 27 64.5 27q38 0 65 -27t27 -65t-27 -65.5t-65 -27.5t-65 27.5t-27 65.5t27.5 65zM297.5 819q-14.5 15 -35.5 15q-20 0 -35 -15t-15 -35q0 -21 15 -36t35 -15q21 0 35.5 15t14.5 36q0 20 -14.5 35zM376 141h-229l-39 -141h-103l199 667h114l200 -667h-103
zM167 225h189l-95 339z" />
    <glyph glyph-name="AE" unicode="&#xc6;" horiz-adv-x="761" 
d="M362 141h-188l-64 -141h-103l316 667h393v-84h-258v-201h251v-84h-251v-214h258v-84h-354v141zM209 225h153v339z" />
    <glyph glyph-name="Ccedilla" unicode="&#xc7;" horiz-adv-x="540" 
d="M323 -12l-16 -39q14 11 33 11q26 0 43.5 -18.5t17.5 -48.5q0 -36 -28.5 -58.5t-69.5 -22.5q-28 0 -52 8.5t-40 21.5l20 40q32 -28 70 -28q21 0 36.5 11t15.5 29q0 15 -8 23.5t-24 8.5q-19 0 -31 -15l-36 21l22 58q-71 9 -123.5 55t-81 120.5t-28.5 167.5
q0 100 32.5 178.5t92.5 122.5t140 44q135 0 204 -139l-79 -36q-20 42 -52 66t-73 24q-51 0 -89 -33.5t-58.5 -92.5t-20.5 -134t20.5 -134t58.5 -92.5t89 -33.5q43 0 75 26.5t50 71.5l80 -36q-66 -140 -190 -147z" />
    <glyph glyph-name="Egrave" unicode="&#xc8;" horiz-adv-x="466" 
d="M99 867h83l111 -144h-60zM67 667h354v-84h-259v-201h252v-84h-252v-214h259v-84h-354v667z" />
    <glyph glyph-name="Eacute" unicode="&#xc9;" horiz-adv-x="466" 
d="M195 723l111 144h83l-134 -144h-60zM67 667h354v-84h-259v-201h252v-84h-252v-214h259v-84h-354v667z" />
    <glyph glyph-name="Ecircumflex" unicode="&#xca;" horiz-adv-x="466" 
d="M243 824l-66 -101h-53l79 144h81l82 -144h-53zM67 667h354v-84h-259v-201h252v-84h-252v-214h259v-84h-354v667z" />
    <glyph glyph-name="Edieresis" unicode="&#xcb;" horiz-adv-x="466" 
d="M120 736.5q-15 14.5 -15 35.5t15 36t36 15t35.5 -15t14.5 -36t-14.5 -35.5t-35.5 -14.5t-36 14.5zM298 736.5q-15 14.5 -15 35.5t15 36t35 15q21 0 36 -15t15 -36t-15 -35.5t-36 -14.5q-20 0 -35 14.5zM67 667h354v-84h-259v-201h252v-84h-252v-214h259v-84h-354v667z
" />
    <glyph glyph-name="Igrave" unicode="&#xcc;" horiz-adv-x="229" 
d="M-31 867h83l111 -144h-60zM67 667h95v-667h-95v667z" />
    <glyph glyph-name="Iacute" unicode="&#xcd;" horiz-adv-x="229" 
d="M66 723l111 144h83l-134 -144h-60zM67 667h95v-667h-95v667z" />
    <glyph glyph-name="Icircumflex" unicode="&#xce;" horiz-adv-x="229" 
d="M114 824l-66 -101h-53l79 144h81l82 -144h-53zM67 667h95v-667h-95v667z" />
    <glyph glyph-name="Idieresis" unicode="&#xcf;" horiz-adv-x="229" 
d="M-9 736.5q-15 14.5 -15 35.5t15 36t36 15t35.5 -15t14.5 -36t-14.5 -35.5t-35.5 -14.5t-36 14.5zM169 736.5q-15 14.5 -15 35.5t15 36t35 15q21 0 36 -15t15 -36t-15 -35.5t-36 -14.5q-20 0 -35 14.5zM67 667h95v-667h-95v667z" />
    <glyph glyph-name="Eth" unicode="&#xd0;" horiz-adv-x="597" 
d="M427 624q62 -43 94 -118.5t32 -172.5t-32 -172.5t-94 -118t-148 -42.5h-188v294h-76v71h76v302h188q86 0 148 -43zM409.5 153q46.5 69 46.5 180q0 113 -46 181.5t-131 68.5h-93v-218h121v-71h-121v-210h93q84 0 130.5 69z" />
    <glyph glyph-name="Ntilde" unicode="&#xd1;" horiz-adv-x="582" 
d="M254 799.5q-7 8.5 -18 8.5q-16 0 -26.5 -20.5t-10.5 -60.5h-48q0 60 23 97t65 37q24 0 37.5 -13.5t28.5 -38.5q12 -18 19.5 -26.5t17.5 -8.5q17 0 27 20t10 61h48q0 -60 -23 -97t-65 -37q-24 0 -37.5 13t-29.5 39q-11 18 -18 26.5zM162 464v-464h-95v667h96l257 -453v453
h95v-667h-91z" />
    <glyph glyph-name="Ograve" unicode="&#xd2;" horiz-adv-x="606" 
d="M158 867h83l111 -144h-60zM73.5 509.5q30.5 78.5 89.5 123.5t139 45q81 0 140 -45t90 -123.5t31 -176.5t-31 -176.5t-90 -123.5t-140 -45q-80 0 -139 45t-89.5 123.5t-30.5 176.5t30.5 176.5zM422 520q-43 73 -120 73q-76 0 -119 -73t-43 -187q0 -113 43 -186.5
t119 -73.5q51 0 88 34t56 93.5t19 132.5q0 114 -43 187z" />
    <glyph glyph-name="Oacute" unicode="&#xd3;" horiz-adv-x="606" 
d="M254 723l111 144h83l-134 -144h-60zM73.5 509.5q30.5 78.5 89.5 123.5t139 45q81 0 140 -45t90 -123.5t31 -176.5t-31 -176.5t-90 -123.5t-140 -45q-80 0 -139 45t-89.5 123.5t-30.5 176.5t30.5 176.5zM422 520q-43 73 -120 73q-76 0 -119 -73t-43 -187q0 -113 43 -186.5
t119 -73.5q51 0 88 34t56 93.5t19 132.5q0 114 -43 187z" />
    <glyph glyph-name="Ocircumflex" unicode="&#xd4;" horiz-adv-x="606" 
d="M302 824l-66 -101h-53l79 144h81l82 -144h-53zM73.5 509.5q30.5 78.5 89.5 123.5t139 45q81 0 140 -45t90 -123.5t31 -176.5t-31 -176.5t-90 -123.5t-140 -45q-80 0 -139 45t-89.5 123.5t-30.5 176.5t30.5 176.5zM422 520q-43 73 -120 73q-76 0 -119 -73t-43 -187
q0 -113 43 -186.5t119 -73.5q51 0 88 34t56 93.5t19 132.5q0 114 -43 187z" />
    <glyph glyph-name="Otilde" unicode="&#xd5;" horiz-adv-x="606" 
d="M268 799.5q-7 8.5 -18 8.5q-16 0 -26.5 -20.5t-10.5 -60.5h-48q0 60 23 97t65 37q24 0 37.5 -13.5t28.5 -38.5q12 -18 19.5 -26.5t17.5 -8.5q17 0 27 20t10 61h48q0 -60 -23 -97t-65 -37q-24 0 -37.5 13t-29.5 39q-11 18 -18 26.5zM73.5 509.5q30.5 78.5 89.5 123.5
t139 45q81 0 140 -45t90 -123.5t31 -176.5t-31 -176.5t-90 -123.5t-140 -45q-80 0 -139 45t-89.5 123.5t-30.5 176.5t30.5 176.5zM422 520q-43 73 -120 73q-76 0 -119 -73t-43 -187q0 -113 43 -186.5t119 -73.5q51 0 88 34t56 93.5t19 132.5q0 114 -43 187z" />
    <glyph glyph-name="Odieresis" unicode="&#xd6;" horiz-adv-x="606" 
d="M178 736.5q-15 14.5 -15 35.5t15 36t36 15t35.5 -15t14.5 -36t-14.5 -35.5t-35.5 -14.5t-36 14.5zM356 736.5q-15 14.5 -15 35.5t15 36t35 15q21 0 36 -15t15 -36t-15 -35.5t-36 -14.5q-20 0 -35 14.5zM73.5 509.5q30.5 78.5 89.5 123.5t139 45q81 0 140 -45t90 -123.5
t31 -176.5t-31 -176.5t-90 -123.5t-140 -45q-80 0 -139 45t-89.5 123.5t-30.5 176.5t30.5 176.5zM422 520q-43 73 -120 73q-76 0 -119 -73t-43 -187q0 -113 43 -186.5t119 -73.5q51 0 88 34t56 93.5t19 132.5q0 114 -43 187z" />
    <glyph glyph-name="multiply" unicode="&#xd7;" horiz-adv-x="440" 
d="M94 167l-41 41l126 126l-126 126l41 41l126 -126l126 126l41 -41l-126 -126l126 -126l-41 -41l-126 126z" />
    <glyph glyph-name="Oslash" unicode="&#xd8;" horiz-adv-x="606" 
d="M542 480q21 -68 21 -147q0 -98 -31 -176.5t-90 -123.5t-140 -45q-78 0 -138 44l-19 -32h-67l42 75q-37 46 -57 113t-20 145q0 98 30.5 176.5t89.5 123.5t139 45q77 0 136 -42l18 31h67l-41 -72q39 -47 60 -115zM172 167l221 390q-38 36 -91 36q-76 0 -119 -73t-43 -187
q0 -97 32 -166zM390 107q37 34 56 93.5t19 132.5q0 101 -34 171l-222 -391q38 -40 93 -40q51 0 88 34z" />
    <glyph glyph-name="Ugrave" unicode="&#xd9;" horiz-adv-x="580" 
d="M145 867h83l111 -144h-60zM67 667h95v-448q0 -71 33.5 -109t94.5 -38t94.5 38t33.5 109v448h95v-447q0 -111 -59 -171.5t-164 -60.5t-164 60.5t-59 171.5v447z" />
    <glyph glyph-name="Uacute" unicode="&#xda;" horiz-adv-x="580" 
d="M241 723l111 144h83l-134 -144h-60zM67 667h95v-448q0 -71 33.5 -109t94.5 -38t94.5 38t33.5 109v448h95v-447q0 -111 -59 -171.5t-164 -60.5t-164 60.5t-59 171.5v447z" />
    <glyph glyph-name="Ucircumflex" unicode="&#xdb;" horiz-adv-x="580" 
d="M289 824l-66 -101h-53l79 144h81l82 -144h-53zM67 667h95v-448q0 -71 33.5 -109t94.5 -38t94.5 38t33.5 109v448h95v-447q0 -111 -59 -171.5t-164 -60.5t-164 60.5t-59 171.5v447z" />
    <glyph glyph-name="Udieresis" unicode="&#xdc;" horiz-adv-x="580" 
d="M166 736.5q-15 14.5 -15 35.5t15 36t36 15t35.5 -15t14.5 -36t-14.5 -35.5t-35.5 -14.5t-36 14.5zM344 736.5q-15 14.5 -15 35.5t15 36t35 15q21 0 36 -15t15 -36t-15 -35.5t-36 -14.5q-20 0 -35 14.5zM67 667h95v-448q0 -71 33.5 -109t94.5 -38t94.5 38t33.5 109v448h95
v-447q0 -111 -59 -171.5t-164 -60.5t-164 60.5t-59 171.5v447z" />
    <glyph glyph-name="Yacute" unicode="&#xdd;" horiz-adv-x="510" 
d="M206 723l111 144h83l-134 -144h-60zM208 280l-206 387h106l147 -297l148 297h105l-205 -387v-280h-95v280z" />
    <glyph glyph-name="Thorn" unicode="&#xde;" horiz-adv-x="500" 
d="M67 667h95v-117h120q61 0 104 -27.5t65 -74.5t22 -103t-22 -102t-65 -73t-104 -27h-120v-143h-95v667zM346.5 432.5q-28.5 33.5 -75.5 33.5h-109v-239h109q48 0 76 32.5t28 86.5q0 53 -28.5 86.5z" />
    <glyph glyph-name="germandbls" unicode="&#xdf;" horiz-adv-x="540" 
d="M269.5 5.5q-36.5 17.5 -69.5 52.5l38 60q19 -25 49.5 -43t66.5 -18q38 0 61 20t23 51q0 30 -22.5 47t-69.5 38q-44 18 -69.5 33t-44.5 42.5t-19 69.5q0 37 18 60.5t51 49.5q25 20 37 35t12 34q0 28 -25 46t-59 18q-41 0 -68 -26t-27 -74v-501h-85v501q0 50 22 90t63 63
t96 23q45 0 84 -16.5t62 -46.5t23 -67q0 -40 -18 -64t-53 -52q-26 -20 -38 -34.5t-12 -34.5q0 -27 21 -42.5t66 -33.5q44 -17 72 -33t48.5 -46t20.5 -77q0 -39 -20 -71.5t-57 -51.5t-86 -19q-55 0 -91.5 17.5z" />
    <glyph glyph-name="agrave" unicode="&#xe0;" horiz-adv-x="459" 
d="M311 50q-22 -30 -55.5 -46t-71.5 -16q-40 0 -73.5 19.5t-53.5 56t-20 85.5t20 85t53.5 54.5t73.5 18.5q39 0 72.5 -15t54.5 -45v77q0 47 -25 72.5t-71 25.5q-65 0 -121 -57l-35 60q34 35 78 52.5t92 17.5q78 0 123 -39.5t45 -121.5v-334h-86v50zM311 188q-15 27 -41 42.5
t-56 15.5q-41 0 -65.5 -28t-24.5 -71t24.5 -71t65.5 -28q30 0 56 15.5t41 42.5v82zM84 700h83l111 -144h-60z" />
    <glyph glyph-name="aacute" unicode="&#xe1;" horiz-adv-x="459" 
d="M311 50q-22 -30 -55.5 -46t-71.5 -16q-40 0 -73.5 19.5t-53.5 56t-20 85.5t20 85t53.5 54.5t73.5 18.5q39 0 72.5 -15t54.5 -45v77q0 47 -25 72.5t-71 25.5q-65 0 -121 -57l-35 60q34 35 78 52.5t92 17.5q78 0 123 -39.5t45 -121.5v-334h-86v50zM311 188q-15 27 -41 42.5
t-56 15.5q-41 0 -65.5 -28t-24.5 -71t24.5 -71t65.5 -28q30 0 56 15.5t41 42.5v82zM180 556l111 144h83l-134 -144h-60z" />
    <glyph glyph-name="acircumflex" unicode="&#xe2;" horiz-adv-x="459" 
d="M311 50q-22 -30 -55.5 -46t-71.5 -16q-40 0 -73.5 19.5t-53.5 56t-20 85.5t20 85t53.5 54.5t73.5 18.5q39 0 72.5 -15t54.5 -45v77q0 47 -25 72.5t-71 25.5q-65 0 -121 -57l-35 60q34 35 78 52.5t92 17.5q78 0 123 -39.5t45 -121.5v-334h-86v50zM311 188q-15 27 -41 42.5
t-56 15.5q-41 0 -65.5 -28t-24.5 -71t24.5 -71t65.5 -28q30 0 56 15.5t41 42.5v82zM229 657l-66 -101h-53l79 144h81l82 -144h-53z" />
    <glyph glyph-name="atilde" unicode="&#xe3;" horiz-adv-x="459" 
d="M311 50q-22 -30 -55.5 -46t-71.5 -16q-40 0 -73.5 19.5t-53.5 56t-20 85.5t20 85t53.5 54.5t73.5 18.5q39 0 72.5 -15t54.5 -45v77q0 47 -25 72.5t-71 25.5q-65 0 -121 -57l-35 60q34 35 78 52.5t92 17.5q78 0 123 -39.5t45 -121.5v-334h-86v50zM311 188q-15 27 -41 42.5
t-56 15.5q-41 0 -65.5 -28t-24.5 -71t24.5 -71t65.5 -28q30 0 56 15.5t41 42.5v82zM195 632.5q-7 8.5 -18 8.5q-16 0 -26.5 -20.5t-10.5 -60.5h-48q0 60 23 97t65 37q24 0 37.5 -13.5t28.5 -38.5q12 -18 19.5 -26.5t17.5 -8.5q17 0 27 20t10 61h48q0 -60 -23 -97t-65 -37
q-24 0 -37.5 13t-29.5 39q-11 18 -18 26.5z" />
    <glyph glyph-name="adieresis" unicode="&#xe4;" horiz-adv-x="459" 
d="M311 50q-22 -30 -55.5 -46t-71.5 -16q-40 0 -73.5 19.5t-53.5 56t-20 85.5t20 85t53.5 54.5t73.5 18.5q39 0 72.5 -15t54.5 -45v77q0 47 -25 72.5t-71 25.5q-65 0 -121 -57l-35 60q34 35 78 52.5t92 17.5q78 0 123 -39.5t45 -121.5v-334h-86v50zM311 188q-15 27 -41 42.5
t-56 15.5q-41 0 -65.5 -28t-24.5 -71t24.5 -71t65.5 -28q30 0 56 15.5t41 42.5v82zM105 569.5q-15 14.5 -15 35.5t15 36t36 15t35.5 -15t14.5 -36t-14.5 -35.5t-35.5 -14.5t-36 14.5zM283 569.5q-15 14.5 -15 35.5t15 36t35 15q21 0 36 -15t15 -36t-15 -35.5t-36 -14.5
q-20 0 -35 14.5z" />
    <glyph glyph-name="aring" unicode="&#xe5;" horiz-adv-x="459" 
d="M311 50q-22 -30 -55.5 -46t-71.5 -16q-40 0 -73.5 19.5t-53.5 56t-20 85.5t20 85t53.5 54.5t73.5 18.5q39 0 72.5 -15t54.5 -45v77q0 47 -25 72.5t-71 25.5q-65 0 -121 -57l-35 60q34 35 78 52.5t92 17.5q78 0 123 -39.5t45 -121.5v-334h-86v50zM311 188q-15 27 -41 42.5
t-56 15.5q-41 0 -65.5 -28t-24.5 -71t24.5 -71t65.5 -28q30 0 56 15.5t41 42.5v82zM165.5 699q27.5 27 64.5 27q38 0 65 -27t27 -65t-27 -65.5t-65 -27.5t-65 27.5t-27 65.5t27.5 65zM265.5 669q-14.5 15 -35.5 15q-20 0 -35 -15t-15 -35q0 -21 15 -36t35 -15q21 0 35.5 15
t14.5 36q0 20 -14.5 35z" />
    <glyph glyph-name="ae" unicode="&#xe6;" horiz-adv-x="740" 
d="M445.5 102q32.5 -43 89.5 -43q28 0 56.5 15t48.5 42l43 -53q-30 -35 -71 -55t-84 -20q-56 0 -94.5 24t-64.5 71q-23 -42 -66.5 -68.5t-98.5 -26.5q-74 0 -120.5 42.5t-46.5 116.5t43.5 117t109.5 43q41 0 77 -15t59 -44v76q0 47 -27 72.5t-76 25.5q-72 0 -129 -57l-35 60
q35 35 79.5 52.5t92.5 17.5q55 0 92.5 -24t50.5 -66q23 41 57 65.5t88 24.5q89 0 137.5 -72t48.5 -185v-24h-295q3 -69 35.5 -112zM595.5 379q-25.5 45 -79.5 45q-52 0 -78.5 -45.5t-28.5 -103.5h212q0 59 -25.5 104zM280.5 230.5q-28.5 15.5 -60.5 15.5q-43 0 -69.5 -25.5
t-26.5 -68.5q0 -44 26 -69t70 -25q45 0 75.5 33.5t30.5 78.5v18q-17 27 -45.5 42.5z" />
    <glyph glyph-name="ccedilla" unicode="&#xe7;" horiz-adv-x="411" 
d="M342 111l45 -58q-44 -57 -121 -64l-17 -42q12 11 33 11q26 0 43 -18.5t17 -48.5q0 -36 -28 -58.5t-70 -22.5q-27 0 -51.5 8.5t-39.5 21.5l19 40q32 -28 70 -28q22 0 37 11t15 29q0 15 -8 23.5t-23 8.5q-19 0 -32 -15l-35 21l22 60q-82 10 -131 80t-49 172
q0 72 25.5 129.5t72 90.5t108.5 33q92 0 143 -65l-45 -58q-36 47 -90 47q-59 0 -92 -50.5t-33 -126.5t33 -127t92 -51q53 0 90 47z" />
    <glyph glyph-name="egrave" unicode="&#xe8;" horiz-adv-x="471" 
d="M62.5 370q24.5 58 70.5 91.5t107 33.5q93 0 144.5 -72t51.5 -184v-25h-310q3 -69 38 -112t95 -43q30 0 60 15t51 41l44 -52q-31 -36 -73 -55.5t-90 -19.5q-64 0 -112.5 32t-74.5 90t-26 132q0 70 24.5 128zM156 378.5q-28 -45.5 -31 -103.5h227q-1 59 -29 104t-84 45
q-55 0 -83 -45.5zM95 700h83l111 -144h-60z" />
    <glyph glyph-name="eacute" unicode="&#xe9;" horiz-adv-x="471" 
d="M62.5 370q24.5 58 70.5 91.5t107 33.5q93 0 144.5 -72t51.5 -184v-25h-310q3 -69 38 -112t95 -43q30 0 60 15t51 41l44 -52q-31 -36 -73 -55.5t-90 -19.5q-64 0 -112.5 32t-74.5 90t-26 132q0 70 24.5 128zM156 378.5q-28 -45.5 -31 -103.5h227q-1 59 -29 104t-84 45
q-55 0 -83 -45.5zM191 556l111 144h83l-134 -144h-60z" />
    <glyph glyph-name="ecircumflex" unicode="&#xea;" horiz-adv-x="471" 
d="M62.5 370q24.5 58 70.5 91.5t107 33.5q93 0 144.5 -72t51.5 -184v-25h-310q3 -69 38 -112t95 -43q30 0 60 15t51 41l44 -52q-31 -36 -73 -55.5t-90 -19.5q-64 0 -112.5 32t-74.5 90t-26 132q0 70 24.5 128zM156 378.5q-28 -45.5 -31 -103.5h227q-1 59 -29 104t-84 45
q-55 0 -83 -45.5zM239 657l-66 -101h-53l79 144h81l82 -144h-53z" />
    <glyph glyph-name="edieresis" unicode="&#xeb;" horiz-adv-x="471" 
d="M62.5 370q24.5 58 70.5 91.5t107 33.5q93 0 144.5 -72t51.5 -184v-25h-310q3 -69 38 -112t95 -43q30 0 60 15t51 41l44 -52q-31 -36 -73 -55.5t-90 -19.5q-64 0 -112.5 32t-74.5 90t-26 132q0 70 24.5 128zM156 378.5q-28 -45.5 -31 -103.5h227q-1 59 -29 104t-84 45
q-55 0 -83 -45.5zM116 569.5q-15 14.5 -15 35.5t15 36t36 15t35.5 -15t14.5 -36t-14.5 -35.5t-35.5 -14.5t-36 14.5zM294 569.5q-15 14.5 -15 35.5t15 36t35 15q21 0 36 -15t15 -36t-15 -35.5t-36 -14.5q-20 0 -35 14.5z" />
    <glyph glyph-name="igrave" unicode="&#xec;" horiz-adv-x="210" 
d="M-40 700h83l111 -144h-60zM62 483h86v-483h-86v483z" />
    <glyph glyph-name="iacute" unicode="&#xed;" horiz-adv-x="210" 
d="M56 556l111 144h83l-134 -144h-60zM62 483h86v-483h-86v483z" />
    <glyph glyph-name="icircumflex" unicode="&#xee;" horiz-adv-x="210" 
d="M103 657l-66 -101h-53l79 144h81l82 -144h-53zM62 483h86v-483h-86v483z" />
    <glyph glyph-name="idieresis" unicode="&#xef;" horiz-adv-x="211" 
d="M-19 569.5q-15 14.5 -15 35.5t15 36t36 15t35.5 -15t14.5 -36t-14.5 -35.5t-35.5 -14.5t-36 14.5zM159 569.5q-15 14.5 -15 35.5t15 36t35 15q21 0 36 -15t15 -36t-15 -35.5t-36 -14.5q-20 0 -35 14.5zM62 483h86v-483h-86v483z" />
    <glyph glyph-name="eth" unicode="&#xf0;" horiz-adv-x="482" 
d="M444 254q0 -119 -53 -192.5t-150 -73.5q-63 0 -109 32.5t-70 88t-24 123.5q0 67 22 122.5t63 88t96 32.5q77 0 122 -76q-29 74 -97 155l-124 -55l-20 45l109 48q-18 19 -56 53l61 54q50 -48 72 -73l90 39l19 -43l-77 -35q126 -159 126 -333zM326 112.5q29 48.5 29 119.5
q0 70 -29 118.5t-85 48.5q-55 0 -84 -48.5t-29 -118.5q0 -71 29 -119.5t84 -48.5q56 0 85 48.5z" />
    <glyph glyph-name="ntilde" unicode="&#xf1;" 
d="M327 336q0 44 -19 63.5t-54 19.5q-33 0 -61.5 -21t-44.5 -51v-347h-86v483h86v-67q22 33 60 56t80 23q124 0 124 -131v-364h-85v336zM204 632.5q-7 8.5 -18 8.5q-16 0 -26.5 -20.5t-10.5 -60.5h-48q0 60 23 97t65 37q24 0 37.5 -13.5t28.5 -38.5q12 -18 19.5 -26.5
t17.5 -8.5q17 0 27 20t10 61h48q0 -60 -23 -97t-65 -37q-24 0 -37.5 13t-29.5 39q-11 18 -18 26.5z" />
    <glyph glyph-name="ograve" unicode="&#xf2;" horiz-adv-x="482" 
d="M131 22.5q-46 34.5 -69.5 92t-23.5 127.5q0 69 23.5 127t69.5 92t110 34t110 -34t69.5 -92t23.5 -127q0 -70 -23.5 -127.5t-69.5 -92t-110 -34.5t-110 34.5zM326 115q29 51 29 127q0 75 -29 126t-85 51q-55 0 -84 -51t-29 -126t29 -126.5t84 -51.5q56 0 85 51zM96 700h83
l111 -144h-60z" />
    <glyph glyph-name="oacute" unicode="&#xf3;" horiz-adv-x="482" 
d="M131 22.5q-46 34.5 -69.5 92t-23.5 127.5q0 69 23.5 127t69.5 92t110 34t110 -34t69.5 -92t23.5 -127q0 -70 -23.5 -127.5t-69.5 -92t-110 -34.5t-110 34.5zM326 115q29 51 29 127q0 75 -29 126t-85 51q-55 0 -84 -51t-29 -126t29 -126.5t84 -51.5q56 0 85 51zM192 556
l111 144h83l-134 -144h-60z" />
    <glyph glyph-name="ocircumflex" unicode="&#xf4;" horiz-adv-x="482" 
d="M131 22.5q-46 34.5 -69.5 92t-23.5 127.5q0 69 23.5 127t69.5 92t110 34t110 -34t69.5 -92t23.5 -127q0 -70 -23.5 -127.5t-69.5 -92t-110 -34.5t-110 34.5zM326 115q29 51 29 127q0 75 -29 126t-85 51q-55 0 -84 -51t-29 -126t29 -126.5t84 -51.5q56 0 85 51zM240 657
l-66 -101h-53l79 144h81l82 -144h-53z" />
    <glyph glyph-name="otilde" unicode="&#xf5;" horiz-adv-x="482" 
d="M131 22.5q-46 34.5 -69.5 92t-23.5 127.5q0 69 23.5 127t69.5 92t110 34t110 -34t69.5 -92t23.5 -127q0 -70 -23.5 -127.5t-69.5 -92t-110 -34.5t-110 34.5zM326 115q29 51 29 127q0 75 -29 126t-85 51q-55 0 -84 -51t-29 -126t29 -126.5t84 -51.5q56 0 85 51zM207 632.5
q-7 8.5 -18 8.5q-16 0 -26.5 -20.5t-10.5 -60.5h-48q0 60 23 97t65 37q24 0 37.5 -13.5t28.5 -38.5q12 -18 19.5 -26.5t17.5 -8.5q17 0 27 20t10 61h48q0 -60 -23 -97t-65 -37q-24 0 -37.5 13t-29.5 39q-11 18 -18 26.5z" />
    <glyph glyph-name="odieresis" unicode="&#xf6;" horiz-adv-x="482" 
d="M131 22.5q-46 34.5 -69.5 92t-23.5 127.5q0 69 23.5 127t69.5 92t110 34t110 -34t69.5 -92t23.5 -127q0 -70 -23.5 -127.5t-69.5 -92t-110 -34.5t-110 34.5zM326 115q29 51 29 127q0 75 -29 126t-85 51q-55 0 -84 -51t-29 -126t29 -126.5t84 -51.5q56 0 85 51zM117 569.5
q-15 14.5 -15 35.5t15 36t36 15t35.5 -15t14.5 -36t-14.5 -35.5t-35.5 -14.5t-36 14.5zM295 569.5q-15 14.5 -15 35.5t15 36t35 15q21 0 36 -15t15 -36t-15 -35.5t-36 -14.5q-20 0 -35 14.5z" />
    <glyph glyph-name="divide" unicode="&#xf7;" horiz-adv-x="443" 
d="M187.5 466.5q-14.5 14.5 -14.5 34.5t14.5 34.5t34.5 14.5t34.5 -14.5t14.5 -34.5t-14.5 -34.5t-34.5 -14.5t-34.5 14.5zM29 366h385v-58h-385v58zM187.5 135q-14.5 14 -14.5 34t14.5 35t34.5 15t34.5 -15t14.5 -35t-14.5 -34t-34.5 -14t-34.5 14z" />
    <glyph glyph-name="oslash" unicode="&#xf8;" horiz-adv-x="482" 
d="M430 342q14 -47 14 -100q0 -70 -23.5 -127.5t-69.5 -92t-110 -34.5q-67 0 -117 40l-19 -28h-55l41 62q-26 35 -39.5 81.5t-13.5 98.5q0 69 23.5 127t69.5 92t110 34q66 0 115 -38l17 26h56l-40 -59q27 -35 41 -82zM144 141l166 248q-27 30 -69 30q-55 0 -84 -51t-29 -126
q0 -57 16 -101zM326 115q29 51 29 127q0 58 -18 103l-167 -248q28 -33 71 -33q56 0 85 51z" />
    <glyph glyph-name="ugrave" unicode="&#xf9;" 
d="M327 65q-24 -33 -61 -55t-80 -22q-63 0 -93.5 32.5t-30.5 97.5v365h86v-338q0 -43 18.5 -62t54.5 -19q32 0 60.5 20t45.5 50v349h85v-483h-85v65zM92 700h83l111 -144h-60z" />
    <glyph glyph-name="uacute" unicode="&#xfa;" 
d="M327 65q-24 -33 -61 -55t-80 -22q-63 0 -93.5 32.5t-30.5 97.5v365h86v-338q0 -43 18.5 -62t54.5 -19q32 0 60.5 20t45.5 50v349h85v-483h-85v65zM188 556l111 144h83l-134 -144h-60z" />
    <glyph glyph-name="ucircumflex" unicode="&#xfb;" 
d="M327 65q-24 -33 -61 -55t-80 -22q-63 0 -93.5 32.5t-30.5 97.5v365h86v-338q0 -43 18.5 -62t54.5 -19q32 0 60.5 20t45.5 50v349h85v-483h-85v65zM236 657l-66 -101h-53l79 144h81l82 -144h-53z" />
    <glyph glyph-name="udieresis" unicode="&#xfc;" 
d="M327 65q-24 -33 -61 -55t-80 -22q-63 0 -93.5 32.5t-30.5 97.5v365h86v-338q0 -43 18.5 -62t54.5 -19q32 0 60.5 20t45.5 50v349h85v-483h-85v65zM113 569.5q-15 14.5 -15 35.5t15 36t36 15t35.5 -15t14.5 -36t-14.5 -35.5t-35.5 -14.5t-36 14.5zM291 569.5
q-15 14.5 -15 35.5t15 36t35 15q21 0 36 -15t15 -36t-15 -35.5t-36 -14.5q-20 0 -35 14.5z" />
    <glyph glyph-name="yacute" unicode="&#xfd;" horiz-adv-x="419" 
d="M86 -120q21 0 34 10t22 34l23 66l-161 493h92l113 -379l115 379h91l-192 -579q-18 -55 -49.5 -77.5t-81.5 -22.5q-12 0 -27 2t-24 5l14 76q13 -7 31 -7zM160 556l111 144h83l-134 -144h-60z" />
    <glyph glyph-name="thorn" unicode="&#xfe;" horiz-adv-x="486" 
d="M148 -184h-86v851h86v-249q21 37 54 57t71 20q81 0 128 -68.5t47 -184.5t-47 -185t-128 -69q-38 0 -71 19.5t-54 58.5v-250zM330.5 369q-28.5 50 -81.5 50q-30 0 -58.5 -21t-42.5 -51v-210q14 -30 42.5 -51.5t58.5 -21.5q53 0 81.5 50t28.5 128q0 77 -28.5 127z" />
    <glyph glyph-name="ydieresis" unicode="&#xff;" horiz-adv-x="419" 
d="M86 -120q21 0 34 10t22 34l23 66l-161 493h92l113 -379l115 379h91l-192 -579q-18 -55 -49.5 -77.5t-81.5 -22.5q-12 0 -27 2t-24 5l14 76q13 -7 31 -7zM87 569.5q-15 14.5 -15 35.5t15 36t36 15t35.5 -15t14.5 -36t-14.5 -35.5t-35.5 -14.5t-36 14.5zM265 569.5
q-15 14.5 -15 35.5t15 36t35 15q21 0 36 -15t15 -36t-15 -35.5t-36 -14.5q-20 0 -35 14.5z" />
    <glyph glyph-name="Amacron" unicode="&#x100;" horiz-adv-x="523" 
d="M376 141h-229l-39 -141h-103l199 667h114l200 -667h-103zM167 225h189l-95 339zM108 790h307v-53h-307v53z" />
    <glyph glyph-name="amacron" unicode="&#x101;" horiz-adv-x="459" 
d="M311 50q-22 -30 -55.5 -46t-71.5 -16q-40 0 -73.5 19.5t-53.5 56t-20 85.5t20 85t53.5 54.5t73.5 18.5q39 0 72.5 -15t54.5 -45v77q0 47 -25 72.5t-71 25.5q-65 0 -121 -57l-35 60q34 35 78 52.5t92 17.5q78 0 123 -39.5t45 -121.5v-334h-86v50zM311 188q-15 27 -41 42.5
t-56 15.5q-41 0 -65.5 -28t-24.5 -71t24.5 -71t65.5 -28q30 0 56 15.5t41 42.5v82zM76 623h307v-53h-307v53z" />
    <glyph glyph-name="Abreve" unicode="&#x102;" horiz-adv-x="523" 
d="M376 141h-229l-39 -141h-103l199 667h114l200 -667h-103zM167 225h189l-95 339zM178 730q-39 20 -65 55l42 33q17 -25 45.5 -40t60.5 -15q33 0 61 14.5t45 40.5l42 -33q-26 -35 -64.5 -55t-83.5 -20q-44 0 -83 20z" />
    <glyph glyph-name="abreve" unicode="&#x103;" horiz-adv-x="459" 
d="M311 50q-22 -30 -55.5 -46t-71.5 -16q-40 0 -73.5 19.5t-53.5 56t-20 85.5t20 85t53.5 54.5t73.5 18.5q39 0 72.5 -15t54.5 -45v77q0 47 -25 72.5t-71 25.5q-65 0 -121 -57l-35 60q34 35 78 52.5t92 17.5q78 0 123 -39.5t45 -121.5v-334h-86v50zM311 188q-15 27 -41 42.5
t-56 15.5q-41 0 -65.5 -28t-24.5 -71t24.5 -71t65.5 -28q30 0 56 15.5t41 42.5v82zM146 563q-39 20 -65 55l42 33q17 -25 45.5 -40t60.5 -15q33 0 61 14.5t45 40.5l42 -33q-26 -35 -64.5 -55t-83.5 -20q-44 0 -83 20z" />
    <glyph glyph-name="Aogonek" unicode="&#x104;" horiz-adv-x="523" 
d="M416 -89q0 -17 10 -26t26 -9q17 0 30 8l22 -53q-25 -17 -71 -17q-39 0 -65.5 19.5t-26.5 55.5q0 33 26 62t70 49h-22l-39 141h-229l-39 -141h-103l199 667h114l200 -667h-14q-88 -39 -88 -89zM356 225l-95 339l-94 -339h189z" />
    <glyph glyph-name="aogonek" unicode="&#x105;" horiz-adv-x="459" 
d="M375 -116l22 -53q-26 -17 -71 -17q-39 0 -65.5 19.5t-26.5 55.5q0 33 26 62t70 49h-19v50q-22 -30 -55.5 -46t-71.5 -16q-40 0 -73.5 19.5t-53.5 56t-20 85.5t20 85t53.5 54.5t73.5 18.5q39 0 72.5 -15t54.5 -45v77q0 47 -25 72.5t-71 25.5q-65 0 -121 -57l-35 60
q34 35 78 52.5t92 17.5q78 0 123 -39.5t45 -121.5v-334q-88 -39 -88 -89q0 -17 10 -26t26 -9q17 0 30 8zM311 188q-15 27 -41 42.5t-56 15.5q-41 0 -65.5 -28t-24.5 -71t24.5 -71t65.5 -28q30 0 56 15.5t41 42.5v82z" />
    <glyph glyph-name="Cacute" unicode="&#x106;" horiz-adv-x="540" 
d="M168 32q-60 44 -92.5 122.5t-32.5 178.5t32.5 178.5t92.5 122.5t140 44q135 0 204 -139l-79 -36q-20 42 -52 66t-73 24q-51 0 -89 -33.5t-58.5 -92.5t-20.5 -134t20.5 -134t58.5 -92.5t89 -33.5q43 0 75 26.5t50 71.5l80 -36q-31 -66 -80 -106.5t-125 -40.5
q-80 0 -140 44zM259 723l111 144h83l-134 -144h-60z" />
    <glyph glyph-name="cacute" unicode="&#x107;" horiz-adv-x="411" 
d="M63.5 371.5q25.5 57.5 72 90.5t108.5 33q92 0 143 -65l-45 -58q-36 47 -90 47q-59 0 -92 -50.5t-33 -126.5t33 -127t92 -51q53 0 90 47l45 -58q-50 -65 -143 -65q-62 0 -108.5 33t-72 91t-25.5 130t25.5 129.5zM195 556l111 144h83l-134 -144h-60z" />
    <glyph glyph-name="Ccircumflex" unicode="&#x108;" horiz-adv-x="540" 
d="M168 32q-60 44 -92.5 122.5t-32.5 178.5t32.5 178.5t92.5 122.5t140 44q135 0 204 -139l-79 -36q-20 42 -52 66t-73 24q-51 0 -89 -33.5t-58.5 -92.5t-20.5 -134t20.5 -134t58.5 -92.5t89 -33.5q43 0 75 26.5t50 71.5l80 -36q-31 -66 -80 -106.5t-125 -40.5
q-80 0 -140 44zM306 824l-66 -101h-53l79 144h81l82 -144h-53z" />
    <glyph glyph-name="ccircumflex" unicode="&#x109;" horiz-adv-x="411" 
d="M63.5 371.5q25.5 57.5 72 90.5t108.5 33q92 0 143 -65l-45 -58q-36 47 -90 47q-59 0 -92 -50.5t-33 -126.5t33 -127t92 -51q53 0 90 47l45 -58q-50 -65 -143 -65q-62 0 -108.5 33t-72 91t-25.5 130t25.5 129.5zM243 657l-66 -101h-53l79 144h81l82 -144h-53z" />
    <glyph glyph-name="Cdotaccent" unicode="&#x10a;" horiz-adv-x="540" 
d="M168 32q-60 44 -92.5 122.5t-32.5 178.5t32.5 178.5t92.5 122.5t140 44q135 0 204 -139l-79 -36q-20 42 -52 66t-73 24q-51 0 -89 -33.5t-58.5 -92.5t-20.5 -134t20.5 -134t58.5 -92.5t89 -33.5q43 0 75 26.5t50 71.5l80 -36q-31 -66 -80 -106.5t-125 -40.5
q-80 0 -140 44zM272.5 807q15.5 15 35.5 15q21 0 36 -15t15 -36q0 -22 -15 -36.5t-36 -14.5t-36 15t-15 36t15.5 36z" />
    <glyph glyph-name="cdotaccent" unicode="&#x10b;" horiz-adv-x="411" 
d="M63.5 371.5q25.5 57.5 72 90.5t108.5 33q92 0 143 -65l-45 -58q-36 47 -90 47q-59 0 -92 -50.5t-33 -126.5t33 -127t92 -51q53 0 90 47l45 -58q-50 -65 -143 -65q-62 0 -108.5 33t-72 91t-25.5 130t25.5 129.5zM209.5 640q15.5 15 35.5 15q21 0 36 -15t15 -36
q0 -22 -15 -36.5t-36 -14.5t-36 15t-15 36t15.5 36z" />
    <glyph glyph-name="Ccaron" unicode="&#x10c;" horiz-adv-x="540" 
d="M168 32q-60 44 -92.5 122.5t-32.5 178.5t32.5 178.5t92.5 122.5t140 44q135 0 204 -139l-79 -36q-20 42 -52 66t-73 24q-51 0 -89 -33.5t-58.5 -92.5t-20.5 -134t20.5 -134t58.5 -92.5t89 -33.5q43 0 75 26.5t50 71.5l80 -36q-31 -66 -80 -106.5t-125 -40.5
q-80 0 -140 44zM187 867h53l69 -102l67 102h53l-79 -144h-81z" />
    <glyph glyph-name="ccaron" unicode="&#x10d;" horiz-adv-x="411" 
d="M63.5 371.5q25.5 57.5 72 90.5t108.5 33q92 0 143 -65l-45 -58q-36 47 -90 47q-59 0 -92 -50.5t-33 -126.5t33 -127t92 -51q53 0 90 47l45 -58q-50 -65 -143 -65q-62 0 -108.5 33t-72 91t-25.5 130t25.5 129.5zM124 700h53l69 -102l67 102h53l-79 -144h-81z" />
    <glyph glyph-name="Dcaron" unicode="&#x10e;" horiz-adv-x="573" 
d="M67 667h188q86 0 148 -43t94.5 -118.5t32.5 -172.5t-32 -172.5t-94 -118t-148 -42.5h-189v667zM255 84q85 0 131 69t46 180q0 113 -45.5 181.5t-131.5 68.5h-93v-499h93zM164 867h53l69 -102l67 102h53l-79 -144h-81z" />
    <glyph glyph-name="dcaron" unicode="&#x10f;" horiz-adv-x="572" 
d="M339 66q-22 -36 -55.5 -57t-70.5 -21q-81 0 -128 68.5t-47 184.5q0 115 47 184.5t128 69.5q37 0 70.5 -20.5t55.5 -58.5v251h85v-667h-85v66zM339 346q-14 30 -42.5 51.5t-59.5 21.5q-53 0 -81.5 -50t-28.5 -128q0 -77 28.5 -127t81.5 -50q31 0 59.5 21t42.5 51v210z
M467 500q23 15 40 39.5t19 45.5l-12 -1q-19 0 -31.5 13t-12.5 33t14.5 35t34.5 15q24 0 40.5 -19t16.5 -51q0 -41 -20.5 -77.5t-53.5 -59.5z" />
    <glyph glyph-name="Dcroat" unicode="&#x110;" horiz-adv-x="597" 
d="M427 624q62 -43 94 -118.5t32 -172.5t-32 -172.5t-94 -118t-148 -42.5h-188v294h-76v71h76v302h188q86 0 148 -43zM409.5 153q46.5 69 46.5 180q0 113 -46 181.5t-131 68.5h-93v-218h121v-71h-121v-210h93q84 0 130.5 69z" />
    <glyph glyph-name="dcroat" unicode="&#x111;" horiz-adv-x="493" 
d="M482 534h-58v-534h-85v66q-22 -36 -55.5 -57t-70.5 -21q-81 0 -128 68.5t-47 184.5q0 115 47 184.5t128 69.5q37 0 70.5 -20.5t55.5 -58.5v118h-137v53h137v80h85v-80h58v-53zM339 346q-14 30 -42.5 51.5t-59.5 21.5q-53 0 -81.5 -50t-28.5 -128q0 -77 28.5 -127
t81.5 -50q31 0 59.5 21t42.5 51v210z" />
    <glyph glyph-name="Emacron" unicode="&#x112;" horiz-adv-x="466" 
d="M67 667h354v-84h-259v-201h252v-84h-252v-214h259v-84h-354v667zM91 790h307v-53h-307v53z" />
    <glyph glyph-name="emacron" unicode="&#x113;" horiz-adv-x="471" 
d="M62.5 370q24.5 58 70.5 91.5t107 33.5q93 0 144.5 -72t51.5 -184v-25h-310q3 -69 38 -112t95 -43q30 0 60 15t51 41l44 -52q-31 -36 -73 -55.5t-90 -19.5q-64 0 -112.5 32t-74.5 90t-26 132q0 70 24.5 128zM156 378.5q-28 -45.5 -31 -103.5h227q-1 59 -29 104t-84 45
q-55 0 -83 -45.5zM87 623h307v-53h-307v53z" />
    <glyph glyph-name="Ebreve" unicode="&#x114;" horiz-adv-x="466" 
d="M67 667h354v-84h-259v-201h252v-84h-252v-214h259v-84h-354v667zM162 730q-39 20 -65 55l42 33q17 -25 45.5 -40t60.5 -15q33 0 61 14.5t45 40.5l42 -33q-26 -35 -64.5 -55t-83.5 -20q-44 0 -83 20z" />
    <glyph glyph-name="ebreve" unicode="&#x115;" horiz-adv-x="471" 
d="M62.5 370q24.5 58 70.5 91.5t107 33.5q93 0 144.5 -72t51.5 -184v-25h-310q3 -69 38 -112t95 -43q30 0 60 15t51 41l44 -52q-31 -36 -73 -55.5t-90 -19.5q-64 0 -112.5 32t-74.5 90t-26 132q0 70 24.5 128zM156 378.5q-28 -45.5 -31 -103.5h227q-1 59 -29 104t-84 45
q-55 0 -83 -45.5zM158 563q-39 20 -65 55l42 33q17 -25 45.5 -40t60.5 -15q33 0 61 14.5t45 40.5l42 -33q-26 -35 -64.5 -55t-83.5 -20q-44 0 -83 20z" />
    <glyph glyph-name="Edotaccent" unicode="&#x116;" horiz-adv-x="466" 
d="M67 667h354v-84h-259v-201h252v-84h-252v-214h259v-84h-354v667zM212.5 807q15.5 15 35.5 15q21 0 36 -15t15 -36q0 -22 -15 -36.5t-36 -14.5t-36 15t-15 36t15.5 36z" />
    <glyph glyph-name="edotaccent" unicode="&#x117;" horiz-adv-x="471" 
d="M62.5 370q24.5 58 70.5 91.5t107 33.5q93 0 144.5 -72t51.5 -184v-25h-310q3 -69 38 -112t95 -43q30 0 60 15t51 41l44 -52q-31 -36 -73 -55.5t-90 -19.5q-64 0 -112.5 32t-74.5 90t-26 132q0 70 24.5 128zM156 378.5q-28 -45.5 -31 -103.5h227q-1 59 -29 104t-84 45
q-55 0 -83 -45.5zM205.5 640q15.5 15 35.5 15q21 0 36 -15t15 -36q0 -22 -15 -36.5t-36 -14.5t-36 15t-15 36t15.5 36z" />
    <glyph glyph-name="Eogonek" unicode="&#x118;" horiz-adv-x="466" 
d="M162 583v-201h252v-84h-252v-214h259v-84q-88 -39 -88 -89q0 -17 10 -26t26 -9q17 0 30 8l22 -53q-26 -17 -71 -17q-39 0 -65.5 19.5t-26.5 55.5q0 33 26 62t70 49h-287v667h354v-84h-259z" />
    <glyph glyph-name="eogonek" unicode="&#x119;" horiz-adv-x="471" 
d="M138.5 20q-48.5 32 -74.5 90t-26 132q0 70 24.5 128t70.5 91.5t107 33.5q93 0 144.5 -72t51.5 -184v-25h-310q3 -69 38 -112t95 -43q30 0 60 15t51 41l44 -52q-53 -52 -77.5 -86.5t-24.5 -61.5q0 -19 10.5 -29t26.5 -10q17 0 30 8l22 -53q-28 -17 -71 -17q-40 0 -66 19.5
t-26 55.5q0 29 19 56.5t49 49.5q-28 -7 -55 -7q-64 0 -112.5 32zM156 378.5q-28 -45.5 -31 -103.5h227q-1 59 -29 104t-84 45q-55 0 -83 -45.5z" />
    <glyph glyph-name="Ecaron" unicode="&#x11a;" horiz-adv-x="466" 
d="M67 667h354v-84h-259v-201h252v-84h-252v-214h259v-84h-354v667zM122 867h53l69 -102l67 102h53l-79 -144h-81z" />
    <glyph glyph-name="ecaron" unicode="&#x11b;" horiz-adv-x="471" 
d="M62.5 370q24.5 58 70.5 91.5t107 33.5q93 0 144.5 -72t51.5 -184v-25h-310q3 -69 38 -112t95 -43q30 0 60 15t51 41l44 -52q-31 -36 -73 -55.5t-90 -19.5q-64 0 -112.5 32t-74.5 90t-26 132q0 70 24.5 128zM156 378.5q-28 -45.5 -31 -103.5h227q-1 59 -29 104t-84 45
q-55 0 -83 -45.5zM120 700h53l69 -102l67 102h53l-79 -144h-81z" />
    <glyph glyph-name="Gcircumflex" unicode="&#x11c;" horiz-adv-x="569" 
d="M76 513.5q33 78.5 93 121.5t139 43q72 0 123 -36.5t82 -97.5l-77 -38q-21 40 -53 63.5t-75 23.5q-50 0 -88 -32.5t-59 -91t-21 -136.5q0 -77 21 -136.5t59.5 -92t87.5 -32.5q37 0 68 15t51 37v140h-150v84h240v-260q-82 -101 -209 -101q-79 0 -139 43.5t-93 122
t-33 180.5t33 180.5zM308 824l-66 -101h-53l79 144h81l82 -144h-53z" />
    <glyph glyph-name="gcircumflex" unicode="&#x11d;" horiz-adv-x="486" 
d="M96 -68q48 -55 125 -55q51 0 84 31t33 95v74q-21 -37 -54.5 -58.5t-70.5 -21.5q-81 0 -128 67t-47 182q0 114 47 181.5t128 67.5q37 0 70.5 -20.5t54.5 -58.5v67h86v-474q0 -110 -56 -157.5t-144 -47.5q-52 0 -91.5 14t-74.5 47zM338 346q-13 30 -41.5 51.5t-59.5 21.5
q-53 0 -81.5 -48t-28.5 -125q0 -78 28 -125.5t82 -47.5q31 0 59.5 21.5t41.5 51.5v200zM243 657l-66 -101h-53l79 144h81l82 -144h-53z" />
    <glyph glyph-name="Gbreve" unicode="&#x11e;" horiz-adv-x="569" 
d="M76 513.5q33 78.5 93 121.5t139 43q72 0 123 -36.5t82 -97.5l-77 -38q-21 40 -53 63.5t-75 23.5q-50 0 -88 -32.5t-59 -91t-21 -136.5q0 -77 21 -136.5t59.5 -92t87.5 -32.5q37 0 68 15t51 37v140h-150v84h240v-260q-82 -101 -209 -101q-79 0 -139 43.5t-93 122
t-33 180.5t33 180.5zM227 730q-39 20 -65 55l42 33q17 -25 45.5 -40t60.5 -15q33 0 61 14.5t45 40.5l42 -33q-26 -35 -64.5 -55t-83.5 -20q-44 0 -83 20z" />
    <glyph glyph-name="gbreve" unicode="&#x11f;" horiz-adv-x="486" 
d="M96 -68q48 -55 125 -55q51 0 84 31t33 95v74q-21 -37 -54.5 -58.5t-70.5 -21.5q-81 0 -128 67t-47 182q0 114 47 181.5t128 67.5q37 0 70.5 -20.5t54.5 -58.5v67h86v-474q0 -110 -56 -157.5t-144 -47.5q-52 0 -91.5 14t-74.5 47zM338 346q-13 30 -41.5 51.5t-59.5 21.5
q-53 0 -81.5 -48t-28.5 -125q0 -78 28 -125.5t82 -47.5q31 0 59.5 21.5t41.5 51.5v200zM161 563q-39 20 -65 55l42 33q17 -25 45.5 -40t60.5 -15q33 0 61 14.5t45 40.5l42 -33q-26 -35 -64.5 -55t-83.5 -20q-44 0 -83 20z" />
    <glyph glyph-name="Gdotaccent" unicode="&#x120;" horiz-adv-x="569" 
d="M76 513.5q33 78.5 93 121.5t139 43q72 0 123 -36.5t82 -97.5l-77 -38q-21 40 -53 63.5t-75 23.5q-50 0 -88 -32.5t-59 -91t-21 -136.5q0 -77 21 -136.5t59.5 -92t87.5 -32.5q37 0 68 15t51 37v140h-150v84h240v-260q-82 -101 -209 -101q-79 0 -139 43.5t-93 122
t-33 180.5t33 180.5zM273.5 807q15.5 15 35.5 15q21 0 36 -15t15 -36q0 -22 -15 -36.5t-36 -14.5t-36 15t-15 36t15.5 36z" />
    <glyph glyph-name="gdotaccent" unicode="&#x121;" horiz-adv-x="486" 
d="M96 -68q48 -55 125 -55q51 0 84 31t33 95v74q-21 -37 -54.5 -58.5t-70.5 -21.5q-81 0 -128 67t-47 182q0 114 47 181.5t128 67.5q37 0 70.5 -20.5t54.5 -58.5v67h86v-474q0 -110 -56 -157.5t-144 -47.5q-52 0 -91.5 14t-74.5 47zM338 346q-13 30 -41.5 51.5t-59.5 21.5
q-53 0 -81.5 -48t-28.5 -125q0 -78 28 -125.5t82 -47.5q31 0 59.5 21.5t41.5 51.5v200zM208.5 640q15.5 15 35.5 15q21 0 36 -15t15 -36q0 -22 -15 -36.5t-36 -14.5t-36 15t-15 36t15.5 36z" />
    <glyph glyph-name="uni0122" unicode="&#x122;" horiz-adv-x="569" 
d="M76 513.5q33 78.5 93 121.5t139 43q72 0 123 -36.5t82 -97.5l-77 -38q-21 40 -53 63.5t-75 23.5q-50 0 -88 -32.5t-59 -91t-21 -136.5q0 -77 21 -136.5t59.5 -92t87.5 -32.5q37 0 68 15t51 37v140h-150v84h240v-260q-82 -101 -209 -101q-79 0 -139 43.5t-93 122
t-33 180.5t33 180.5zM253 -248q23 15 40 39.5t19 45.5l-12 -1q-19 0 -31.5 13t-12.5 33t14.5 35t34.5 15q24 0 40.5 -19t16.5 -51q0 -41 -20.5 -77.5t-53.5 -59.5z" />
    <glyph glyph-name="uni0123" unicode="&#x123;" horiz-adv-x="486" 
d="M298 727q-22 -14 -39.5 -37.5t-18.5 -45.5l1.5 0.5t3.5 0.5q18 0 33 -14t15 -33q0 -20 -14.5 -35t-35.5 -15t-36.5 16t-15.5 47q0 44 20 83t52 61zM96 -68q48 -55 125 -55q51 0 84 31t33 95v74q-21 -37 -54.5 -58.5t-70.5 -21.5q-81 0 -128 67t-47 182q0 114 47 181.5
t128 67.5q37 0 70.5 -20.5t54.5 -58.5v67h86v-474q0 -110 -56 -157.5t-144 -47.5q-52 0 -91.5 14t-74.5 47zM338 346q-13 30 -41.5 51.5t-59.5 21.5q-53 0 -81.5 -48t-28.5 -125q0 -78 28 -125.5t82 -47.5q31 0 59.5 21.5t41.5 51.5v200z" />
    <glyph glyph-name="Hcircumflex" unicode="&#x124;" horiz-adv-x="583" 
d="M421 301h-259v-301h-95v667h95v-282h259v282h96v-667h-96v301zM289 824l-66 -101h-53l79 144h81l82 -144h-53z" />
    <glyph glyph-name="hcircumflex" unicode="&#x125;" 
d="M327 338q0 43 -18.5 62t-54.5 19q-32 0 -61 -21t-45 -51v-347h-86v667h86v-251q22 32 60.5 55.5t80.5 23.5q63 0 93.5 -32.5t30.5 -97.5v-365h-86v338zM236 824l-66 -101h-53l79 144h81l82 -144h-53z" />
    <glyph glyph-name="Hbar" unicode="&#x126;" horiz-adv-x="612" 
d="M597 499h-66v-499h-95v301h-259v-301h-95v499h-67v53h67v115h95v-115h259v115h95v-115h66v-53zM436 499h-259v-114h259v114z" />
    <glyph glyph-name="hbar" unicode="&#x127;" horiz-adv-x="483" 
d="M390.5 462.5q30.5 -32.5 30.5 -97.5v-365h-86v338q0 43 -18.5 62t-54.5 19q-32 0 -61 -21t-45 -51v-347h-86v534h-56v53h56v80h86v-80h138v-53h-138v-118q22 32 60.5 55.5t80.5 23.5q63 0 93.5 -32.5z" />
    <glyph glyph-name="Itilde" unicode="&#x128;" horiz-adv-x="229" 
d="M67 667h95v-667h-95v667zM81 799.5q-7 8.5 -18 8.5q-16 0 -26.5 -20.5t-10.5 -60.5h-48q0 60 23 97t65 37q24 0 37.5 -13.5t28.5 -38.5q12 -18 19.5 -26.5t17.5 -8.5q17 0 27 20t10 61h48q0 -60 -23 -97t-65 -37q-24 0 -37.5 13t-29.5 39q-11 18 -18 26.5z" />
    <glyph glyph-name="itilde" unicode="&#x129;" horiz-adv-x="210" 
d="M62 483h86v-483h-86v483zM70 632.5q-7 8.5 -18 8.5q-16 0 -26.5 -20.5t-10.5 -60.5h-48q0 60 23 97t65 37q24 0 37.5 -13.5t28.5 -38.5q12 -18 19.5 -26.5t17.5 -8.5q17 0 27 20t10 61h48q0 -60 -23 -97t-65 -37q-24 0 -37.5 13t-29.5 39q-11 18 -18 26.5z" />
    <glyph glyph-name="Imacron" unicode="&#x12a;" horiz-adv-x="229" 
d="M67 667h95v-667h-95v667zM-39 790h307v-53h-307v53z" />
    <glyph glyph-name="imacron" unicode="&#x12b;" horiz-adv-x="210" 
d="M62 483h86v-483h-86v483zM-48 623h307v-53h-307v53z" />
    <glyph glyph-name="Ibreve" unicode="&#x12c;" horiz-adv-x="229" 
d="M67 667h95v-667h-95v667zM32 730q-39 20 -65 55l42 33q17 -25 45.5 -40t60.5 -15q33 0 61 14.5t45 40.5l42 -33q-26 -35 -64.5 -55t-83.5 -20q-44 0 -83 20z" />
    <glyph glyph-name="ibreve" unicode="&#x12d;" horiz-adv-x="210" 
d="M62 483h86v-483h-86v483zM22 563q-39 20 -65 55l42 33q17 -25 45.5 -40t60.5 -15q33 0 61 14.5t45 40.5l42 -33q-26 -35 -64.5 -55t-83.5 -20q-44 0 -83 20z" />
    <glyph glyph-name="Iogonek" unicode="&#x12e;" horiz-adv-x="229" 
d="M74 -89q0 -17 10 -26t26 -9q17 0 30 8l22 -53q-25 -17 -71 -17q-39 0 -65.5 19.5t-26.5 55.5q0 33 26 61.5t70 49.5h-28v667h95v-667q-88 -39 -88 -89z" />
    <glyph glyph-name="iogonek" unicode="&#x12f;" horiz-adv-x="210" 
d="M65.5 564.5q-16.5 16.5 -16.5 39.5t16.5 39.5t39.5 16.5t39.5 -16.5t16.5 -39.5t-16.5 -39.5t-39.5 -16.5t-39.5 16.5zM60 -89q0 -17 10 -26t26 -9q17 0 30 8l22 -53q-26 -17 -71 -17q-39 0 -65.5 19.5t-26.5 55.5q0 33 26 61.5t70 49.5h-19v483h86v-483q-88 -39 -88 -89
z" />
    <glyph glyph-name="Idotaccent" unicode="&#x130;" horiz-adv-x="229" 
d="M67 667h95v-667h-95v667zM79.5 807q15.5 15 35.5 15q21 0 36 -15t15 -36q0 -22 -15 -36.5t-36 -14.5t-36 15t-15 36t15.5 36z" />
    <glyph glyph-name="dotlessi" unicode="&#x131;" horiz-adv-x="210" 
d="M62 483h86v-483h-86v483z" />
    <glyph glyph-name="IJ" unicode="&#x132;" horiz-adv-x="632" 
d="M67 667h95v-667h-95v667zM277 120q40 -47 93 -47q48 0 74.5 28t26.5 79v487h95v-490q0 -94 -51 -141.5t-137 -47.5t-141 58z" />
    <glyph glyph-name="ij" unicode="&#x133;" horiz-adv-x="420" 
d="M65.5 564.5q-16.5 16.5 -16.5 39.5t16.5 39.5t39.5 16.5t39.5 -16.5t16.5 -39.5t-16.5 -39.5t-39.5 -16.5t-39.5 16.5zM62 483h86v-483h-86v483zM275.5 564.5q-16.5 16.5 -16.5 39.5t16.5 39.5t39.5 16.5t39.5 -16.5t16.5 -39.5t-16.5 -39.5t-39.5 -16.5t-39.5 16.5z
M358 -57q0 -68 -32.5 -103.5t-93.5 -35.5q-26 0 -47 6l11 73q12 -4 24 -4q24 0 38 15.5t14 48.5v540h86v-540z" />
    <glyph glyph-name="Jcircumflex" unicode="&#x134;" horiz-adv-x="404" 
d="M48 120q40 -47 93 -47q48 0 74.5 28t26.5 79v487h95v-490q0 -94 -51 -141.5t-137 -47.5t-141 58zM288 824l-66 -101h-53l79 144h81l82 -144h-53z" />
    <glyph glyph-name="jcircumflex" unicode="&#x135;" horiz-adv-x="210" 
d="M105 657l-66 -101h-53l79 144h81l82 -144h-53zM-14 -117q12 -4 24 -4q24 0 38 15.5t14 48.5v540h86v-540q0 -68 -32.5 -103.5t-93.5 -35.5q-26 0 -47 6z" />
    <glyph glyph-name="uni0136" unicode="&#x136;" horiz-adv-x="526" 
d="M215 285l-53 -79v-206h-95v667h95v-334l220 334h112l-220 -316l238 -351h-114zM213 -248q23 15 40 39.5t19 45.5l-12 -1q-19 0 -31.5 13t-12.5 33t14.5 35t34.5 15q24 0 40.5 -19t16.5 -51q0 -41 -20.5 -77.5t-53.5 -59.5z" />
    <glyph glyph-name="uni0137" unicode="&#x137;" horiz-adv-x="447" 
d="M211 210l-63 -83v-127h-86v667h86v-434l185 250h101l-164 -217l165 -266h-101zM174 -248q23 15 40 39.5t19 45.5l-12 -1q-19 0 -31.5 13t-12.5 33t14.5 35t34.5 15q24 0 40.5 -19t16.5 -51q0 -41 -20.5 -77.5t-53.5 -59.5z" />
    <glyph glyph-name="kgreenlandic" unicode="&#x138;" horiz-adv-x="447" 
d="M211 210l-63 -83v-127h-86v483h86v-250l185 250h101l-164 -217l165 -266h-101z" />
    <glyph glyph-name="Lacute" unicode="&#x139;" horiz-adv-x="428" 
d="M67 667h95v-583h237v-84h-332v667zM184 723l111 144h83l-134 -144h-60z" />
    <glyph glyph-name="lacute" unicode="&#x13a;" horiz-adv-x="210" 
d="M62 667h86v-667h-86v667zM56 723l111 144h83l-134 -144h-60z" />
    <glyph glyph-name="uni013B" unicode="&#x13b;" horiz-adv-x="428" 
d="M67 667h95v-583h237v-84h-332v667zM168 -248q23 15 40 39.5t19 45.5l-12 -1q-19 0 -31.5 13t-12.5 33t14.5 35t34.5 15q24 0 40.5 -19t16.5 -51q0 -41 -20.5 -77.5t-53.5 -59.5z" />
    <glyph glyph-name="uni013C" unicode="&#x13c;" horiz-adv-x="210" 
d="M62 667h86v-667h-86v667zM56 -248q23 15 40 39.5t19 45.5l-12 -1q-19 0 -31.5 13t-12.5 33t14.5 35t34.5 15q24 0 40.5 -19t16.5 -51q0 -41 -20.5 -77.5t-53.5 -59.5z" />
    <glyph glyph-name="Lcaron" unicode="&#x13d;" horiz-adv-x="428" 
d="M67 667h95v-583h237v-84h-332v667zM230 500q23 15 40 39.5t19 45.5l-12 -1q-19 0 -31.5 13t-12.5 33t14.5 35t34.5 15q24 0 40.5 -19t16.5 -51q0 -41 -20.5 -77.5t-53.5 -59.5z" />
    <glyph glyph-name="lcaron" unicode="&#x13e;" horiz-adv-x="293" 
d="M62 667h86v-667h-86v667zM204 500q23 15 40 39.5t19 45.5l-12 -1q-19 0 -31.5 13t-12.5 33t14.5 35t34.5 15q24 0 40.5 -19t16.5 -51q0 -41 -20.5 -77.5t-53.5 -59.5z" />
    <glyph glyph-name="Ldot" unicode="&#x13f;" horiz-adv-x="447" 
d="M67 667h95v-583h237v-84h-332v667zM293.5 299q-17.5 18 -17.5 43q0 24 17.5 42t42.5 18t43 -18t18 -42q0 -25 -18 -43t-43 -18t-42.5 18z" />
    <glyph glyph-name="ldot" unicode="&#x140;" horiz-adv-x="318" 
d="M62 667h86v-667h-86v667zM220.5 202q-17.5 18 -17.5 43q0 24 17.5 42t42.5 18t43 -18t18 -42q0 -25 -18 -43t-43 -18t-42.5 18z" />
    <glyph glyph-name="Lslash" unicode="&#x141;" horiz-adv-x="443" 
d="M413 84v-84h-331v265l-67 -39v81l67 39v321h95v-266l75 43v-81l-75 -43v-236h236z" />
    <glyph glyph-name="lslash" unicode="&#x142;" horiz-adv-x="260" 
d="M245 370l-72 -42v-328h-85v279l-73 -42v67l73 42v321h85v-272l72 41v-66z" />
    <glyph glyph-name="Nacute" unicode="&#x143;" horiz-adv-x="582" 
d="M162 464v-464h-95v667h96l257 -453v453h95v-667h-91zM244 723l111 144h83l-134 -144h-60z" />
    <glyph glyph-name="nacute" unicode="&#x144;" 
d="M327 336q0 44 -19 63.5t-54 19.5q-33 0 -61.5 -21t-44.5 -51v-347h-86v483h86v-67q22 33 60 56t80 23q124 0 124 -131v-364h-85v336zM188 556l111 144h83l-134 -144h-60z" />
    <glyph glyph-name="uni0145" unicode="&#x145;" horiz-adv-x="582" 
d="M162 464v-464h-95v667h96l257 -453v453h95v-667h-91zM241 -248q23 15 40 39.5t19 45.5l-12 -1q-19 0 -31.5 13t-12.5 33t14.5 35t34.5 15q24 0 40.5 -19t16.5 -51q0 -41 -20.5 -77.5t-53.5 -59.5z" />
    <glyph glyph-name="uni0146" unicode="&#x146;" 
d="M327 336q0 44 -19 63.5t-54 19.5q-33 0 -61.5 -21t-44.5 -51v-347h-86v483h86v-67q22 33 60 56t80 23q124 0 124 -131v-364h-85v336zM186 -248q23 15 40 39.5t19 45.5l-12 -1q-19 0 -31.5 13t-12.5 33t14.5 35t34.5 15q24 0 40.5 -19t16.5 -51q0 -41 -20.5 -77.5
t-53.5 -59.5z" />
    <glyph glyph-name="Ncaron" unicode="&#x147;" horiz-adv-x="582" 
d="M162 464v-464h-95v667h96l257 -453v453h95v-667h-91zM169 867h53l69 -102l67 102h53l-79 -144h-81z" />
    <glyph glyph-name="ncaron" unicode="&#x148;" 
d="M327 336q0 44 -19 63.5t-54 19.5q-33 0 -61.5 -21t-44.5 -51v-347h-86v483h86v-67q22 33 60 56t80 23q124 0 124 -131v-364h-85v336zM117 700h53l69 -102l67 102h53l-79 -144h-81z" />
    <glyph glyph-name="napostrophe" unicode="&#x149;" 
d="M327 336q0 44 -19 63.5t-54 19.5q-33 0 -61.5 -21t-44.5 -51v-347h-86v483h86v-67q22 33 60 56t80 23q124 0 124 -131v-364h-85v336zM46 568q23 15 40 39.5t19 45.5l-12 -1q-19 0 -31.5 13t-12.5 33t14.5 35t34.5 15q24 0 40.5 -19t16.5 -51q0 -41 -20.5 -77.5
t-53.5 -59.5z" />
    <glyph glyph-name="Eng" unicode="&#x14a;" horiz-adv-x="582" 
d="M515 667v-674q0 -94 -51 -141.5t-136 -47.5q-87 0 -142 58l40 74q38 -48 94 -48q46 0 73 28t27 78v7l-258 479v-480h-95v667h96l257 -469v469h95z" />
    <glyph glyph-name="eng" unicode="&#x14b;" 
d="M380 -160.5q-32 -35.5 -93 -35.5q-27 0 -48 6l11 73q14 -4 25 -4q24 0 38 15.5t14 48.5v393q0 44 -19 63.5t-54 19.5q-33 0 -61.5 -21t-44.5 -51v-347h-86v483h86v-67q22 33 60 56t80 23q124 0 124 -131v-421q0 -68 -32 -103.5z" />
    <glyph glyph-name="Omacron" unicode="&#x14c;" horiz-adv-x="606" 
d="M73.5 509.5q30.5 78.5 89.5 123.5t139 45q81 0 140 -45t90 -123.5t31 -176.5t-31 -176.5t-90 -123.5t-140 -45q-80 0 -139 45t-89.5 123.5t-30.5 176.5t30.5 176.5zM422 520q-43 73 -120 73q-76 0 -119 -73t-43 -187q0 -113 43 -186.5t119 -73.5q51 0 88 34t56 93.5
t19 132.5q0 114 -43 187zM149 790h307v-53h-307v53z" />
    <glyph glyph-name="omacron" unicode="&#x14d;" horiz-adv-x="482" 
d="M131 22.5q-46 34.5 -69.5 92t-23.5 127.5q0 69 23.5 127t69.5 92t110 34t110 -34t69.5 -92t23.5 -127q0 -70 -23.5 -127.5t-69.5 -92t-110 -34.5t-110 34.5zM326 115q29 51 29 127q0 75 -29 126t-85 51q-55 0 -84 -51t-29 -126t29 -126.5t84 -51.5q56 0 85 51zM88 623
h307v-53h-307v53z" />
    <glyph glyph-name="Obreve" unicode="&#x14e;" horiz-adv-x="606" 
d="M73.5 509.5q30.5 78.5 89.5 123.5t139 45q81 0 140 -45t90 -123.5t31 -176.5t-31 -176.5t-90 -123.5t-140 -45q-80 0 -139 45t-89.5 123.5t-30.5 176.5t30.5 176.5zM422 520q-43 73 -120 73q-76 0 -119 -73t-43 -187q0 -113 43 -186.5t119 -73.5q51 0 88 34t56 93.5
t19 132.5q0 114 -43 187zM219 730q-39 20 -65 55l42 33q17 -25 45.5 -40t60.5 -15q33 0 61 14.5t45 40.5l42 -33q-26 -35 -64.5 -55t-83.5 -20q-44 0 -83 20z" />
    <glyph glyph-name="obreve" unicode="&#x14f;" horiz-adv-x="482" 
d="M131 22.5q-46 34.5 -69.5 92t-23.5 127.5q0 69 23.5 127t69.5 92t110 34t110 -34t69.5 -92t23.5 -127q0 -70 -23.5 -127.5t-69.5 -92t-110 -34.5t-110 34.5zM326 115q29 51 29 127q0 75 -29 126t-85 51q-55 0 -84 -51t-29 -126t29 -126.5t84 -51.5q56 0 85 51zM158 563
q-39 20 -65 55l42 33q17 -25 45.5 -40t60.5 -15q33 0 61 14.5t45 40.5l42 -33q-26 -35 -64.5 -55t-83.5 -20q-44 0 -83 20z" />
    <glyph glyph-name="Ohungarumlaut" unicode="&#x150;" horiz-adv-x="606" 
d="M73.5 509.5q30.5 78.5 89.5 123.5t139 45q81 0 140 -45t90 -123.5t31 -176.5t-31 -176.5t-90 -123.5t-140 -45q-80 0 -139 45t-89.5 123.5t-30.5 176.5t30.5 176.5zM422 520q-43 73 -120 73q-76 0 -119 -73t-43 -187q0 -113 43 -186.5t119 -73.5q51 0 88 34t56 93.5
t19 132.5q0 114 -43 187zM200 723l74 144h72l-96 -144h-50zM332 723l74 144h72l-96 -144h-50z" />
    <glyph glyph-name="ohungarumlaut" unicode="&#x151;" horiz-adv-x="482" 
d="M131 22.5q-46 34.5 -69.5 92t-23.5 127.5q0 69 23.5 127t69.5 92t110 34t110 -34t69.5 -92t23.5 -127q0 -70 -23.5 -127.5t-69.5 -92t-110 -34.5t-110 34.5zM326 115q29 51 29 127q0 75 -29 126t-85 51q-55 0 -84 -51t-29 -126t29 -126.5t84 -51.5q56 0 85 51zM139 556
l74 144h72l-96 -144h-50zM271 556l74 144h72l-96 -144h-50z" />
    <glyph glyph-name="OE" unicode="&#x152;" horiz-adv-x="852" 
d="M453 85q-26 -49 -70.5 -73t-92.5 -24q-77 0 -133 45t-85 123.5t-29 176.5t29 176.5t85 123t133 44.5q48 0 92.5 -23.5t70.5 -71.5v85h354v-84h-259v-201h252v-84h-252v-214h259v-84h-354v85zM395 558.5q-39 33.5 -91 33.5q-78 0 -121 -72t-43 -187q0 -114 43 -187
t121 -73q51 0 90.5 33.5t58.5 96.5v260q-19 62 -58 95.5z" />
    <glyph glyph-name="oe" unicode="&#x153;" horiz-adv-x="786" 
d="M479.5 102q34.5 -43 94.5 -43q31 0 60.5 14.5t51.5 41.5l43 -52q-30 -36 -72 -55.5t-90 -19.5q-117 0 -168 117q-21 -51 -59.5 -84t-98.5 -33q-64 0 -110 34.5t-69.5 92t-23.5 127.5q0 69 23.5 127t69.5 92t110 34q60 0 98.5 -32.5t59.5 -82.5q20 49 59.5 82t97.5 33
q93 0 144 -72t51 -185v-24h-309q3 -69 37.5 -112zM639 379q-28 45 -85 45q-54 0 -82 -45.5t-30 -103.5h226q-1 59 -29 104zM157 368.5q-29 -50.5 -29 -126.5t29 -127.5t84 -51.5t84.5 51.5t29.5 127.5t-29 126.5t-85 50.5q-55 0 -84 -50.5z" />
    <glyph glyph-name="Racute" unicode="&#x154;" horiz-adv-x="521" 
d="M251 259h-89v-259h-95v667h217q55 0 98 -25t67 -71t24 -107q0 -82 -37.5 -129.5t-91.5 -59.5l135 -275h-107zM347 550q-28 33 -76 33h-109v-240h109q48 0 76 33t28 87t-28 87zM218 723l111 144h83l-134 -144h-60z" />
    <glyph glyph-name="racute" unicode="&#x155;" horiz-adv-x="299" 
d="M62 483h86v-74q24 39 59 62t76 23v-87q-12 3 -25 3q-31 0 -62.5 -21.5t-47.5 -51.5v-337h-86v483zM124 556l111 144h83l-134 -144h-60z" />
    <glyph glyph-name="uni0156" unicode="&#x156;" horiz-adv-x="521" 
d="M251 259h-89v-259h-95v667h217q55 0 98 -25t67 -71t24 -107q0 -82 -37.5 -129.5t-91.5 -59.5l135 -275h-107zM347 550q-28 33 -76 33h-109v-240h109q48 0 76 33t28 87t-28 87zM211 -248q23 15 40 39.5t19 45.5l-12 -1q-19 0 -31.5 13t-12.5 33t14.5 35t34.5 15
q24 0 40.5 -19t16.5 -51q0 -41 -20.5 -77.5t-53.5 -59.5z" />
    <glyph glyph-name="uni0157" unicode="&#x157;" horiz-adv-x="299" 
d="M62 483h86v-74q24 39 59 62t76 23v-87q-12 3 -25 3q-31 0 -62.5 -21.5t-47.5 -51.5v-337h-86v483zM99 -248q23 15 40 39.5t19 45.5l-12 -1q-19 0 -31.5 13t-12.5 33t14.5 35t34.5 15q24 0 40.5 -19t16.5 -51q0 -41 -20.5 -77.5t-53.5 -59.5z" />
    <glyph glyph-name="Rcaron" unicode="&#x158;" horiz-adv-x="521" 
d="M251 259h-89v-259h-95v667h217q55 0 98 -25t67 -71t24 -107q0 -82 -37.5 -129.5t-91.5 -59.5l135 -275h-107zM347 550q-28 33 -76 33h-109v-240h109q48 0 76 33t28 87t-28 87zM139 867h53l69 -102l67 102h53l-79 -144h-81z" />
    <glyph glyph-name="rcaron" unicode="&#x159;" horiz-adv-x="299" 
d="M62 483h86v-74q24 39 59 62t76 23v-87q-12 3 -25 3q-31 0 -62.5 -21.5t-47.5 -51.5v-337h-86v483zM49 700h53l69 -102l67 102h53l-79 -144h-81z" />
    <glyph glyph-name="Sacute" unicode="&#x15a;" horiz-adv-x="478" 
d="M75 146q28 -32 69 -52.5t88 -20.5q55 0 84.5 28.5t29.5 70.5q0 31 -16.5 53.5t-42 38t-68.5 35.5q-57 26 -91 47t-58.5 58t-24.5 93q0 51 25.5 92.5t71 65t103.5 23.5q56 0 103 -18.5t81 -52.5l-48 -72q-27 29 -63 43.5t-76 14.5q-44 0 -72 -25t-28 -66q0 -27 15.5 -46.5
t39 -33t65.5 -33.5q57 -26 93 -49.5t61.5 -63t25.5 -98.5q0 -53 -23.5 -96t-70.5 -68.5t-115 -25.5q-66 0 -118 22t-89 62zM191 723l111 144h83l-134 -144h-60z" />
    <glyph glyph-name="sacute" unicode="&#x15b;" horiz-adv-x="394" 
d="M64 117q23 -26 57.5 -43t71.5 -17q40 0 63 19t23 51q0 30 -23.5 47t-72.5 36q-46 17 -74.5 32.5t-49 44.5t-20.5 74q0 57 43 95.5t117 38.5q47 0 86 -16.5t67 -45.5l-38 -59q-18 24 -48.5 38t-65.5 14q-36 0 -58 -17.5t-22 -44.5t21.5 -42t70.5 -35q46 -17 76 -33.5
t51.5 -47t21.5 -77.5q0 -62 -45.5 -101.5t-121.5 -39.5q-110 0 -170 68zM148 556l111 144h83l-134 -144h-60z" />
    <glyph glyph-name="Scircumflex" unicode="&#x15c;" horiz-adv-x="478" 
d="M241 824l-66 -101h-53l79 144h81l82 -144h-53zM75 146q28 -32 69 -52.5t88 -20.5q55 0 84.5 28.5t29.5 70.5q0 31 -16.5 53.5t-42 38t-68.5 35.5q-57 26 -91 47t-58.5 58t-24.5 93q0 51 25.5 92.5t71 65t103.5 23.5q56 0 103 -18.5t81 -52.5l-48 -72q-27 29 -63 43.5
t-76 14.5q-44 0 -72 -25t-28 -66q0 -27 15.5 -46.5t39 -33t65.5 -33.5q57 -26 93 -49.5t61.5 -63t25.5 -98.5q0 -53 -23.5 -96t-70.5 -68.5t-115 -25.5q-66 0 -118 22t-89 62z" />
    <glyph glyph-name="scircumflex" unicode="&#x15d;" horiz-adv-x="394" 
d="M64 117q23 -26 57.5 -43t71.5 -17q40 0 63 19t23 51q0 30 -23.5 47t-72.5 36q-46 17 -74.5 32.5t-49 44.5t-20.5 74q0 57 43 95.5t117 38.5q47 0 86 -16.5t67 -45.5l-38 -59q-18 24 -48.5 38t-65.5 14q-36 0 -58 -17.5t-22 -44.5t21.5 -42t70.5 -35q46 -17 76 -33.5
t51.5 -47t21.5 -77.5q0 -62 -45.5 -101.5t-121.5 -39.5q-110 0 -170 68zM196 657l-66 -101h-53l79 144h81l82 -144h-53z" />
    <glyph glyph-name="Scedilla" unicode="&#x15e;" horiz-adv-x="478" 
d="M391.5 46q-50.5 -54 -143.5 -58l-17 -43q14 11 33 11q26 0 43.5 -18.5t17.5 -48.5q0 -36 -28.5 -58.5t-70.5 -22.5q-27 0 -51 8.5t-40 21.5l19 40q34 -28 70 -28q22 0 37.5 11t15.5 29q0 15 -8.5 23.5t-23.5 8.5q-19 0 -32 -15l-35 21l23 61q-108 10 -175 83l49 74
q28 -32 69 -52.5t88 -20.5q55 0 84.5 28.5t29.5 70.5q0 31 -16.5 53.5t-42 38t-68.5 35.5q-57 26 -91 47t-58.5 58t-24.5 93q0 51 25.5 92.5t71 65t103.5 23.5q56 0 103 -18.5t81 -52.5l-48 -72q-27 29 -63 43.5t-76 14.5q-44 0 -72 -25t-28 -66q0 -27 15.5 -46.5t39 -33
t65.5 -33.5q57 -26 93 -49.5t61.5 -63t25.5 -98.5q0 -78 -50.5 -132z" />
    <glyph glyph-name="scedilla" unicode="&#x15f;" horiz-adv-x="394" 
d="M320.5 32q-40.5 -39 -108.5 -43l-17 -44q12 11 32 11q27 0 44 -18.5t17 -48.5q0 -36 -28 -58.5t-70 -22.5q-28 0 -52 8.5t-40 21.5l20 40q32 -28 70 -28q21 0 36.5 11t15.5 29q0 15 -8 23.5t-23 8.5q-19 0 -32 -15l-36 21l23 61q-88 9 -140 67l40 61q23 -26 57.5 -43
t71.5 -17q40 0 63 19t23 51q0 30 -23.5 47t-72.5 36q-46 17 -74.5 32.5t-49 44.5t-20.5 74q0 57 43 95.5t117 38.5q47 0 86 -16.5t67 -45.5l-38 -59q-18 24 -48.5 38t-65.5 14q-36 0 -58 -17.5t-22 -44.5t21.5 -42t70.5 -35q46 -17 76 -33.5t51.5 -47t21.5 -77.5
q0 -58 -40.5 -97z" />
    <glyph glyph-name="Scaron" unicode="&#x160;" horiz-adv-x="478" 
d="M122 867h53l69 -102l67 102h53l-79 -144h-81zM75 146q28 -32 69 -52.5t88 -20.5q55 0 84.5 28.5t29.5 70.5q0 31 -16.5 53.5t-42 38t-68.5 35.5q-57 26 -91 47t-58.5 58t-24.5 93q0 51 25.5 92.5t71 65t103.5 23.5q56 0 103 -18.5t81 -52.5l-48 -72q-27 29 -63 43.5
t-76 14.5q-44 0 -72 -25t-28 -66q0 -27 15.5 -46.5t39 -33t65.5 -33.5q57 -26 93 -49.5t61.5 -63t25.5 -98.5q0 -53 -23.5 -96t-70.5 -68.5t-115 -25.5q-66 0 -118 22t-89 62z" />
    <glyph glyph-name="scaron" unicode="&#x161;" horiz-adv-x="394" 
d="M64 117q23 -26 57.5 -43t71.5 -17q40 0 63 19t23 51q0 30 -23.5 47t-72.5 36q-46 17 -74.5 32.5t-49 44.5t-20.5 74q0 57 43 95.5t117 38.5q47 0 86 -16.5t67 -45.5l-38 -59q-18 24 -48.5 38t-65.5 14q-36 0 -58 -17.5t-22 -44.5t21.5 -42t70.5 -35q46 -17 76 -33.5
t51.5 -47t21.5 -77.5q0 -62 -45.5 -101.5t-121.5 -39.5q-110 0 -170 68zM77 700h53l69 -102l67 102h53l-79 -144h-81z" />
    <glyph glyph-name="uni0162" unicode="&#x162;" horiz-adv-x="454" 
d="M179 583h-155v84h406v-84h-156v-583h-95v583zM177 -248q23 15 40 39.5t19 45.5l-12 -1q-19 0 -31.5 13t-12.5 33t14.5 35t34.5 15q24 0 40.5 -19t16.5 -51q0 -41 -20.5 -77.5t-53.5 -59.5z" />
    <glyph glyph-name="uni0163" unicode="&#x163;" horiz-adv-x="273" 
d="M79 102v306h-64v75h64v132h85v-132h81v-75h-81v-289q0 -55 38 -55q26 0 41 17l22 -64q-29 -29 -82 -29q-104 0 -104 114zM87 -248q23 15 40 39.5t19 45.5l-12 -1q-19 0 -31.5 13t-12.5 33t14.5 35t34.5 15q24 0 40.5 -19t16.5 -51q0 -41 -20.5 -77.5t-53.5 -59.5z" />
    <glyph glyph-name="Tcaron" unicode="&#x164;" horiz-adv-x="454" 
d="M179 583h-155v84h406v-84h-156v-583h-95v583zM106 867h53l69 -102l67 102h53l-79 -144h-81z" />
    <glyph glyph-name="tcaron" unicode="&#x165;" horiz-adv-x="286" 
d="M79 102v306h-64v75h64v132h85v-132h81v-75h-81v-289q0 -55 38 -55q26 0 41 17l22 -64q-29 -29 -82 -29q-104 0 -104 114zM214 568q23 15 40 39.5t19 45.5l-12 -1q-19 0 -31.5 13t-12.5 33t14.5 35t34.5 15q24 0 40.5 -19t16.5 -51q0 -41 -20.5 -77.5t-53.5 -59.5z" />
    <glyph glyph-name="Tbar" unicode="&#x166;" horiz-adv-x="454" 
d="M274 583v-242h105v-53h-105v-288h-95v288h-109v53h109v242h-155v84h406v-84h-156z" />
    <glyph glyph-name="tbar" unicode="&#x167;" horiz-adv-x="273" 
d="M265 17q-29 -29 -82 -29q-104 0 -104 114v121h-64v53h64v132h-64v75h64v132h85v-132h81v-75h-81v-132h51v-53h-51v-104q0 -55 38 -55q26 0 41 17z" />
    <glyph glyph-name="Utilde" unicode="&#x168;" horiz-adv-x="580" 
d="M67 667h95v-448q0 -71 33.5 -109t94.5 -38t94.5 38t33.5 109v448h95v-447q0 -111 -59 -171.5t-164 -60.5t-164 60.5t-59 171.5v447zM257 799.5q-7 8.5 -18 8.5q-16 0 -26.5 -20.5t-10.5 -60.5h-48q0 60 23 97t65 37q24 0 37.5 -13.5t28.5 -38.5q12 -18 19.5 -26.5
t17.5 -8.5q17 0 27 20t10 61h48q0 -60 -23 -97t-65 -37q-24 0 -37.5 13t-29.5 39q-11 18 -18 26.5z" />
    <glyph glyph-name="utilde" unicode="&#x169;" 
d="M327 65q-24 -33 -61 -55t-80 -22q-63 0 -93.5 32.5t-30.5 97.5v365h86v-338q0 -43 18.5 -62t54.5 -19q32 0 60.5 20t45.5 50v349h85v-483h-85v65zM202 632.5q-7 8.5 -18 8.5q-16 0 -26.5 -20.5t-10.5 -60.5h-48q0 60 23 97t65 37q24 0 37.5 -13.5t28.5 -38.5
q12 -18 19.5 -26.5t17.5 -8.5q17 0 27 20t10 61h48q0 -60 -23 -97t-65 -37q-24 0 -37.5 13t-29.5 39q-11 18 -18 26.5z" />
    <glyph glyph-name="Umacron" unicode="&#x16a;" horiz-adv-x="580" 
d="M67 667h95v-448q0 -71 33.5 -109t94.5 -38t94.5 38t33.5 109v448h95v-447q0 -111 -59 -171.5t-164 -60.5t-164 60.5t-59 171.5v447zM137 790h307v-53h-307v53z" />
    <glyph glyph-name="umacron" unicode="&#x16b;" 
d="M327 65q-24 -33 -61 -55t-80 -22q-63 0 -93.5 32.5t-30.5 97.5v365h86v-338q0 -43 18.5 -62t54.5 -19q32 0 60.5 20t45.5 50v349h85v-483h-85v65zM83 623h307v-53h-307v53z" />
    <glyph glyph-name="Ubreve" unicode="&#x16c;" horiz-adv-x="580" 
d="M67 667h95v-448q0 -71 33.5 -109t94.5 -38t94.5 38t33.5 109v448h95v-447q0 -111 -59 -171.5t-164 -60.5t-164 60.5t-59 171.5v447zM209 730q-39 20 -65 55l42 33q17 -25 45.5 -40t60.5 -15q33 0 61 14.5t45 40.5l42 -33q-26 -35 -64.5 -55t-83.5 -20q-44 0 -83 20z" />
    <glyph glyph-name="ubreve" unicode="&#x16d;" 
d="M327 65q-24 -33 -61 -55t-80 -22q-63 0 -93.5 32.5t-30.5 97.5v365h86v-338q0 -43 18.5 -62t54.5 -19q32 0 60.5 20t45.5 50v349h85v-483h-85v65zM154 563q-39 20 -65 55l42 33q17 -25 45.5 -40t60.5 -15q33 0 61 14.5t45 40.5l42 -33q-26 -35 -64.5 -55t-83.5 -20
q-44 0 -83 20z" />
    <glyph glyph-name="Uring" unicode="&#x16e;" horiz-adv-x="580" 
d="M67 667h95v-448q0 -71 33.5 -109t94.5 -38t94.5 38t33.5 109v448h95v-447q0 -111 -59 -171.5t-164 -60.5t-164 60.5t-59 171.5v447zM225.5 860q27.5 27 64.5 27q38 0 65 -27t27 -65t-27 -65.5t-65 -27.5t-65 27.5t-27 65.5t27.5 65zM325.5 830q-14.5 15 -35.5 15
q-20 0 -35 -15t-15 -35q0 -21 15 -36t35 -15q21 0 35.5 15t14.5 36q0 20 -14.5 35z" />
    <glyph glyph-name="uring" unicode="&#x16f;" 
d="M327 65q-24 -33 -61 -55t-80 -22q-63 0 -93.5 32.5t-30.5 97.5v365h86v-338q0 -43 18.5 -62t54.5 -19q32 0 60.5 20t45.5 50v349h85v-483h-85v65zM172.5 699q27.5 27 64.5 27q38 0 65 -27t27 -65t-27 -65.5t-65 -27.5t-65 27.5t-27 65.5t27.5 65zM272.5 669
q-14.5 15 -35.5 15q-20 0 -35 -15t-15 -35q0 -21 15 -36t35 -15q21 0 35.5 15t14.5 36q0 20 -14.5 35z" />
    <glyph glyph-name="Uhungarumlaut" unicode="&#x170;" horiz-adv-x="580" 
d="M67 667h95v-448q0 -71 33.5 -109t94.5 -38t94.5 38t33.5 109v448h95v-447q0 -111 -59 -171.5t-164 -60.5t-164 60.5t-59 171.5v447zM188 723l74 144h72l-96 -144h-50zM320 723l74 144h72l-96 -144h-50z" />
    <glyph glyph-name="uhungarumlaut" unicode="&#x171;" 
d="M327 65q-24 -33 -61 -55t-80 -22q-63 0 -93.5 32.5t-30.5 97.5v365h86v-338q0 -43 18.5 -62t54.5 -19q32 0 60.5 20t45.5 50v349h85v-483h-85v65zM135 556l74 144h72l-96 -144h-50zM267 556l74 144h72l-96 -144h-50z" />
    <glyph glyph-name="Uogonek" unicode="&#x172;" horiz-adv-x="580" 
d="M67 667h95v-448q0 -71 33.5 -109t94.5 -38t94.5 38t33.5 109v448h95v-447q0 -79 -30 -132t-86 -77q-98 -51 -98 -100q0 -17 10 -26t26 -9q17 0 30 8l22 -53q-25 -17 -71 -17q-39 0 -65.5 19.5t-26.5 55.5q0 30 20.5 56t53.5 43h-8q-105 0 -164 60.5t-59 171.5v447z" />
    <glyph glyph-name="uogonek" unicode="&#x173;" 
d="M412 483v-483q-88 -39 -88 -89q0 -16 10.5 -25.5t25.5 -9.5q18 0 31 8l21 -53q-26 -17 -70 -17q-40 0 -66.5 19.5t-26.5 55.5q0 33 26.5 61.5t70.5 49.5h-19v65q-24 -33 -61 -55t-80 -22q-63 0 -93.5 32.5t-30.5 97.5v365h86v-338q0 -43 18.5 -62t54.5 -19q32 0 60.5 20
t45.5 50v349h85z" />
    <glyph glyph-name="Wcircumflex" unicode="&#x174;" horiz-adv-x="730" 
d="M365 503l-102 -503h-100l-150 667h102l103 -521l108 521h78l109 -521l102 521h102l-149 -667h-101zM363 824l-66 -101h-53l79 144h81l82 -144h-53z" />
    <glyph glyph-name="wcircumflex" unicode="&#x175;" horiz-adv-x="652" 
d="M326 371l-98 -371h-89l-129 483h89l89 -369l97 369h80l98 -369l90 369h90l-130 -483h-89zM325 657l-66 -101h-53l79 144h81l82 -144h-53z" />
    <glyph glyph-name="Ycircumflex" unicode="&#x176;" horiz-adv-x="510" 
d="M254 824l-66 -101h-53l79 144h81l82 -144h-53zM208 280l-206 387h106l147 -297l148 297h105l-205 -387v-280h-95v280z" />
    <glyph glyph-name="ycircumflex" unicode="&#x177;" horiz-adv-x="419" 
d="M86 -120q21 0 34 10t22 34l23 66l-161 493h92l113 -379l115 379h91l-192 -579q-18 -55 -49.5 -77.5t-81.5 -22.5q-12 0 -27 2t-24 5l14 76q13 -7 31 -7zM210 657l-66 -101h-53l79 144h81l82 -144h-53z" />
    <glyph glyph-name="Ydieresis" unicode="&#x178;" horiz-adv-x="510" 
d="M133 736.5q-15 14.5 -15 35.5t15 36t36 15t35.5 -15t14.5 -36t-14.5 -35.5t-35.5 -14.5t-36 14.5zM311 736.5q-15 14.5 -15 35.5t15 36t35 15q21 0 36 -15t15 -36t-15 -35.5t-36 -14.5q-20 0 -35 14.5zM208 280l-206 387h106l147 -297l148 297h105l-205 -387v-280h-95
v280z" />
    <glyph glyph-name="Zacute" unicode="&#x179;" horiz-adv-x="468" 
d="M39 80l269 503h-269v84h383v-78l-270 -505h277v-84h-390v80zM185 723l111 144h83l-134 -144h-60z" />
    <glyph glyph-name="zacute" unicode="&#x17a;" horiz-adv-x="393" 
d="M41 66l200 342h-200v75h307v-64l-201 -344h205v-75h-311v66zM147 556l111 144h83l-134 -144h-60z" />
    <glyph glyph-name="Zdotaccent" unicode="&#x17b;" horiz-adv-x="468" 
d="M39 80l269 503h-269v84h383v-78l-270 -505h277v-84h-390v80zM196.5 807q15.5 15 35.5 15q21 0 36 -15t15 -36q0 -22 -15 -36.5t-36 -14.5t-36 15t-15 36t15.5 36z" />
    <glyph glyph-name="zdotaccent" unicode="&#x17c;" horiz-adv-x="393" 
d="M41 66l200 342h-200v75h307v-64l-201 -344h205v-75h-311v66zM159.5 640q15.5 15 35.5 15q21 0 36 -15t15 -36q0 -22 -15 -36.5t-36 -14.5t-36 15t-15 36t15.5 36z" />
    <glyph glyph-name="Zcaron" unicode="&#x17d;" horiz-adv-x="468" 
d="M112 867h53l69 -102l67 102h53l-79 -144h-81zM39 80l269 503h-269v84h383v-78l-270 -505h277v-84h-390v80z" />
    <glyph glyph-name="zcaron" unicode="&#x17e;" horiz-adv-x="393" 
d="M41 66l200 342h-200v75h307v-64l-201 -344h205v-75h-311v66zM72 700h53l69 -102l67 102h53l-79 -144h-81z" />
    <glyph glyph-name="longs" unicode="&#x17f;" horiz-adv-x="264" 
d="M81 408h-63v75h63v52q0 66 34 104t90 38q40 0 68 -15l-19 -66q-14 8 -31 8q-26 0 -41 -18t-15 -51v-535h-86v408z" />
    <glyph glyph-name="uni018F" unicode="&#x18f;" horiz-adv-x="580" 
d="M411.5 635q60.5 -43 93.5 -121t33 -181q0 -102 -32 -180.5t-90.5 -122t-134.5 -43.5q-124 0 -188 96.5t-64 272.5h410q-5 109 -50.5 173t-116.5 64q-42 0 -74.5 -23.5t-53.5 -63.5l-77 38q31 61 82 97.5t123 36.5q79 0 139.5 -43zM382 126q43 54 54 146h-309
q6 -87 44 -143.5t104 -56.5q64 0 107 54z" />
    <glyph glyph-name="florin" unicode="&#x192;" horiz-adv-x="406" 
d="M111 251h-55v76h72l47 216q13 60 57 97t101 37q55 0 85 -31l-36 -71q-15 18 -40 18q-27 0 -46.5 -18.5t-27.5 -51.5l-43 -196h109v-76h-126l-92 -412h-96z" />
    <glyph glyph-name="Ohorn" unicode="&#x1a0;" horiz-adv-x="606" 
d="M567 593.5q-18 -33.5 -48 -55.5q44 -86 44 -205q0 -98 -31 -176.5t-90 -123.5t-140 -45q-80 0 -139 45t-89.5 123.5t-30.5 176.5t30.5 176.5t89.5 123.5t139 45q63 0 112.5 -27.5t84.5 -78.5q16 15 27.5 34t13.5 36q-4 -2 -11 -2q-18 0 -30 12.5t-12 31.5t13.5 32.5
t32.5 13.5q22 0 37 -17.5t15 -47.5q0 -38 -18 -71.5zM390 107q37 34 56 93.5t19 132.5q0 114 -43 187t-120 73q-76 0 -119 -73t-43 -187q0 -113 43 -186.5t119 -73.5q51 0 88 34z" />
    <glyph glyph-name="ohorn" unicode="&#x1a1;" horiz-adv-x="482" 
d="M441 464.5q-16 -31.5 -42 -54.5q45 -70 45 -168q0 -70 -23.5 -127.5t-69.5 -92t-110 -34.5t-110 34.5t-69.5 92t-23.5 127.5q0 69 23.5 127t69.5 92t110 34q81 0 133 -54q34 36 37 67l-11 -1q-18 0 -29.5 12t-11.5 31t13.5 32.5t32.5 13.5q21 0 36.5 -17.5t15.5 -47.5
q0 -35 -16 -66.5zM326 115q29 51 29 127q0 75 -29 126t-85 51q-55 0 -84 -51t-29 -126t29 -126.5t84 -51.5q56 0 85 51z" />
    <glyph glyph-name="Uhorn" unicode="&#x1af;" horiz-adv-x="580" 
d="M589 642.5q-27 -40.5 -76 -64.5v-358q0 -111 -59 -171.5t-164 -60.5t-164 60.5t-59 171.5v447h95v-448q0 -71 33.5 -109t94.5 -38t94.5 38t33.5 109v448h95v-45q23 15 39.5 38.5t18.5 45.5q-2 -2 -11 -2q-18 0 -29.5 12t-11.5 31t13 32.5t32 13.5q22 0 37 -17.5t15 -47.5
q0 -45 -27 -85.5z" />
    <glyph glyph-name="uhorn" unicode="&#x1b0;" 
d="M472.5 462.5q-21.5 -36.5 -60.5 -61.5v-401h-85v65q-24 -33 -61 -55t-80 -22q-63 0 -93.5 32.5t-30.5 97.5v365h86v-338q0 -43 18.5 -62t54.5 -19q32 0 60.5 20t45.5 50v349h85v-32q15 15 25 32t11 33q-2 -2 -11 -2q-18 0 -29.5 12t-11.5 31t13 32.5t32 13.5
q22 0 37.5 -17.5t15.5 -47.5q0 -39 -21.5 -75.5z" />
    <glyph glyph-name="AEacute" unicode="&#x1fc;" horiz-adv-x="761" 
d="M362 141h-188l-64 -141h-103l316 667h393v-84h-258v-201h251v-84h-251v-214h258v-84h-354v141zM209 225h153v339zM362 723l111 144h83l-134 -144h-60z" />
    <glyph glyph-name="aeacute" unicode="&#x1fd;" horiz-adv-x="740" 
d="M445.5 102q32.5 -43 89.5 -43q28 0 56.5 15t48.5 42l43 -53q-30 -35 -71 -55t-84 -20q-56 0 -94.5 24t-64.5 71q-23 -42 -66.5 -68.5t-98.5 -26.5q-74 0 -120.5 42.5t-46.5 116.5t43.5 117t109.5 43q41 0 77 -15t59 -44v76q0 47 -27 72.5t-76 25.5q-72 0 -129 -57l-35 60
q35 35 79.5 52.5t92.5 17.5q55 0 92.5 -24t50.5 -66q23 41 57 65.5t88 24.5q89 0 137.5 -72t48.5 -185v-24h-295q3 -69 35.5 -112zM595.5 379q-25.5 45 -79.5 45q-52 0 -78.5 -45.5t-28.5 -103.5h212q0 59 -25.5 104zM280.5 230.5q-28.5 15.5 -60.5 15.5q-43 0 -69.5 -25.5
t-26.5 -68.5q0 -44 26 -69t70 -25q45 0 75.5 33.5t30.5 78.5v18q-17 27 -45.5 42.5zM306 556l111 144h83l-134 -144h-60z" />
    <glyph glyph-name="Oslashacute" unicode="&#x1fe;" horiz-adv-x="606" 
d="M314 723h-60l111 144h83zM542 480q21 -68 21 -147q0 -98 -31 -176.5t-90 -123.5t-140 -45q-78 0 -138 44l-19 -32h-67l42 75q-37 46 -57 113t-20 145q0 98 30.5 176.5t89.5 123.5t139 45q77 0 136 -42l18 31h67l-41 -72q39 -47 60 -115zM172 167l221 390q-38 36 -91 36
q-76 0 -119 -73t-43 -187q0 -97 32 -166zM390 107q37 34 56 93.5t19 132.5q0 101 -34 171l-222 -391q38 -40 93 -40q51 0 88 34z" />
    <glyph glyph-name="oslashacute" unicode="&#x1ff;" horiz-adv-x="482" 
d="M252 556h-60l112 144h82zM430 342q14 -47 14 -100q0 -70 -23.5 -127.5t-69.5 -92t-110 -34.5q-67 0 -117 40l-19 -28h-55l41 62q-26 35 -39.5 81.5t-13.5 98.5q0 69 23.5 127t69.5 92t110 34q66 0 115 -38l17 26h56l-40 -59q27 -35 41 -82zM144 141l166 248
q-27 30 -69 30q-55 0 -84 -51t-29 -126q0 -57 16 -101zM326 115q29 51 29 127q0 58 -18 103l-167 -248q28 -33 71 -33q56 0 85 51z" />
    <glyph glyph-name="uni0218" unicode="&#x218;" horiz-adv-x="478" 
d="M75 146q28 -32 69 -52.5t88 -20.5q55 0 84.5 28.5t29.5 70.5q0 31 -16.5 53.5t-42 38t-68.5 35.5q-57 26 -91 47t-58.5 58t-24.5 93q0 51 25.5 92.5t71 65t103.5 23.5q56 0 103 -18.5t81 -52.5l-48 -72q-27 29 -63 43.5t-76 14.5q-44 0 -72 -25t-28 -66q0 -27 15.5 -46.5
t39 -33t65.5 -33.5q57 -26 93 -49.5t61.5 -63t25.5 -98.5q0 -53 -23.5 -96t-70.5 -68.5t-115 -25.5q-66 0 -118 22t-89 62zM184 -248q23 15 40 39.5t19 45.5l-12 -1q-19 0 -31.5 13t-12.5 33t14.5 35t34.5 15q24 0 40.5 -19t16.5 -51q0 -41 -20.5 -77.5t-53.5 -59.5z" />
    <glyph glyph-name="uni0219" unicode="&#x219;" horiz-adv-x="394" 
d="M64 117q23 -26 57.5 -43t71.5 -17q40 0 63 19t23 51q0 30 -23.5 47t-72.5 36q-46 17 -74.5 32.5t-49 44.5t-20.5 74q0 57 43 95.5t117 38.5q47 0 86 -16.5t67 -45.5l-38 -59q-18 24 -48.5 38t-65.5 14q-36 0 -58 -17.5t-22 -44.5t21.5 -42t70.5 -35q46 -17 76 -33.5
t51.5 -47t21.5 -77.5q0 -62 -45.5 -101.5t-121.5 -39.5q-110 0 -170 68zM149 -248q23 15 40 39.5t19 45.5l-12 -1q-19 0 -31.5 13t-12.5 33t14.5 35t34.5 15q24 0 40.5 -19t16.5 -51q0 -41 -20.5 -77.5t-53.5 -59.5z" />
    <glyph glyph-name="uni021A" unicode="&#x21a;" horiz-adv-x="454" 
d="M179 583h-155v84h406v-84h-156v-583h-95v583zM177 -248q23 15 40 39.5t19 45.5l-12 -1q-19 0 -31.5 13t-12.5 33t14.5 35t34.5 15q24 0 40.5 -19t16.5 -51q0 -41 -20.5 -77.5t-53.5 -59.5z" />
    <glyph glyph-name="uni021B" unicode="&#x21b;" horiz-adv-x="273" 
d="M79 102v306h-64v75h64v132h85v-132h81v-75h-81v-289q0 -55 38 -55q26 0 41 17l22 -64q-29 -29 -82 -29q-104 0 -104 114zM87 -248q23 15 40 39.5t19 45.5l-12 -1q-19 0 -31.5 13t-12.5 33t14.5 35t34.5 15q24 0 40.5 -19t16.5 -51q0 -41 -20.5 -77.5t-53.5 -59.5z" />
    <glyph glyph-name="uni0237" unicode="&#x237;" horiz-adv-x="210" 
d="M-14 -117q12 -4 24 -4q24 0 38 15.5t14 48.5v540h86v-540q0 -68 -32.5 -103.5t-93.5 -35.5q-26 0 -47 6z" />
    <glyph glyph-name="uni0259" unicode="&#x259;" horiz-adv-x="471" 
d="M408.5 113q-24.5 -58 -70.5 -91.5t-107 -33.5q-93 0 -144.5 72t-51.5 184v25h310q-3 69 -38 112t-95 43q-30 0 -60 -15t-51 -41l-44 52q31 36 73 55.5t90 19.5q64 0 112.5 -32t74.5 -90t26 -132q0 -70 -24.5 -128zM315 104.5q28 45.5 31 103.5h-227q1 -59 29 -104t84 -45
q55 0 83 45.5z" />
    <glyph glyph-name="uni02B0" unicode="&#x2b0;" horiz-adv-x="347" 
d="M233 539q0 29 -13 41.5t-37 12.5q-20 0 -38.5 -13t-30.5 -31v-223h-64v434h64v-163q15 21 41.5 36t55.5 15q87 0 87 -90v-232h-65v213z" />
    <glyph glyph-name="uni02BC" unicode="&#x2bc;" horiz-adv-x="236" 
d="M57 471q24 16 43.5 43t23.5 51q-6 -3 -14 -3q-23 0 -38 16t-15 40t17 41.5t42 17.5q28 0 47.5 -21.5t19.5 -59.5q0 -47 -23.5 -89t-61.5 -69z" />
    <glyph glyph-name="circumflex" unicode="&#x2c6;" horiz-adv-x="242" 
d="M119 657l-66 -101h-53l79 144h81l82 -144h-53z" />
    <glyph glyph-name="caron" unicode="&#x2c7;" horiz-adv-x="242" 
d="M0 700h53l69 -102l67 102h53l-79 -144h-81z" />
    <glyph glyph-name="uni02C9" unicode="&#x2c9;" horiz-adv-x="307" 
d="M0 644h307v-53h-307v53z" />
    <glyph glyph-name="uni02CB" unicode="&#x2cb;" horiz-adv-x="194" 
d="M0 700h83l111 -144h-60z" />
    <glyph glyph-name="breve" unicode="&#x2d8;" horiz-adv-x="296" 
d="M65 563q-39 20 -65 55l42 33q17 -25 45.5 -40t60.5 -15q33 0 61 14.5t45 40.5l42 -33q-26 -35 -64.5 -55t-83.5 -20q-44 0 -83 20z" />
    <glyph glyph-name="dotaccent" unicode="&#x2d9;" horiz-adv-x="124" 
d="M26.5 640q15.5 15 35.5 15q21 0 36 -15t15 -36q0 -22 -15 -36.5t-36 -14.5t-36 15t-15 36t15.5 36z" />
    <glyph glyph-name="ring" unicode="&#x2da;" horiz-adv-x="184" 
d="M27.5 699q27.5 27 64.5 27q38 0 65 -27t27 -65t-27 -65.5t-65 -27.5t-65 27.5t-27 65.5t27.5 65zM127.5 669q-14.5 15 -35.5 15q-20 0 -35 -15t-15 -35q0 -21 15 -36t35 -15q21 0 35.5 15t14.5 36q0 20 -14.5 35z" />
    <glyph glyph-name="ogonek" unicode="&#x2db;" horiz-adv-x="163" 
d="M47 -186q-40 0 -66.5 19.5t-26.5 55.5q0 35 29.5 65t78.5 51l55 -5q-88 -39 -88 -89q0 -16 10.5 -25.5t25.5 -9.5q18 0 31 8l21 -53q-25 -17 -70 -17z" />
    <glyph glyph-name="tilde" unicode="&#x2dc;" horiz-adv-x="276" 
d="M103 632.5q-7 8.5 -18 8.5q-16 0 -26.5 -20.5t-10.5 -60.5h-48q0 60 23 97t65 37q24 0 37.5 -13.5t28.5 -38.5q12 -18 19.5 -26.5t17.5 -8.5q17 0 27 20t10 61h48q0 -60 -23 -97t-65 -37q-24 0 -37.5 13t-29.5 39q-11 18 -18 26.5z" />
    <glyph glyph-name="hungarumlaut" unicode="&#x2dd;" horiz-adv-x="278" 
d="M0 556l74 144h72l-96 -144h-50zM132 556l74 144h72l-96 -144h-50z" />
    <glyph glyph-name="uni02E1" unicode="&#x2e1;" horiz-adv-x="165" 
d="M50 760h65v-434h-65v434z" />
    <glyph glyph-name="uni02E2" unicode="&#x2e2;" horiz-adv-x="283" 
d="M48 407q16 -18 40 -30t48 -12q26 0 41.5 12t15.5 32q0 21 -17 32.5t-50 22.5q-31 11 -50.5 21t-33 28.5t-13.5 47.5q0 37 29.5 62t80.5 25q70 0 108 -42l-26 -39q-14 15 -34.5 25t-44.5 10t-38 -11.5t-14 -29.5t15.5 -27.5t48.5 -20.5q32 -11 52 -21t34.5 -29t14.5 -50
q0 -41 -32 -68t-85 -27q-73 0 -118 48z" />
    <glyph glyph-name="hookabovecomb" unicode="&#x309;" horiz-adv-x="0" 
d="M-124.5 776q17.5 14 42.5 14q29 0 47 -16.5t18 -49.5q0 -30 -18 -57h-40q21 25 21 55q0 17 -7.5 25.5t-20.5 8.5q-23 0 -31 -27l-36 9q7 24 24.5 38z" />
    <glyph glyph-name="uni0326" unicode="&#x326;" horiz-adv-x="0" 
d="M-172 -248q23 15 40 39.5t19 45.5l-12 -1q-19 0 -31.5 13t-12.5 33t14.5 35t34.5 15q24 0 40.5 -19t16.5 -51q0 -41 -20.5 -77.5t-53.5 -59.5z" />
    <glyph glyph-name="uni037E" unicode="&#x37e;" horiz-adv-x="235" 
d="M75 388q-18 18 -18 42q0 25 18 42.5t43 17.5q24 0 42 -17.5t18 -42.5q0 -24 -18 -42t-42 -18q-25 0 -43 18zM57 -94q24 15 43.5 42t23.5 51q-4 -2 -14 -2q-23 0 -38 15.5t-15 39.5t17 41.5t42 17.5q28 0 47.5 -22t19.5 -59q0 -47 -23.5 -89t-61.5 -69z" />
    <glyph glyph-name="tonos" unicode="&#x384;" horiz-adv-x="204" 
d="M122 765h82l-60 -202h-41z" />
    <glyph glyph-name="dieresistonos" unicode="&#x385;" 
d="M223 765h82l-60 -202h-41zM71 569.5q-15 14.5 -15 35.5t15 36t36 15t36 -15t15 -36t-15 -35.5t-36 -14.5t-36 14.5zM331.5 569.5q-14.5 14.5 -14.5 35.5t14.5 36t35.5 15t36 -15t15 -36t-15 -35.5t-36 -14.5t-35.5 14.5z" />
    <glyph glyph-name="Alphatonos" unicode="&#x386;" horiz-adv-x="523" 
d="M102 765h82l-60 -202h-41zM376 141h-229l-39 -141h-103l199 667h114l200 -667h-103zM167 225h189l-95 339z" />
    <glyph glyph-name="Epsilontonos" unicode="&#x388;" horiz-adv-x="493" 
d="M9 765h82l-60 -202h-41zM94 667h354v-84h-259v-201h252v-84h-252v-214h259v-84h-354v667z" />
    <glyph glyph-name="Etatonos" unicode="&#x389;" horiz-adv-x="611" 
d="M9 765h82l-60 -202h-41zM448 301h-259v-301h-95v667h95v-282h259v282h96v-667h-96v301z" />
    <glyph glyph-name="Iotatonos" unicode="&#x38a;" horiz-adv-x="256" 
d="M9 765h82l-60 -202h-41zM94 667h95v-667h-95v667z" />
    <glyph glyph-name="Omicrontonos" unicode="&#x38c;" horiz-adv-x="613" 
d="M32 765h82l-60 -202h-41zM80.5 509.5q30.5 78.5 89.5 123.5t139 45q81 0 140 -45t90 -123.5t31 -176.5t-31 -176.5t-90 -123.5t-140 -45q-80 0 -139 45t-89.5 123.5t-30.5 176.5t30.5 176.5zM429 520q-43 73 -120 73q-76 0 -119 -73t-43 -187q0 -113 43 -186.5t119 -73.5
q51 0 88 34t56 93.5t19 132.5q0 114 -43 187z" />
    <glyph glyph-name="Upsilontonos" unicode="&#x38e;" horiz-adv-x="579" 
d="M5 765h82l-60 -202h-41zM277 280l-206 387h106l147 -297l148 297h105l-205 -387v-280h-95v280z" />
    <glyph glyph-name="Omegatonos" unicode="&#x38f;" horiz-adv-x="610" 
d="M32 765h82l-60 -202h-41zM83.5 190q-32.5 67 -32.5 161q0 97 31.5 171t90 115t138.5 41t139 -41t90.5 -115t31.5 -171q0 -94 -32.5 -161t-83.5 -106h102v-84h-196v84q46 20 78.5 86t32.5 163q0 118 -41.5 188.5t-120.5 70.5t-120.5 -71t-41.5 -188q0 -97 33 -162.5
t79 -86.5v-84h-196v84h102q-51 39 -83.5 106z" />
    <glyph glyph-name="iotadieresistonos" unicode="&#x390;" horiz-adv-x="222" 
d="M62 483h86v-368q0 -51 37 -51q7 0 17 2l6 -73q-17 -5 -42 -5q-104 0 -104 114v381zM97 765h82l-60 -202h-41zM-55 569.5q-15 14.5 -15 35.5t15 36t36 15t36 -15t15 -36t-15 -35.5t-36 -14.5t-36 14.5zM205.5 569.5q-14.5 14.5 -14.5 35.5t14.5 36t35.5 15t36 -15t15 -36
t-15 -35.5t-36 -14.5t-35.5 14.5z" />
    <glyph glyph-name="Alpha" unicode="&#x391;" horiz-adv-x="523" 
d="M376 141h-229l-39 -141h-103l199 667h114l200 -667h-103zM167 225h189l-95 339z" />
    <glyph glyph-name="Beta" unicode="&#x392;" horiz-adv-x="528" 
d="M67 667h237q79 0 123.5 -47t44.5 -123q0 -61 -28.5 -100.5t-74.5 -52.5q48 -7 81 -55t33 -109q0 -82 -44.5 -131t-127.5 -49h-244v667zM284 382q45 0 67.5 27.5t22.5 72.5t-22.5 73t-67.5 28h-122v-201h122zM288 84q47 0 72 28t25 79q0 46 -25 76.5t-72 30.5h-126v-214
h126z" />
    <glyph glyph-name="Gamma" unicode="&#x393;" horiz-adv-x="457" 
d="M67 667h354v-84h-259v-583h-95v667z" />
    <glyph glyph-name="uni0394" unicode="&#x394;" horiz-adv-x="536" 
d="M211 667h114l206 -667h-526zM128 84h280l-140 480z" />
    <glyph glyph-name="Epsilon" unicode="&#x395;" horiz-adv-x="466" 
d="M67 667h354v-84h-259v-201h252v-84h-252v-214h259v-84h-354v667z" />
    <glyph glyph-name="Zeta" unicode="&#x396;" horiz-adv-x="468" 
d="M39 80l269 503h-269v84h383v-78l-270 -505h277v-84h-390v80z" />
    <glyph glyph-name="Eta" unicode="&#x397;" horiz-adv-x="583" 
d="M421 301h-259v-301h-95v667h95v-282h259v282h96v-667h-96v301z" />
    <glyph glyph-name="Theta" unicode="&#x398;" horiz-adv-x="606" 
d="M73.5 509.5q30.5 78.5 89.5 123.5t139 45q81 0 140 -45t90 -123.5t31 -176.5t-31 -176.5t-90 -123.5t-140 -45q-80 0 -139 45t-89.5 123.5t-30.5 176.5t30.5 176.5zM422 520q-43 73 -120 73q-76 0 -119 -73t-43 -187q0 -113 43 -186.5t119 -73.5q51 0 88 34t56 93.5
t19 132.5q0 114 -43 187zM181 382h243v-84h-243v84z" />
    <glyph glyph-name="Iota" unicode="&#x399;" horiz-adv-x="229" 
d="M67 667h95v-667h-95v667z" />
    <glyph glyph-name="Kappa" unicode="&#x39a;" horiz-adv-x="522" 
d="M215 285l-53 -79v-206h-95v667h95v-334l220 334h112l-220 -316l238 -351h-114z" />
    <glyph glyph-name="Lambda" unicode="&#x39b;" horiz-adv-x="523" 
d="M261 564l-153 -564h-103l199 667h114l200 -667h-103z" />
    <glyph glyph-name="Mu" unicode="&#x39c;" horiz-adv-x="698" 
d="M537 492l-169 -492h-38l-168 492v-492h-95v667h131l151 -440l153 440h129v-667h-94v492z" />
    <glyph glyph-name="Nu" unicode="&#x39d;" horiz-adv-x="582" 
d="M162 464v-464h-95v667h96l257 -453v453h95v-667h-91z" />
    <glyph glyph-name="Xi" unicode="&#x39e;" horiz-adv-x="498" 
d="M46 667h406v-84h-406v84zM53 382h393v-84h-393v84zM46 84h406v-84h-406v84z" />
    <glyph glyph-name="Omicron" unicode="&#x39f;" horiz-adv-x="606" 
d="M73.5 509.5q30.5 78.5 89.5 123.5t139 45q81 0 140 -45t90 -123.5t31 -176.5t-31 -176.5t-90 -123.5t-140 -45q-80 0 -139 45t-89.5 123.5t-30.5 176.5t30.5 176.5zM422 520q-43 73 -120 73q-76 0 -119 -73t-43 -187q0 -113 43 -186.5t119 -73.5q51 0 88 34t56 93.5
t19 132.5q0 114 -43 187z" />
    <glyph glyph-name="Pi" unicode="&#x3a0;" horiz-adv-x="583" 
d="M421 583h-259v-583h-95v667h450v-667h-96v583z" />
    <glyph glyph-name="Rho" unicode="&#x3a1;" horiz-adv-x="500" 
d="M67 667h215q61 0 104 -27.5t65 -74t22 -102.5t-22 -102.5t-65 -74t-104 -27.5h-120v-259h-95v667zM347 550q-28 33 -76 33h-109v-240h109q48 0 76 33t28 87t-28 87z" />
    <glyph glyph-name="Sigma" unicode="&#x3a3;" horiz-adv-x="457" 
d="M416 84v-84h-370v86l169 257l-169 240v84h370v-84h-261l167 -240l-171 -259h265z" />
    <glyph glyph-name="Tau" unicode="&#x3a4;" horiz-adv-x="454" 
d="M179 583h-155v84h406v-84h-156v-583h-95v583z" />
    <glyph glyph-name="Upsilon" unicode="&#x3a5;" horiz-adv-x="510" 
d="M208 280l-206 387h106l147 -297l148 297h105l-205 -387v-280h-95v280z" />
    <glyph glyph-name="Phi" unicode="&#x3a6;" horiz-adv-x="712" 
d="M601 150.5q-69 -72.5 -197 -84.5v-66h-96v66q-128 12 -196.5 84.5t-68.5 182.5t68.5 182.5t196.5 84.5v67h96v-67q128 -12 197 -84.5t69 -182.5t-69 -182.5zM183 212q43 -49 125 -60v362q-82 -11 -125 -59.5t-43 -121.5q0 -72 43 -121zM529 212q43 49 43 121
q0 73 -43 121.5t-125 59.5v-362q82 11 125 60z" />
    <glyph glyph-name="Chi" unicode="&#x3a7;" horiz-adv-x="522" 
d="M261 265l-146 -265h-110l198 341l-187 326h110l135 -251l134 251h111l-186 -326l197 -341h-110z" />
    <glyph glyph-name="Psi" unicode="&#x3a8;" horiz-adv-x="717" 
d="M649 667v-294q0 -109 -63.5 -172.5t-179.5 -74.5v-126h-95v126q-116 11 -180 74.5t-64 171.5v295h96v-293q0 -72 38 -112.5t110 -49.5v455h95v-455q72 9 109.5 49.5t37.5 112.5v293h96z" />
    <glyph glyph-name="uni03A9" unicode="&#x3a9;" horiz-adv-x="599" 
d="M71.5 190q-32.5 67 -32.5 161q0 97 31.5 171t90 115t138.5 41t139 -41t90.5 -115t31.5 -171q0 -94 -32.5 -161t-83.5 -106h102v-84h-196v84q46 20 78.5 86t32.5 163q0 118 -41.5 188.5t-120.5 70.5t-120.5 -71t-41.5 -188q0 -97 33 -162.5t79 -86.5v-84h-196v84h102
q-51 39 -83.5 106z" />
    <glyph glyph-name="Iotadieresis" unicode="&#x3aa;" horiz-adv-x="229" 
d="M67 667h95v-667h-95v667zM-10 753.5q-15 14.5 -15 35.5t15 36t36 15t35.5 -15t14.5 -36t-14.5 -35.5t-35.5 -14.5t-36 14.5zM168 753.5q-15 14.5 -15 35.5t15 36t35 15q21 0 36 -15t15 -36t-15 -35.5t-36 -14.5q-20 0 -35 14.5z" />
    <glyph glyph-name="Upsilondieresis" unicode="&#x3ab;" horiz-adv-x="510" 
d="M208 280l-206 387h106l147 -297l148 297h105l-205 -387v-280h-95v280zM130 753.5q-15 14.5 -15 35.5t15 36t36 15t35.5 -15t14.5 -36t-14.5 -35.5t-35.5 -14.5t-36 14.5zM308 753.5q-15 14.5 -15 35.5t15 36t35 15q21 0 36 -15t15 -36t-15 -35.5t-36 -14.5
q-20 0 -35 14.5z" />
    <glyph glyph-name="alphatonos" unicode="&#x3ac;" horiz-adv-x="499" 
d="M443 -12q-87 0 -100 85q-20 -38 -55 -61.5t-75 -23.5q-81 0 -128 68.5t-47 184.5q0 115 47 184.5t128 69.5q37 0 70.5 -20.5t54.5 -58.5v67h86v-368q0 -51 37 -51q7 0 17 2l6 -73q-17 -5 -41 -5zM339 345q-14 31 -42.5 52t-59.5 21q-53 0 -81.5 -49.5t-28.5 -127.5
q0 -77 28.5 -127t81.5 -50q31 0 59.5 21t42.5 51v209zM239 765h82l-60 -202h-41z" />
    <glyph glyph-name="epsilontonos" unicode="&#x3ad;" horiz-adv-x="435" 
d="M73.5 210q35.5 31 82.5 37q-45 8 -77.5 41t-32.5 76q0 61 53 96t140 35q106 0 168 -78l-45 -50q-45 58 -125 58q-46 0 -75 -19.5t-29 -51.5q0 -36 28 -55.5t75 -19.5h89v-69h-90q-110 0 -110 -73q0 -36 28.5 -57.5t76.5 -21.5q43 0 79 15.5t61 44.5l44 -51
q-30 -37 -77 -58t-109 -21q-88 0 -139 40t-51 102q0 49 35.5 80zM207 765h82l-60 -202h-41z" />
    <glyph glyph-name="etatonos" unicode="&#x3ae;" 
d="M327 336q0 44 -19 63.5t-54 19.5q-33 0 -61.5 -21t-44.5 -51v-347h-86v483h86v-67q22 33 60 56t80 23q124 0 124 -131v-548h-85v520zM227 765h82l-60 -202h-41z" />
    <glyph glyph-name="iotatonos" unicode="&#x3af;" horiz-adv-x="222" 
d="M62 483h86v-368q0 -51 37 -51q7 0 17 2l6 -73q-17 -5 -42 -5q-104 0 -104 114v381zM101 765h82l-60 -202h-41z" />
    <glyph glyph-name="upsilondieresistonos" unicode="&#x3b0;" horiz-adv-x="478" 
d="M62 483h86v-297q0 -58 22.5 -90t66.5 -32q57 0 85.5 52.5t28.5 135.5q0 117 -60 209l78 34q71 -110 71 -243q0 -75 -23 -135t-69 -94.5t-111 -34.5q-85 0 -130 53t-45 145v297zM225 765h82l-60 -202h-41zM73 569.5q-15 14.5 -15 35.5t15 36t36 15t36 -15t15 -36
t-15 -35.5t-36 -14.5t-36 14.5zM333.5 569.5q-14.5 14.5 -14.5 35.5t14.5 36t35.5 15t36 -15t15 -36t-15 -35.5t-36 -14.5t-35.5 14.5z" />
    <glyph glyph-name="alpha" unicode="&#x3b1;" horiz-adv-x="499" 
d="M443 -12q-87 0 -100 85q-20 -38 -55 -61.5t-75 -23.5q-81 0 -128 68.5t-47 184.5q0 115 47 184.5t128 69.5q37 0 70.5 -20.5t54.5 -58.5v67h86v-368q0 -51 37 -51q7 0 17 2l6 -73q-17 -5 -41 -5zM339 345q-14 31 -42.5 52t-59.5 21q-53 0 -81.5 -49.5t-28.5 -127.5
q0 -77 28.5 -127t81.5 -50q31 0 59.5 21t42.5 51v209z" />
    <glyph glyph-name="beta" unicode="&#x3b2;" horiz-adv-x="486" 
d="M62 -184v640q0 114 56 167.5t138 53.5t130 -46t48 -132q0 -59 -31.5 -100.5t-80.5 -53.5q31 -5 60 -27.5t47.5 -60t18.5 -87.5q0 -52 -21.5 -93.5t-59.5 -65t-87 -23.5q-41 0 -76 21t-56 57v-250h-86zM192 84.5q29 -20.5 62 -20.5q50 0 77 34t27 85q0 59 -31 89.5
t-79 30.5h-27v76h24q45 0 72.5 28.5t27.5 81.5t-25 82t-64 29q-48 0 -78 -35t-30 -109v-320q15 -31 44 -51.5z" />
    <glyph glyph-name="gamma" unicode="&#x3b3;" horiz-adv-x="419" 
d="M167 -51q0 151 -47.5 291.5t-125.5 242.5h97q52 -76 88.5 -175t43.5 -194q38 72 63 173.5t25 195.5h85q0 -117 -39.5 -245.5t-104.5 -231.5v-190h-85v133z" />
    <glyph glyph-name="delta" unicode="&#x3b4;" horiz-adv-x="482" 
d="M350 413.5q38 -25.5 66 -73.5t28 -122q0 -59 -23 -111.5t-68 -85.5t-108 -33q-65 0 -112 33.5t-71 87t-24 113.5q0 71 32 122.5t86 85.5q-34 21 -53 48t-19 67q0 57 43 95.5t117 38.5q47 0 86 -16.5t67 -45.5l-38 -59q-18 24 -48.5 38t-65.5 14q-36 0 -58 -17.5
t-22 -44.5q0 -26 21.5 -42.5t68.5 -39.5q57 -27 95 -52.5zM309 87q27 23 40 58.5t13 71.5q0 68 -34 105.5t-96 68.5q-50 -25 -77 -67.5t-27 -101.5q0 -62 30 -110t86 -48q38 0 65 23z" />
    <glyph glyph-name="epsilon" unicode="&#x3b5;" horiz-adv-x="435" 
d="M73.5 210q35.5 31 82.5 37q-45 8 -77.5 41t-32.5 76q0 61 53 96t140 35q106 0 168 -78l-45 -50q-45 58 -125 58q-46 0 -75 -19.5t-29 -51.5q0 -36 28 -55.5t75 -19.5h89v-69h-90q-110 0 -110 -73q0 -36 28.5 -57.5t76.5 -21.5q43 0 79 15.5t61 44.5l44 -51
q-30 -37 -77 -58t-109 -21q-88 0 -139 40t-51 102q0 49 35.5 80z" />
    <glyph glyph-name="zeta" unicode="&#x3b6;" horiz-adv-x="407" 
d="M96 54q-58 54 -58 144q0 224 233 394h-221v75h320v-64q-116 -90 -179.5 -190t-63.5 -205q0 -62 36.5 -97t103.5 -35q55 0 81.5 -27t26.5 -73q0 -54 -44 -133h-86q18 28 32.5 62.5t14.5 55.5q0 39 -41 39q-97 0 -155 54z" />
    <glyph glyph-name="eta" unicode="&#x3b7;" 
d="M327 336q0 44 -19 63.5t-54 19.5q-33 0 -61.5 -21t-44.5 -51v-347h-86v483h86v-67q22 33 60 56t80 23q124 0 124 -131v-548h-85v520z" />
    <glyph glyph-name="theta" unicode="&#x3b8;" horiz-adv-x="482" 
d="M393 584.5q51 -94.5 51 -250.5t-51 -251t-152 -95t-152 95t-51 251t51 250.5t152 94.5t152 -94.5zM158.5 544q-26.5 -59 -30.5 -171h226q-4 112 -30 171t-83 59q-56 0 -82.5 -59zM324.5 124q26.5 60 29.5 174h-226q4 -114 30.5 -174t82.5 -60q57 0 83.5 60z" />
    <glyph glyph-name="iota" unicode="&#x3b9;" horiz-adv-x="222" 
d="M62 483h86v-368q0 -51 37 -51q7 0 17 2l6 -73q-17 -5 -42 -5q-104 0 -104 114v381z" />
    <glyph glyph-name="kappa" unicode="&#x3ba;" horiz-adv-x="447" 
d="M211 210l-63 -83v-127h-86v483h86v-250l185 250h101l-164 -217l165 -266h-101z" />
    <glyph glyph-name="lambda" unicode="&#x3bb;" horiz-adv-x="419" 
d="M173.5 656q31.5 -22 49.5 -77l192 -579h-91l-115 380l-113 -380h-92l161 492l-23 66q-9 25 -22 35t-34 10q-18 0 -31 -7l-14 76q9 3 24 5t27 2q50 -1 81.5 -23z" />
    <glyph glyph-name="uni03BC" unicode="&#x3bc;" horiz-adv-x="487" 
d="M62 -184v667h86v-338q0 -42 19.5 -62t55.5 -20q31 0 59 20.5t45 50.5v349h85v-368q0 -51 37 -51q7 0 17 2l6 -73q-17 -5 -41 -5q-87 0 -101 85q-19 -38 -50 -61.5t-66 -23.5q-47 0 -66 30v-202h-86z" />
    <glyph glyph-name="nu" unicode="&#x3bd;" horiz-adv-x="419" 
d="M4 483h92l117 -392q46 86 72 191t26 201h85q0 -118 -40.5 -248.5t-106.5 -234.5h-86z" />
    <glyph glyph-name="xi" unicode="&#x3be;" horiz-adv-x="407" 
d="M72 275q34 42 81 55q-45 10 -75 45.5t-30 85.5q0 40 24 75.5t64 55.5h-82v75h308v-75h-151q-34 -14 -55 -44t-21 -64q0 -50 32 -77.5t81 -27.5h108v-75h-108q-54 0 -87.5 -29t-33.5 -88q0 -50 35.5 -80.5t104.5 -30.5q108 0 108 -95q0 -27 -11.5 -64t-32.5 -74h-86
q17 27 32 64.5t15 59.5q0 17 -9.5 25t-31.5 8q-101 0 -157 45.5t-56 125.5q0 62 34 104z" />
    <glyph glyph-name="omicron" unicode="&#x3bf;" horiz-adv-x="482" 
d="M131 22.5q-46 34.5 -69.5 92t-23.5 127.5q0 69 23.5 127t69.5 92t110 34t110 -34t69.5 -92t23.5 -127q0 -70 -23.5 -127.5t-69.5 -92t-110 -34.5t-110 34.5zM326 115q29 51 29 127q0 75 -29 126t-85 51q-55 0 -84 -51t-29 -126t29 -126.5t84 -51.5q56 0 85 51z" />
    <glyph glyph-name="pi" unicode="&#x3c0;" horiz-adv-x="508" 
d="M343 408h-179v-408h-85v408h-64v75h478v-75h-64v-408h-86v408z" />
    <glyph glyph-name="rho" unicode="&#x3c1;" horiz-adv-x="485" 
d="M148 -184h-86v426q0 70 22 127.5t65.5 91.5t104.5 34t105 -33.5t66.5 -91t22.5 -128.5q0 -116 -47 -185t-128 -69q-37 0 -70.5 20.5t-54.5 59.5v-252zM332 368.5q-27 50.5 -79 50.5t-78.5 -51t-26.5 -126v-105q14 -30 42.5 -51.5t58.5 -21.5q53 0 81.5 50t28.5 128
q0 76 -27 126.5z" />
    <glyph glyph-name="sigma1" unicode="&#x3c2;" horiz-adv-x="402" 
d="M63.5 371.5q25.5 57.5 72 90.5t108.5 33q92 0 143 -65l-45 -58q-36 47 -90 47q-59 0 -92 -50.5t-33 -126.5q0 -78 36.5 -122t100.5 -44q58 0 84.5 -21.5t26.5 -66.5q0 -29 -12 -69t-32 -76h-83q17 27 32 65t15 60q0 18 -10.5 25t-32.5 7q-64 0 -112.5 29t-75 84
t-26.5 129q0 72 25.5 129.5z" />
    <glyph glyph-name="sigma" unicode="&#x3c3;" horiz-adv-x="482" 
d="M132 22q-46 34 -70 92t-24 128q0 66 24 121t73 87.5t119 32.5h209v-76h-95q36 -36 53.5 -81t17.5 -103q0 -63 -22.5 -116.5t-67 -86t-108.5 -32.5q-63 0 -109 34zM254 407q-64 0 -95 -48t-31 -117q0 -75 29 -126.5t84 -51.5q56 0 85 50t29 119q0 58 -19 103.5t-53 70.5
h-29z" />
    <glyph glyph-name="tau" unicode="&#x3c4;" horiz-adv-x="376" 
d="M145 408h-125v75h336v-75h-126v-289q0 -55 39 -55q12 0 22.5 4.5t16.5 12.5l23 -64q-29 -29 -82 -29q-104 0 -104 114v306z" />
    <glyph glyph-name="upsilon" unicode="&#x3c5;" horiz-adv-x="478" 
d="M62 483h86v-297q0 -58 22.5 -90t66.5 -32q57 0 85.5 52.5t28.5 135.5q0 117 -60 209l78 34q71 -110 71 -243q0 -75 -23 -135t-69 -94.5t-111 -34.5q-85 0 -130 53t-45 145v297z" />
    <glyph glyph-name="phi" unicode="&#x3c6;" horiz-adv-x="656" 
d="M555 69.5q-62 -68.5 -184 -79.5v-174h-86v174q-122 11 -184.5 81t-62.5 179q0 86 42 148t116 97l38 -67q-106 -52 -106 -178q0 -75 37.5 -124t119.5 -60v429h42q97 0 162 -33t96.5 -90t31.5 -130q0 -104 -62 -172.5zM490.5 124.5q37.5 47.5 37.5 117.5q0 73 -39.5 120.5
t-117.5 53.5v-349q82 10 119.5 57.5z" />
    <glyph glyph-name="chi" unicode="&#x3c7;" horiz-adv-x="415" 
d="M208 73l-107 -257h-92l146 340l-138 327h92l99 -243l97 243h93l-138 -327l146 -340h-92z" />
    <glyph glyph-name="psi" unicode="&#x3c8;" horiz-adv-x="656" 
d="M594 483v-260q0 -105 -57.5 -164t-165.5 -69v-174h-86v174q-108 10 -165.5 69t-57.5 164v260h86v-260q0 -140 137 -156v600h86v-600q137 18 137 156v260h86z" />
    <glyph glyph-name="omega" unicode="&#x3c9;" horiz-adv-x="707" 
d="M405.5 23.5q-37.5 35.5 -52.5 94.5q-15 -59 -52 -94.5t-93 -35.5q-53 0 -91.5 34t-58.5 92t-20 128q0 79 27.5 148.5t76.5 104.5l62 -50q-40 -32 -58 -87t-18 -117q0 -75 23 -126t68 -51q46 0 69 51t23 127v123h85v-123q0 -76 23 -127t69 -51q45 0 68 51t23 127
q0 61 -18 116t-59 87l62 50q49 -35 76.5 -104.5t27.5 -148.5q0 -70 -19.5 -128t-58 -92t-91.5 -34q-56 0 -93.5 35.5z" />
    <glyph glyph-name="iotadieresis" unicode="&#x3ca;" horiz-adv-x="222" 
d="M62 483h86v-368q0 -51 37 -51q7 0 17 2l6 -73q-17 -5 -42 -5q-104 0 -104 114v381zM-13 569.5q-15 14.5 -15 35.5t15 36t36 15t35.5 -15t14.5 -36t-14.5 -35.5t-35.5 -14.5t-36 14.5zM165 569.5q-15 14.5 -15 35.5t15 36t35 15q21 0 36 -15t15 -36t-15 -35.5t-36 -14.5
q-20 0 -35 14.5z" />
    <glyph glyph-name="upsilondieresis" unicode="&#x3cb;" horiz-adv-x="478" 
d="M62 483h86v-297q0 -58 22.5 -90t66.5 -32q57 0 85.5 52.5t28.5 135.5q0 117 -60 209l78 34q71 -110 71 -243q0 -75 -23 -135t-69 -94.5t-111 -34.5q-85 0 -130 53t-45 145v297zM114 569.5q-15 14.5 -15 35.5t15 36t36 15t35.5 -15t14.5 -36t-14.5 -35.5t-35.5 -14.5
t-36 14.5zM292 569.5q-15 14.5 -15 35.5t15 36t35 15q21 0 36 -15t15 -36t-15 -35.5t-36 -14.5q-20 0 -35 14.5z" />
    <glyph glyph-name="omicrontonos" unicode="&#x3cc;" horiz-adv-x="482" 
d="M131 22.5q-46 34.5 -69.5 92t-23.5 127.5q0 69 23.5 127t69.5 92t110 34t110 -34t69.5 -92t23.5 -127q0 -70 -23.5 -127.5t-69.5 -92t-110 -34.5t-110 34.5zM326 115q29 51 29 127q0 75 -29 126t-85 51q-55 0 -84 -51t-29 -126t29 -126.5t84 -51.5q56 0 85 51zM231 765
h82l-60 -202h-41z" />
    <glyph glyph-name="upsilontonos" unicode="&#x3cd;" horiz-adv-x="478" 
d="M62 483h86v-297q0 -58 22.5 -90t66.5 -32q57 0 85.5 52.5t28.5 135.5q0 117 -60 209l78 34q71 -110 71 -243q0 -75 -23 -135t-69 -94.5t-111 -34.5q-85 0 -130 53t-45 145v297zM229 765h82l-60 -202h-41z" />
    <glyph glyph-name="omegatonos" unicode="&#x3ce;" horiz-adv-x="707" 
d="M405.5 23.5q-37.5 35.5 -52.5 94.5q-15 -59 -52 -94.5t-93 -35.5q-53 0 -91.5 34t-58.5 92t-20 128q0 79 27.5 148.5t76.5 104.5l62 -50q-40 -32 -58 -87t-18 -117q0 -75 23 -126t68 -51q46 0 69 51t23 127v123h85v-123q0 -76 23 -127t69 -51q45 0 68 51t23 127
q0 61 -18 116t-59 87l62 50q49 -35 76.5 -104.5t27.5 -148.5q0 -70 -19.5 -128t-58 -92t-91.5 -34q-56 0 -93.5 35.5zM343 765h82l-60 -202h-41z" />
    <glyph glyph-name="uni0401" unicode="&#x401;" horiz-adv-x="466" 
d="M67 667h354v-84h-259v-201h252v-84h-252v-214h259v-84h-354v667zM119 736.5q-15 14.5 -15 35.5t15 36t36 15t35.5 -15t14.5 -36t-14.5 -35.5t-35.5 -14.5t-36 14.5zM297 736.5q-15 14.5 -15 35.5t15 36t35 15q21 0 36 -15t15 -36t-15 -35.5t-36 -14.5q-20 0 -35 14.5z
" />
    <glyph glyph-name="uni0402" unicode="&#x402;" horiz-adv-x="631" 
d="M470.5 102q28.5 29 28.5 86v23q0 58 -32.5 92t-91.5 34q-53 0 -101 -15l1 -322h-96v583h-155v84h406v-84h-156v-177q60 15 112 15q67 0 114 -28t70.5 -76t23.5 -106v-23q0 -101 -56.5 -150.5t-144.5 -49.5v85q49 0 77.5 29z" />
    <glyph glyph-name="uni0403" unicode="&#x403;" horiz-adv-x="457" 
d="M67 667h354v-84h-259v-583h-95v667zM188 723l111 144h83l-134 -144h-60z" />
    <glyph glyph-name="uni0404" unicode="&#x404;" horiz-adv-x="540" 
d="M383 99.5q32 26.5 50 71.5l80 -36q-31 -66 -80 -106.5t-125 -40.5q-80 0 -140 44t-92.5 122.5t-32.5 178.5t32.5 178.5t92.5 122.5t140 44q135 0 204 -139l-79 -36q-20 42 -52 66t-73 24q-67 0 -111 -58t-54 -153h270v-84h-271q8 -101 52.5 -163t113.5 -62q43 0 75 26.5z
" />
    <glyph glyph-name="uni0405" unicode="&#x405;" horiz-adv-x="478" 
d="M75 146q28 -32 69 -52.5t88 -20.5q55 0 84.5 28.5t29.5 70.5q0 31 -16.5 53.5t-42 38t-68.5 35.5q-57 26 -91 47t-58.5 58t-24.5 93q0 51 25.5 92.5t71 65t103.5 23.5q56 0 103 -18.5t81 -52.5l-48 -72q-27 29 -63 43.5t-76 14.5q-44 0 -72 -25t-28 -66q0 -27 15.5 -46.5
t39 -33t65.5 -33.5q57 -26 93 -49.5t61.5 -63t25.5 -98.5q0 -53 -23.5 -96t-70.5 -68.5t-115 -25.5q-66 0 -118 22t-89 62z" />
    <glyph glyph-name="uni0406" unicode="&#x406;" horiz-adv-x="229" 
d="M67 667h95v-667h-95v667z" />
    <glyph glyph-name="uni0407" unicode="&#x407;" horiz-adv-x="229" 
d="M67 667h95v-667h-95v667zM-10 736.5q-15 14.5 -15 35.5t15 36t36 15t35.5 -15t14.5 -36t-14.5 -35.5t-35.5 -14.5t-36 14.5zM168 736.5q-15 14.5 -15 35.5t15 36t35 15q21 0 36 -15t15 -36t-15 -35.5t-36 -14.5q-20 0 -35 14.5z" />
    <glyph glyph-name="uni0408" unicode="&#x408;" horiz-adv-x="404" 
d="M48 120q40 -47 93 -47q48 0 74.5 28t26.5 79v487h95v-490q0 -94 -51 -141.5t-137 -47.5t-141 58z" />
    <glyph glyph-name="uni0409" unicode="&#x409;" horiz-adv-x="855" 
d="M79 91q21 18 36 70.5t25 155.5l31 350h346v-259h120q61 0 104 -27.5t64.5 -74t21.5 -102.5t-21.5 -102.5t-64.5 -74t-104 -27.5h-215v583h-164l-25 -273q-12 -134 -39.5 -204.5t-68 -94t-100.5 -23.5v85q33 0 54 18zM517 84h109q47 0 75 33t28 87t-28 87t-75 33h-109
v-240z" />
    <glyph glyph-name="uni040A" unicode="&#x40a;" horiz-adv-x="855" 
d="M162 667v-282h260v282h95v-282h126q59 0 100.5 -26t62.5 -70t21 -97t-21 -96.5t-62.5 -69.5t-100.5 -26h-221v301h-260v-301h-95v667h95zM703 114q26 30 26 79t-26 78.5t-71 29.5h-115v-217h115q45 0 71 30z" />
    <glyph glyph-name="uni040B" unicode="&#x40b;" horiz-adv-x="641" 
d="M464 302q-30 35 -89 35q-53 0 -101 -15l1 -322h-96v583h-155v84h406v-84h-156v-177q60 15 112 15q100 0 151.5 -60.5t51.5 -158.5v-202h-95v202q0 65 -30 100z" />
    <glyph glyph-name="uni040C" unicode="&#x40c;" horiz-adv-x="522" 
d="M215 285l-53 -79v-206h-95v667h95v-334l220 334h112l-220 -316l238 -351h-114zM214 723l111 144h83l-134 -144h-60z" />
    <glyph glyph-name="uni040E" unicode="&#x40e;" horiz-adv-x="510" 
d="M508 667l-233 -564q-26 -59 -62.5 -87t-96.5 -28q-33 0 -62.5 10.5t-48.5 27.5l31 78q32 -30 72 -30q29 0 46.5 15t34.5 52l15 41l-202 485h105l148 -374l149 374h104zM172 730q-39 20 -65 55l42 33q17 -25 45.5 -40t60.5 -15q33 0 61 14.5t45 40.5l42 -33
q-26 -35 -64.5 -55t-83.5 -20q-44 0 -83 20z" />
    <glyph glyph-name="uni040F" unicode="&#x40f;" horiz-adv-x="583" 
d="M517 0h-178v-128h-94v128h-178v667h95v-583h260v583h95v-667z" />
    <glyph glyph-name="uni0410" unicode="&#x410;" horiz-adv-x="523" 
d="M376 141h-229l-39 -141h-103l199 667h114l200 -667h-103zM167 225h189l-95 339z" />
    <glyph glyph-name="uni0411" unicode="&#x411;" horiz-adv-x="500" 
d="M431 583h-269v-175h120q61 0 104 -27.5t65 -74t22 -102.5t-22 -102.5t-65 -74t-104 -27.5h-215v667h364v-84zM162 84h109q48 0 76 33t28 87t-28 87t-76 33h-109v-240z" />
    <glyph glyph-name="uni0412" unicode="&#x412;" horiz-adv-x="528" 
d="M67 667h237q79 0 123.5 -47t44.5 -123q0 -61 -28.5 -100.5t-74.5 -52.5q48 -7 81 -55t33 -109q0 -82 -44.5 -131t-127.5 -49h-244v667zM284 382q45 0 67.5 27.5t22.5 72.5t-22.5 73t-67.5 28h-122v-201h122zM288 84q47 0 72 28t25 79q0 46 -25 76.5t-72 30.5h-126v-214
h126z" />
    <glyph glyph-name="uni0413" unicode="&#x413;" horiz-adv-x="457" 
d="M67 667h354v-84h-259v-583h-95v667z" />
    <glyph glyph-name="uni0414" unicode="&#x414;" horiz-adv-x="597" 
d="M79.5 97q20.5 17 35.5 69.5t25 158.5l31 342h346v-583h59v-207h-95v123h-363v-123h-94v198q35 5 55.5 22zM422 84v499h-164l-24 -265q-9 -89 -28.5 -145.5t-50.5 -88.5h267z" />
    <glyph glyph-name="uni0415" unicode="&#x415;" horiz-adv-x="466" 
d="M67 667h354v-84h-259v-201h252v-84h-252v-214h259v-84h-354v667z" />
    <glyph glyph-name="uni0416" unicode="&#x416;" horiz-adv-x="759" 
d="M750 0h-114l-183 285l-26 -37v-248h-95v248l-26 37l-183 -285h-114l238 351l-220 316h112l193 -289v289h95v-289l193 289h112l-221 -316z" />
    <glyph glyph-name="uni0417" unicode="&#x417;" horiz-adv-x="498" 
d="M87 156q24 -38 63.5 -60.5t85.5 -22.5q60 0 90.5 31t30.5 85q0 56 -34.5 83t-93.5 27h-105v84h101q55 0 88.5 26t33.5 76q0 52 -31.5 79.5t-84.5 27.5q-40 0 -76 -20t-62 -55l-58 54q33 49 87 77.5t118 28.5q90 0 147 -46.5t57 -131.5q0 -59 -36.5 -101t-90.5 -54
q35 -5 66.5 -26t50.5 -56.5t19 -80.5q0 -56 -26 -100t-74.5 -68.5t-112.5 -24.5q-71 0 -128 31t-86 79z" />
    <glyph glyph-name="uni0418" unicode="&#x418;" horiz-adv-x="582" 
d="M162 667v-465l257 465h96v-667h-95v476l-262 -476h-91v667h95z" />
    <glyph glyph-name="uni0419" unicode="&#x419;" horiz-adv-x="582" 
d="M162 667v-465l257 465h96v-667h-95v476l-262 -476h-91v667h95zM207 730q-39 20 -65 55l42 33q17 -25 45.5 -40t60.5 -15q33 0 61 14.5t45 40.5l42 -33q-26 -35 -64.5 -55t-83.5 -20q-44 0 -83 20z" />
    <glyph glyph-name="uni041A" unicode="&#x41a;" horiz-adv-x="522" 
d="M215 285l-53 -79v-206h-95v667h95v-334l220 334h112l-220 -316l238 -351h-114z" />
    <glyph glyph-name="uni041B" unicode="&#x41b;" horiz-adv-x="583" 
d="M79 91q21 18 36 70.5t25 155.5l31 350h346v-667h-96v583h-163l-25 -273q-12 -134 -39.5 -204.5t-68 -94t-100.5 -23.5v85q33 0 54 18z" />
    <glyph glyph-name="uni041C" unicode="&#x41c;" horiz-adv-x="698" 
d="M537 492l-169 -492h-38l-168 492v-492h-95v667h131l151 -440l153 440h129v-667h-94v492z" />
    <glyph glyph-name="uni041D" unicode="&#x41d;" horiz-adv-x="583" 
d="M421 301h-259v-301h-95v667h95v-282h259v282h96v-667h-96v301z" />
    <glyph glyph-name="uni041E" unicode="&#x41e;" horiz-adv-x="606" 
d="M73.5 509.5q30.5 78.5 89.5 123.5t139 45q81 0 140 -45t90 -123.5t31 -176.5t-31 -176.5t-90 -123.5t-140 -45q-80 0 -139 45t-89.5 123.5t-30.5 176.5t30.5 176.5zM422 520q-43 73 -120 73q-76 0 -119 -73t-43 -187q0 -113 43 -186.5t119 -73.5q51 0 88 34t56 93.5
t19 132.5q0 114 -43 187z" />
    <glyph glyph-name="uni041F" unicode="&#x41f;" horiz-adv-x="583" 
d="M421 583h-259v-583h-95v667h450v-667h-96v583z" />
    <glyph glyph-name="uni0420" unicode="&#x420;" horiz-adv-x="500" 
d="M67 667h215q61 0 104 -27.5t65 -74t22 -102.5t-22 -102.5t-65 -74t-104 -27.5h-120v-259h-95v667zM347 550q-28 33 -76 33h-109v-240h109q48 0 76 33t28 87t-28 87z" />
    <glyph glyph-name="uni0421" unicode="&#x421;" horiz-adv-x="540" 
d="M168 32q-60 44 -92.5 122.5t-32.5 178.5t32.5 178.5t92.5 122.5t140 44q135 0 204 -139l-79 -36q-20 42 -52 66t-73 24q-51 0 -89 -33.5t-58.5 -92.5t-20.5 -134t20.5 -134t58.5 -92.5t89 -33.5q43 0 75 26.5t50 71.5l80 -36q-31 -66 -80 -106.5t-125 -40.5
q-80 0 -140 44z" />
    <glyph glyph-name="uni0422" unicode="&#x422;" horiz-adv-x="454" 
d="M179 583h-155v84h406v-84h-156v-583h-95v583z" />
    <glyph glyph-name="uni0423" unicode="&#x423;" horiz-adv-x="510" 
d="M508 667l-233 -564q-26 -59 -62.5 -87t-96.5 -28q-33 0 -62.5 10.5t-48.5 27.5l31 78q32 -30 72 -30q29 0 46.5 15t34.5 52l15 41l-202 485h105l148 -374l149 374h104z" />
    <glyph glyph-name="uni0424" unicode="&#x424;" horiz-adv-x="712" 
d="M601 150.5q-69 -72.5 -197 -84.5v-66h-96v66q-128 12 -196.5 84.5t-68.5 182.5t68.5 182.5t196.5 84.5v67h96v-67q128 -12 197 -84.5t69 -182.5t-69 -182.5zM183 212q43 -49 125 -60v362q-82 -11 -125 -59.5t-43 -121.5q0 -72 43 -121zM529 212q43 49 43 121
q0 73 -43 121.5t-125 59.5v-362q82 11 125 60z" />
    <glyph glyph-name="uni0425" unicode="&#x425;" horiz-adv-x="522" 
d="M261 265l-146 -265h-110l198 341l-187 326h110l135 -251l134 251h111l-186 -326l197 -341h-110z" />
    <glyph glyph-name="uni0426" unicode="&#x426;" horiz-adv-x="597" 
d="M67 0v667h95v-583h260v583h95v-583h59v-207h-95v123h-414z" />
    <glyph glyph-name="uni0427" unicode="&#x427;" horiz-adv-x="527" 
d="M175 378q30 -35 89 -35q53 0 101 15v309h95v-667h-95v274q-60 -15 -112 -15q-100 0 -151 60.5t-51 158.5v189h94v-189q0 -65 30 -100z" />
    <glyph glyph-name="uni0428" unicode="&#x428;" horiz-adv-x="800" 
d="M733 0h-666v667h95v-583h191v583h94v-583h191v583h95v-667z" />
    <glyph glyph-name="uni0429" unicode="&#x429;" horiz-adv-x="814" 
d="M734 84h60v-207h-95v123h-631v667h95v-583h191v583h95v-583h190v583h95v-583z" />
    <glyph glyph-name="uni042A" unicode="&#x42a;" horiz-adv-x="612" 
d="M179 583h-155v84h250v-259h120q61 0 104 -27.5t65 -74t22 -102.5t-22 -102.5t-65 -74t-104 -27.5h-215v583zM274 84h110q47 0 75 33t28 87t-28 87t-75 33h-110v-240z" />
    <glyph glyph-name="uni042B" unicode="&#x42b;" horiz-adv-x="699" 
d="M162 408h120q61 0 104 -27.5t65 -74t22 -102.5t-22 -102.5t-65 -74t-104 -27.5h-215v667h95v-259zM537 667h94v-667h-94v667zM162 84h109q48 0 76 33t28 87t-28 87t-76 33h-109v-240z" />
    <glyph glyph-name="uni042C" unicode="&#x42c;" horiz-adv-x="500" 
d="M162 408h120q61 0 104 -27.5t65 -74t22 -102.5t-22 -102.5t-65 -74t-104 -27.5h-215v667h95v-259zM162 84h109q48 0 76 33t28 87t-28 87t-76 33h-109v-240z" />
    <glyph glyph-name="uni042D" unicode="&#x42d;" horiz-adv-x="540" 
d="M372 634q60 -44 92.5 -122.5t32.5 -178.5t-32.5 -178.5t-92.5 -122.5t-140 -44q-76 0 -125 40.5t-80 106.5l80 36q18 -45 50 -71.5t75 -26.5q70 0 114.5 62t51.5 163h-271v84h270q-10 95 -54 153t-111 58q-41 0 -73 -24t-52 -66l-79 36q70 139 204 139q80 0 140 -44z" />
    <glyph glyph-name="uni042E" unicode="&#x42e;" horiz-adv-x="820" 
d="M657 633q59 -45 90 -123.5t31 -176.5t-31 -176.5t-90 -123.5t-140 -45q-76 0 -132.5 40.5t-88.5 111t-37 161.5h-97v-301h-95v667h95v-282h98q12 131 80 212t177 81q81 0 140 -45zM605 107q37 34 56 93.5t19 132.5q0 114 -43 187t-120 73q-76 0 -119 -73t-43 -187
q0 -113 43 -186.5t119 -73.5q51 0 88 34z" />
    <glyph glyph-name="uni042F" unicode="&#x42f;" horiz-adv-x="521" 
d="M177 275q-54 12 -91.5 59.5t-37.5 129.5q0 61 24 107t67 71t98 25h217v-667h-95v259h-89l-121 -259h-107zM359 583h-109q-48 0 -76 -33t-28 -87t28 -87t76 -33h109v240z" />
    <glyph glyph-name="uni0430" unicode="&#x430;" horiz-adv-x="459" 
d="M311 50q-22 -30 -55.5 -46t-71.5 -16q-40 0 -73.5 19.5t-53.5 56t-20 85.5t20 85t53.5 54.5t73.5 18.5q39 0 72.5 -15t54.5 -45v77q0 47 -25 72.5t-71 25.5q-65 0 -121 -57l-35 60q34 35 78 52.5t92 17.5q78 0 123 -39.5t45 -121.5v-334h-86v50zM311 188q-15 27 -41 42.5
t-56 15.5q-41 0 -65.5 -28t-24.5 -71t24.5 -71t65.5 -28q30 0 56 15.5t41 42.5v82z" />
    <glyph glyph-name="uni0431" unicode="&#x431;" horiz-adv-x="485" 
d="M58.5 460.5q19.5 71.5 64 108t124.5 50.5q54 10 75.5 20.5t21.5 27.5h84q0 -56 -45.5 -82t-115.5 -38q-76 -13 -111.5 -46t-43.5 -90q21 37 58 60.5t85 23.5q58 0 101 -34.5t65 -92t22 -125.5q0 -69 -23.5 -127t-69 -93t-109.5 -35q-97 0 -149.5 76t-52.5 200
q0 125 19.5 196.5zM325 368q-29 51 -84 51t-84.5 -51t-29.5 -125q0 -76 29.5 -127.5t84.5 -51.5t84 51.5t29 127.5q0 74 -29 125z" />
    <glyph glyph-name="uni0432" unicode="&#x432;" 
d="M62 483h212q67 0 103.5 -34t36.5 -90q0 -42 -22 -70t-58 -39q39 -10 64 -43.5t25 -75.5q0 -60 -36.5 -95.5t-107.5 -35.5h-217v483zM308.5 393.5q-16.5 17.5 -50.5 17.5h-110v-127h110q34 0 50.5 17t16.5 46t-16.5 46.5zM316 191.5q-19 20.5 -54 20.5h-114v-140h114
q36 0 54.5 18t18.5 51q0 30 -19 50.5z" />
    <glyph glyph-name="uni0433" unicode="&#x433;" horiz-adv-x="370" 
d="M148 408v-408h-86v483h288v-75h-202z" />
    <glyph glyph-name="uni0434" unicode="&#x434;" horiz-adv-x="486" 
d="M55.5 84.5q14.5 12.5 25 47t16.5 99.5l22 252h294v-408h53v-198h-86v123h-276v-123h-86v191q23 4 37.5 16.5zM126 75h201v333h-129l-16 -184q-10 -106 -56 -149z" />
    <glyph glyph-name="uni0435" unicode="&#x435;" horiz-adv-x="471" 
d="M62.5 370q24.5 58 70.5 91.5t107 33.5q93 0 144.5 -72t51.5 -184v-25h-310q3 -69 38 -112t95 -43q30 0 60 15t51 41l44 -52q-31 -36 -73 -55.5t-90 -19.5q-64 0 -112.5 32t-74.5 90t-26 132q0 70 24.5 128zM156 378.5q-28 -45.5 -31 -103.5h227q-1 59 -29 104t-84 45
q-55 0 -83 -45.5z" />
    <glyph glyph-name="uni0436" unicode="&#x436;" horiz-adv-x="606" 
d="M594 0h-101l-123 210l-24 -31v-179h-86v179l-24 31l-124 -210h-101l166 266l-164 217h100l147 -195v195h86v-195l146 195h101l-164 -217z" />
    <glyph glyph-name="uni0437" unicode="&#x437;" horiz-adv-x="435" 
d="M65 118q24 -29 60 -44.5t80 -15.5q48 0 76 21.5t28 57.5q0 73 -109 73h-90v69h88q48 0 76 19.5t28 55.5q0 32 -29 51.5t-75 19.5q-80 0 -125 -58l-46 50q63 78 169 78q87 0 139.5 -35t52.5 -96q0 -44 -32 -76.5t-77 -40.5q46 -6 81.5 -37t35.5 -80q0 -62 -50.5 -102
t-138.5 -40q-62 0 -109 21t-77 58z" />
    <glyph glyph-name="uni0438" unicode="&#x438;" 
d="M62 483h86v-327l177 327h88v-483h-86v336l-181 -336h-84v483z" />
    <glyph glyph-name="uni0439" unicode="&#x439;" 
d="M62 483h86v-327l177 327h88v-483h-86v336l-181 -336h-84v483zM154 563q-39 20 -65 55l42 33q17 -25 45.5 -40t60.5 -15q33 0 61 14.5t45 40.5l42 -33q-26 -35 -64.5 -55t-83.5 -20q-44 0 -83 20z" />
    <glyph glyph-name="uni043A" unicode="&#x43a;" horiz-adv-x="447" 
d="M211 210l-63 -83v-127h-86v483h86v-250l185 250h101l-164 -217l165 -266h-101z" />
    <glyph glyph-name="uni043B" unicode="&#x43b;" 
d="M69 97.5q19 36.5 28 133.5l22 252h294v-483h-86v408h-129l-16 -184q-11 -131 -51 -183.5t-113 -52.5v73q32 0 51 36.5z" />
    <glyph glyph-name="uni043C" unicode="&#x43c;" horiz-adv-x="577" 
d="M430 340l-124 -340h-35l-123 340v-340h-86v483h111l116 -316l115 316h111v-483h-85v340z" />
    <glyph glyph-name="uni043D" unicode="&#x43d;" 
d="M62 483h86v-196h179v196h86v-483h-86v212h-179v-212h-86v483z" />
    <glyph glyph-name="uni043E" unicode="&#x43e;" horiz-adv-x="482" 
d="M131 22.5q-46 34.5 -69.5 92t-23.5 127.5q0 69 23.5 127t69.5 92t110 34t110 -34t69.5 -92t23.5 -127q0 -70 -23.5 -127.5t-69.5 -92t-110 -34.5t-110 34.5zM326 115q29 51 29 127q0 75 -29 126t-85 51q-55 0 -84 -51t-29 -126t29 -126.5t84 -51.5q56 0 85 51z" />
    <glyph glyph-name="uni043F" unicode="&#x43f;" 
d="M327 408h-179v-408h-86v483h351v-483h-86v408z" />
    <glyph glyph-name="uni0440" unicode="&#x440;" horiz-adv-x="485" 
d="M62 -184v667h86v-66q21 36 54.5 57t70.5 21q81 0 128 -68.5t47 -184.5t-47 -185t-128 -69q-37 0 -70.5 20.5t-54.5 59.5v-252h-86zM330.5 369q-28.5 50 -81.5 50q-30 0 -58.5 -21t-42.5 -51v-210q14 -30 42.5 -51.5t58.5 -21.5q53 0 81.5 50t28.5 128q0 77 -28.5 127z
" />
    <glyph glyph-name="uni0441" unicode="&#x441;" horiz-adv-x="411" 
d="M63.5 371.5q25.5 57.5 72 90.5t108.5 33q92 0 143 -65l-45 -58q-36 47 -90 47q-59 0 -92 -50.5t-33 -126.5t33 -127t92 -51q53 0 90 47l45 -58q-50 -65 -143 -65q-62 0 -108.5 33t-72 91t-25.5 130t25.5 129.5z" />
    <glyph glyph-name="uni0442" unicode="&#x442;" horiz-adv-x="347" 
d="M130 408h-110v75h307v-75h-111v-408h-86v408z" />
    <glyph glyph-name="uni0443" unicode="&#x443;" horiz-adv-x="419" 
d="M86 -120q21 0 34 10t22 34l23 66l-161 493h92l113 -379l115 379h91l-192 -579q-18 -55 -49.5 -77.5t-81.5 -22.5q-12 0 -27 2t-24 5l14 76q13 -7 31 -7z" />
    <glyph glyph-name="uni0444" unicode="&#x444;" horiz-adv-x="700" 
d="M307 667h86v-250q18 37 47 57.5t61 20.5q71 0 111 -68.5t40 -184.5t-40 -185t-111 -69q-32 0 -61 20.5t-47 58.5v-251h-86v250q-17 -37 -46 -57.5t-62 -20.5q-70 0 -110.5 68.5t-40.5 184.5t40.5 185t110.5 69q32 0 60.5 -20.5t47.5 -58.5v251zM159.5 114
q23.5 -50 66.5 -50q25 0 47.5 21.5t33.5 51.5v209q-11 30 -34 51.5t-48 21.5q-44 0 -66.5 -49.5t-22.5 -128.5q0 -77 23.5 -127zM541.5 369.5q-22.5 49.5 -66.5 49.5q-25 0 -48 -21t-34 -51v-210q11 -30 34 -51.5t47 -21.5q43 0 66.5 50t23.5 128t-22.5 127.5z" />
    <glyph glyph-name="uni0445" unicode="&#x445;" horiz-adv-x="415" 
d="M208 185l-105 -185h-94l146 246l-138 237h94l97 -175l96 175h94l-138 -237l146 -246h-95z" />
    <glyph glyph-name="uni0446" unicode="&#x446;" horiz-adv-x="486" 
d="M62 0v483h86v-408h179v408h86v-408h53v-198h-86v123h-318z" />
    <glyph glyph-name="uni0447" unicode="&#x447;" horiz-adv-x="462" 
d="M135 335q0 -45 21 -63.5t68 -18.5q25 0 49.5 5.5t40.5 14.5v210h86v-483h-86v206q-20 -13 -52 -21t-64 -8q-80 0 -114 32t-34 99v175h85v-148z" />
    <glyph glyph-name="uni0448" unicode="&#x448;" horiz-adv-x="677" 
d="M614 0h-552v483h86v-408h147v408h86v-408h148v408h85v-483z" />
    <glyph glyph-name="uni0449" unicode="&#x449;" horiz-adv-x="691" 
d="M614 75h57v-198h-85v123h-524v483h86v-408h147v408h86v-408h148v408h85v-408z" />
    <glyph glyph-name="uni044A" unicode="&#x44a;" horiz-adv-x="518" 
d="M130 408h-110v75h196v-183h113q75 0 115 -43t40 -108q0 -64 -40.5 -106.5t-114.5 -42.5h-199v408zM216 72h103q37 0 57 21.5t20 56.5q0 34 -20 56t-57 22h-103v-156z" />
    <glyph glyph-name="uni044B" unicode="&#x44b;" horiz-adv-x="630" 
d="M148 300h112q75 0 115.5 -43t40.5 -108q0 -64 -40.5 -106.5t-115.5 -42.5h-198v483h86v-183zM482 483h86v-483h-86v483zM148 72h103q37 0 57 21.5t20 56.5q0 34 -20 56t-57 22h-103v-156z" />
    <glyph glyph-name="uni044C" unicode="&#x44c;" horiz-adv-x="449" 
d="M148 300h112q75 0 115.5 -43t40.5 -108q0 -64 -40.5 -106.5t-115.5 -42.5h-198v483h86v-183zM148 72h103q37 0 57 21.5t20 56.5q0 34 -20 56t-57 22h-103v-156z" />
    <glyph glyph-name="uni044D" unicode="&#x44d;" horiz-adv-x="411" 
d="M275 462q47 -33 72 -90.5t25 -129.5q0 -73 -25 -130.5t-72 -90.5t-109 -33q-92 0 -142 65l43 54q37 -48 91 -48q52 0 84 41t39 107h-187v75h187q-8 64 -40 103t-83 39q-54 0 -91 -48l-43 54q51 65 142 65q62 0 109 -33z" />
    <glyph glyph-name="uni044E" unicode="&#x44e;" horiz-adv-x="671" 
d="M540.5 461q45.5 -34 69 -91.5t23.5 -127.5t-23.5 -127.5t-69 -92t-110.5 -34.5q-88 0 -140.5 63.5t-60.5 160.5h-81v-212h-86v483h86v-196h82q11 91 63.5 149.5t136.5 58.5q65 0 110.5 -34zM515 115q29 51 29 127q0 75 -29 126t-85 51q-55 0 -84 -51t-29 -126t29 -126.5
t84 -51.5q56 0 85 51z" />
    <glyph glyph-name="uni044F" unicode="&#x44f;" horiz-adv-x="472" 
d="M151 193q-43 10 -71.5 47t-28.5 94q0 65 41.5 107t114.5 42h203v-483h-86v183h-88l-93 -183h-98zM324 411h-107q-37 0 -57.5 -21.5t-20.5 -55.5q0 -36 20 -57.5t58 -21.5h107v156z" />
    <glyph glyph-name="uni0451" unicode="&#x451;" horiz-adv-x="471" 
d="M62.5 370q24.5 58 70.5 91.5t107 33.5q93 0 144.5 -72t51.5 -184v-25h-310q3 -69 38 -112t95 -43q30 0 60 15t51 41l44 -52q-31 -36 -73 -55.5t-90 -19.5q-64 0 -112.5 32t-74.5 90t-26 132q0 70 24.5 128zM156 378.5q-28 -45.5 -31 -103.5h227q-1 59 -29 104t-84 45
q-55 0 -83 -45.5zM115 569.5q-15 14.5 -15 35.5t15 36t36 15t35.5 -15t14.5 -36t-14.5 -35.5t-35.5 -14.5t-36 14.5zM293 569.5q-15 14.5 -15 35.5t15 36t35 15q21 0 36 -15t15 -36t-15 -35.5t-36 -14.5q-20 0 -35 14.5z" />
    <glyph glyph-name="uni0452" unicode="&#x452;" horiz-adv-x="483" 
d="M258 -117q14 -4 25 -4q24 0 38 15.5t14 48.5v393q0 44 -19 63.5t-54 19.5q-33 0 -61.5 -21t-44.5 -51v-347h-86v534h-56v53h56v80h86v-80h135v-53h-135v-118q22 33 60 56t80 23q62 0 93.5 -33.5t31.5 -97.5v-421q0 -68 -32.5 -103.5t-93.5 -35.5q-27 0 -48 6z" />
    <glyph glyph-name="uni0453" unicode="&#x453;" horiz-adv-x="370" 
d="M148 408v-408h-86v483h288v-75h-202zM157 556l111 144h83l-134 -144h-60z" />
    <glyph glyph-name="uni0454" unicode="&#x454;" horiz-adv-x="411" 
d="M343 107l44 -54q-50 -65 -143 -65q-62 0 -108.5 33t-72 91t-25.5 130t25.5 129.5t72 90.5t108.5 33q92 0 143 -65l-44 -54q-36 48 -91 48q-51 0 -82.5 -39t-39.5 -103h187v-75h-187q7 -66 39 -107t83 -41q55 0 91 48z" />
    <glyph glyph-name="uni0455" unicode="&#x455;" horiz-adv-x="394" 
d="M64 117q23 -26 57.5 -43t71.5 -17q40 0 63 19t23 51q0 30 -23.5 47t-72.5 36q-46 17 -74.5 32.5t-49 44.5t-20.5 74q0 57 43 95.5t117 38.5q47 0 86 -16.5t67 -45.5l-38 -59q-18 24 -48.5 38t-65.5 14q-36 0 -58 -17.5t-22 -44.5t21.5 -42t70.5 -35q46 -17 76 -33.5
t51.5 -47t21.5 -77.5q0 -62 -45.5 -101.5t-121.5 -39.5q-110 0 -170 68z" />
    <glyph glyph-name="uni0456" unicode="&#x456;" horiz-adv-x="210" 
d="M65.5 564.5q-16.5 16.5 -16.5 39.5t16.5 39.5t39.5 16.5t39.5 -16.5t16.5 -39.5t-16.5 -39.5t-39.5 -16.5t-39.5 16.5zM62 483h86v-483h-86v483z" />
    <glyph glyph-name="uni0457" unicode="&#x457;" horiz-adv-x="211" 
d="M62 483h86v-483h-86v483zM-19 569.5q-15 14.5 -15 35.5t15 36t36 15t35.5 -15t14.5 -36t-14.5 -35.5t-35.5 -14.5t-36 14.5zM159 569.5q-15 14.5 -15 35.5t15 36t35 15q21 0 36 -15t15 -36t-15 -35.5t-36 -14.5q-20 0 -35 14.5z" />
    <glyph glyph-name="uni0458" unicode="&#x458;" horiz-adv-x="210" 
d="M65.5 564.5q-16.5 16.5 -16.5 39.5t16.5 39.5t39.5 16.5t39.5 -16.5t16.5 -39.5t-16.5 -39.5t-39.5 -16.5t-39.5 16.5zM148 -57q0 -68 -32.5 -103.5t-93.5 -35.5q-26 0 -47 6l11 73q12 -4 24 -4q24 0 38 15.5t14 48.5v540h86v-540z" />
    <glyph glyph-name="uni0459" unicode="&#x459;" horiz-adv-x="715" 
d="M69 97.5q19 36.5 28 133.5l22 252h294v-183h112q75 0 115.5 -43t40.5 -108q0 -64 -40.5 -106.5t-115.5 -42.5h-198v408h-129l-16 -184q-11 -131 -51 -183.5t-113 -52.5v73q32 0 51 36.5zM413 72h103q37 0 57 21.5t20 56.5q0 34 -20 56t-57 22h-103v-156z" />
    <glyph glyph-name="uni045A" unicode="&#x45a;" horiz-adv-x="715" 
d="M62 483h86v-196h179v196h86v-196h116q73 0 112.5 -40.5t39.5 -103.5q0 -61 -39.5 -102t-112.5 -41h-202v212h-179v-212h-86v483zM413 72h106q36 0 55 19.5t19 51.5q0 33 -19 52.5t-55 19.5h-106v-143z" />
    <glyph glyph-name="uni045B" unicode="&#x45b;" horiz-adv-x="483" 
d="M390.5 462.5q30.5 -32.5 30.5 -97.5v-365h-86v338q0 43 -18.5 62t-54.5 19q-32 0 -61 -21t-45 -51v-347h-86v534h-56v53h56v80h86v-80h138v-53h-138v-118q22 32 60.5 55.5t80.5 23.5q63 0 93.5 -32.5z" />
    <glyph glyph-name="uni045C" unicode="&#x45c;" horiz-adv-x="447" 
d="M211 210l-63 -83v-127h-86v483h86v-250l185 250h101l-164 -217l165 -266h-101zM176 556l111 144h83l-134 -144h-60z" />
    <glyph glyph-name="uni045E" unicode="&#x45e;" horiz-adv-x="419" 
d="M86 -120q21 0 34 10t22 34l23 66l-161 493h92l113 -379l115 379h91l-192 -579q-18 -55 -49.5 -77.5t-81.5 -22.5q-12 0 -27 2t-24 5l14 76q13 -7 31 -7zM126 563q-39 20 -65 55l42 33q17 -25 45.5 -40t60.5 -15q33 0 61 14.5t45 40.5l42 -33q-26 -35 -64.5 -55t-83.5 -20
q-44 0 -83 20z" />
    <glyph glyph-name="uni045F" unicode="&#x45f;" 
d="M413 0h-132v-126h-86v126h-133v483h86v-408h179v408h86v-483z" />
    <glyph glyph-name="uni0490" unicode="&#x490;" horiz-adv-x="457" 
d="M67 0v667h259v123h95v-207h-259v-583h-95z" />
    <glyph glyph-name="uni0491" unicode="&#x491;" horiz-adv-x="370" 
d="M62 0v483h202v126h86v-201h-202v-408h-86z" />
    <glyph glyph-name="uni0492" unicode="&#x492;" horiz-adv-x="457" 
d="M162 583v-219h145v-70h-145v-294h-95v294h-52v70h52v303h354v-84h-259z" />
    <glyph glyph-name="uni0493" unicode="&#x493;" horiz-adv-x="370" 
d="M148 408v-133h108v-59h-108v-216h-86v216h-47v59h47v208h288v-75h-202z" />
    <glyph glyph-name="uni049A" unicode="&#x49a;" horiz-adv-x="541" 
d="M530 84v-207h-95v123h-37l-183 285l-53 -79v-206h-95v667h95v-334l220 334h112l-220 -316l181 -267h75z" />
    <glyph glyph-name="uni049B" unicode="&#x49b;" 
d="M465 75v-198h-85v123h-46l-123 210l-63 -83v-127h-86v483h86v-250l185 250h101l-164 -217l118 -191h77z" />
    <glyph glyph-name="uni04B2" unicode="&#x4b2;" horiz-adv-x="551" 
d="M540 84v-207h-95v123h-38l-146 265l-146 -265h-110l198 341l-187 326h110l135 -251l134 251h111l-186 -326l148 -257h72z" />
    <glyph glyph-name="uni04B3" unicode="&#x4b3;" horiz-adv-x="447" 
d="M437 75v-198h-86v123h-40l-103 185l-105 -185h-94l146 246l-138 237h94l97 -175l96 175h94l-138 -237l102 -171h75z" />
    <glyph glyph-name="uni04E8" unicode="&#x4e8;" horiz-adv-x="606" 
d="M442 633q59 -45 90 -123.5t31 -176.5t-31 -176.5t-90 -123.5t-140 -45q-80 0 -139 45t-89.5 123.5t-30.5 176.5t30.5 176.5t89.5 123.5t139 45q81 0 140 -45zM193.5 535q-41.5 -58 -50.5 -153h319q-9 95 -50.5 153t-109.5 58q-67 0 -108.5 -58zM414.5 135.5
q42.5 62.5 48.5 162.5h-321q7 -100 48.5 -162.5t111.5 -62.5t112.5 62.5z" />
    <glyph glyph-name="uni04E9" unicode="&#x4e9;" horiz-adv-x="482" 
d="M351 461q46 -34 69.5 -92t23.5 -127q0 -70 -23.5 -127.5t-69.5 -92t-110 -34.5t-110 34.5t-69.5 92t-23.5 127.5q0 69 23.5 127t69.5 92t110 34t110 -34zM164 378.5q-28 -40.5 -34 -103.5h223q-6 63 -34.5 103.5t-77.5 40.5t-77 -40.5zM319 106q28 42 34 108h-224
q6 -66 34 -108t78 -42t78 42z" />
    <glyph glyph-name="uni1E02" unicode="&#x1e02;" horiz-adv-x="528" 
d="M67 667h237q79 0 123.5 -47t44.5 -123q0 -61 -28.5 -100.5t-74.5 -52.5q48 -7 81 -55t33 -109q0 -82 -44.5 -131t-127.5 -49h-244v667zM284 382q45 0 67.5 27.5t22.5 72.5t-22.5 73t-67.5 28h-122v-201h122zM288 84q47 0 72 28t25 79q0 46 -25 76.5t-72 30.5h-126v-214
h126zM227.5 807q15.5 15 35.5 15q21 0 36 -15t15 -36q0 -22 -15 -36.5t-36 -14.5t-36 15t-15 36t15.5 36z" />
    <glyph glyph-name="uni1E03" unicode="&#x1e03;" horiz-adv-x="486" 
d="M62 667h86v-251q21 38 54.5 58.5t70.5 20.5q81 0 128 -69.5t47 -184.5q0 -116 -47 -184.5t-128 -68.5q-37 0 -70.5 21t-54.5 57v-66h-86v667zM190.5 85q28.5 -21 58.5 -21q54 0 82 49.5t28 127.5t-28 128t-82 50q-30 0 -58.5 -21.5t-42.5 -52.5v-209q14 -30 42.5 -51z
M214.5 807q15.5 15 35.5 15q21 0 36 -15t15 -36q0 -22 -15 -36.5t-36 -14.5t-36 15t-15 36t15.5 36z" />
    <glyph glyph-name="uni1E0A" unicode="&#x1e0a;" horiz-adv-x="573" 
d="M67 667h188q86 0 148 -43t94.5 -118.5t32.5 -172.5t-32 -172.5t-94 -118t-148 -42.5h-189v667zM255 84q85 0 131 69t46 180q0 113 -45.5 181.5t-131.5 68.5h-93v-499h93zM250.5 807q15.5 15 35.5 15q21 0 36 -15t15 -36q0 -22 -15 -36.5t-36 -14.5t-36 15t-15 36t15.5 36
z" />
    <glyph glyph-name="uni1E0B" unicode="&#x1e0b;" horiz-adv-x="486" 
d="M339 66q-22 -36 -55.5 -57t-70.5 -21q-81 0 -128 68.5t-47 184.5q0 115 47 184.5t128 69.5q37 0 70.5 -20.5t55.5 -58.5v251h85v-667h-85v66zM339 346q-14 30 -42.5 51.5t-59.5 21.5q-53 0 -81.5 -50t-28.5 -128q0 -77 28.5 -127t81.5 -50q31 0 59.5 21t42.5 51v210z
M201.5 807q15.5 15 35.5 15q21 0 36 -15t15 -36q0 -22 -15 -36.5t-36 -14.5t-36 15t-15 36t15.5 36z" />
    <glyph glyph-name="uni1E1E" unicode="&#x1e1e;" horiz-adv-x="457" 
d="M67 667h354v-84h-259v-201h252v-84h-252v-298h-95v667zM209.5 807q15.5 15 35.5 15q21 0 36 -15t15 -36q0 -22 -15 -36.5t-36 -14.5t-36 15t-15 36t15.5 36z" />
    <glyph glyph-name="uni1E1F" unicode="&#x1e1f;" horiz-adv-x="264" 
d="M81 408h-63v75h63v52q0 66 34 104t90 38q40 0 68 -15l-19 -66q-14 8 -31 8q-26 0 -41 -18t-15 -51v-52h81v-75h-81v-408h-86v408zM173.5 807q15.5 15 35.5 15q21 0 36 -15t15 -36q0 -22 -15 -36.5t-36 -14.5t-36 15t-15 36t15.5 36z" />
    <glyph glyph-name="uni1E22" unicode="&#x1e22;" horiz-adv-x="583" 
d="M421 301h-259v-301h-95v667h95v-282h259v282h96v-667h-96v301zM255.5 807q15.5 15 35.5 15q21 0 36 -15t15 -36q0 -22 -15 -36.5t-36 -14.5t-36 15t-15 36t15.5 36z" />
    <glyph glyph-name="uni1E23" unicode="&#x1e23;" 
d="M327 338q0 43 -18.5 62t-54.5 19q-32 0 -61 -21t-45 -51v-347h-86v667h86v-251q22 32 60.5 55.5t80.5 23.5q63 0 93.5 -32.5t30.5 -97.5v-365h-86v338zM201.5 807q15.5 15 35.5 15q21 0 36 -15t15 -36q0 -22 -15 -36.5t-36 -14.5t-36 15t-15 36t15.5 36z" />
    <glyph glyph-name="uni1E56" unicode="&#x1e56;" horiz-adv-x="500" 
d="M67 667h215q61 0 104 -27.5t65 -74t22 -102.5t-22 -102.5t-65 -74t-104 -27.5h-120v-259h-95v667zM347 550q-28 33 -76 33h-109v-240h109q48 0 76 33t28 87t-28 87zM214.5 807q15.5 15 35.5 15q21 0 36 -15t15 -36q0 -22 -15 -36.5t-36 -14.5t-36 15t-15 36t15.5 36z" />
    <glyph glyph-name="uni1E57" unicode="&#x1e57;" horiz-adv-x="485" 
d="M62 -184v667h86v-66q21 36 54.5 57t70.5 21q81 0 128 -68.5t47 -184.5t-47 -185t-128 -69q-37 0 -70.5 20.5t-54.5 59.5v-252h-86zM330.5 369q-28.5 50 -81.5 50q-30 0 -58.5 -21t-42.5 -51v-210q14 -30 42.5 -51.5t58.5 -21.5q53 0 81.5 50t28.5 128q0 77 -28.5 127z
M214.5 640q15.5 15 35.5 15q21 0 36 -15t15 -36q0 -22 -15 -36.5t-36 -14.5t-36 15t-15 36t15.5 36z" />
    <glyph glyph-name="uni1E60" unicode="&#x1e60;" horiz-adv-x="478" 
d="M75 146q28 -32 69 -52.5t88 -20.5q55 0 84.5 28.5t29.5 70.5q0 31 -16.5 53.5t-42 38t-68.5 35.5q-57 26 -91 47t-58.5 58t-24.5 93q0 51 25.5 92.5t71 65t103.5 23.5q56 0 103 -18.5t81 -52.5l-48 -72q-27 29 -63 43.5t-76 14.5q-44 0 -72 -25t-28 -66q0 -27 15.5 -46.5
t39 -33t65.5 -33.5q57 -26 93 -49.5t61.5 -63t25.5 -98.5q0 -53 -23.5 -96t-70.5 -68.5t-115 -25.5q-66 0 -118 22t-89 62zM202.5 807q15.5 15 35.5 15q21 0 36 -15t15 -36q0 -22 -15 -36.5t-36 -14.5t-36 15t-15 36t15.5 36z" />
    <glyph glyph-name="uni1E61" unicode="&#x1e61;" horiz-adv-x="394" 
d="M64 117q23 -26 57.5 -43t71.5 -17q40 0 63 19t23 51q0 30 -23.5 47t-72.5 36q-46 17 -74.5 32.5t-49 44.5t-20.5 74q0 57 43 95.5t117 38.5q47 0 86 -16.5t67 -45.5l-38 -59q-18 24 -48.5 38t-65.5 14q-36 0 -58 -17.5t-22 -44.5t21.5 -42t70.5 -35q46 -17 76 -33.5
t51.5 -47t21.5 -77.5q0 -62 -45.5 -101.5t-121.5 -39.5q-110 0 -170 68zM161.5 640q15.5 15 35.5 15q21 0 36 -15t15 -36q0 -22 -15 -36.5t-36 -14.5t-36 15t-15 36t15.5 36z" />
    <glyph glyph-name="uni1E6A" unicode="&#x1e6a;" horiz-adv-x="454" 
d="M179 583h-155v84h406v-84h-156v-583h-95v583zM190.5 807q15.5 15 35.5 15q21 0 36 -15t15 -36q0 -22 -15 -36.5t-36 -14.5t-36 15t-15 36t15.5 36z" />
    <glyph glyph-name="uni1E6B" unicode="&#x1e6b;" horiz-adv-x="273" 
d="M79 102v306h-64v75h64v132h85v-132h81v-75h-81v-289q0 -55 38 -55q26 0 41 17l22 -64q-29 -29 -82 -29q-104 0 -104 114zM89.5 807q15.5 15 35.5 15q21 0 36 -15t15 -36q0 -22 -15 -36.5t-36 -14.5t-36 15t-15 36t15.5 36z" />
    <glyph glyph-name="Wgrave" unicode="&#x1e80;" horiz-adv-x="730" 
d="M365 503l-102 -503h-100l-150 667h102l103 -521l108 521h78l109 -521l102 521h102l-149 -667h-101zM220 867h83l111 -144h-60z" />
    <glyph glyph-name="wgrave" unicode="&#x1e81;" horiz-adv-x="652" 
d="M326 371l-98 -371h-89l-129 483h89l89 -369l97 369h80l98 -369l90 369h90l-130 -483h-89zM181 700h83l111 -144h-60z" />
    <glyph glyph-name="Wacute" unicode="&#x1e82;" horiz-adv-x="730" 
d="M365 503l-102 -503h-100l-150 667h102l103 -521l108 521h78l109 -521l102 521h102l-149 -667h-101zM317 723l111 144h83l-134 -144h-60z" />
    <glyph glyph-name="wacute" unicode="&#x1e83;" horiz-adv-x="652" 
d="M326 371l-98 -371h-89l-129 483h89l89 -369l97 369h80l98 -369l90 369h90l-130 -483h-89zM277 556l111 144h83l-134 -144h-60z" />
    <glyph glyph-name="Wdieresis" unicode="&#x1e84;" horiz-adv-x="730" 
d="M365 503l-102 -503h-100l-150 667h102l103 -521l108 521h78l109 -521l102 521h102l-149 -667h-101zM240 736.5q-15 14.5 -15 35.5t15 36t36 15t35.5 -15t14.5 -36t-14.5 -35.5t-35.5 -14.5t-36 14.5zM418 736.5q-15 14.5 -15 35.5t15 36t35 15q21 0 36 -15t15 -36
t-15 -35.5t-36 -14.5q-20 0 -35 14.5z" />
    <glyph glyph-name="wdieresis" unicode="&#x1e85;" horiz-adv-x="652" 
d="M326 371l-98 -371h-89l-129 483h89l89 -369l97 369h80l98 -369l90 369h90l-130 -483h-89zM201 569.5q-15 14.5 -15 35.5t15 36t36 15t35.5 -15t14.5 -36t-14.5 -35.5t-35.5 -14.5t-36 14.5zM379 569.5q-15 14.5 -15 35.5t15 36t35 15q21 0 36 -15t15 -36t-15 -35.5
t-36 -14.5q-20 0 -35 14.5z" />
    <glyph glyph-name="uni1E9E" unicode="&#x1e9e;" horiz-adv-x="556" 
d="M479 333q50 -51 50 -139q0 -59 -25 -106t-70.5 -73.5t-103.5 -26.5q-80 0 -130 43l44 73q39 -32 87 -32q47 0 74 33t27 89q0 121 -147 121h-35v83l124 167q-32 29 -84 29q-61 0 -94.5 -38t-33.5 -109v-447h-95v447q0 110 59 170.5t164 60.5q64 0 115 -24.5t78 -79.5
l-135 -182q81 -8 131 -59z" />
    <glyph glyph-name="uni1EA0" unicode="&#x1ea0;" horiz-adv-x="523" 
d="M376 141h-229l-39 -141h-103l199 667h114l200 -667h-103zM167 225h189l-95 339zM226.5 -99q15.5 15 35.5 15q21 0 36 -15t15 -36q0 -22 -15 -36.5t-36 -14.5t-36 15t-15 36t15.5 36z" />
    <glyph glyph-name="uni1EA1" unicode="&#x1ea1;" horiz-adv-x="459" 
d="M311 50q-22 -30 -55.5 -46t-71.5 -16q-40 0 -73.5 19.5t-53.5 56t-20 85.5t20 85t53.5 54.5t73.5 18.5q39 0 72.5 -15t54.5 -45v77q0 47 -25 72.5t-71 25.5q-65 0 -121 -57l-35 60q34 35 78 52.5t92 17.5q78 0 123 -39.5t45 -121.5v-334h-86v50zM311 188q-15 27 -41 42.5
t-56 15.5q-41 0 -65.5 -28t-24.5 -71t24.5 -71t65.5 -28q30 0 56 15.5t41 42.5v82zM194.5 -99q15.5 15 35.5 15q21 0 36 -15t15 -36q0 -22 -15 -36.5t-36 -14.5t-36 15t-15 36t15.5 36z" />
    <glyph glyph-name="uni1EA2" unicode="&#x1ea2;" horiz-adv-x="523" 
d="M376 141h-229l-39 -141h-103l199 667h114l200 -667h-103zM167 225h189l-95 339zM218.5 806q17.5 14 42.5 14q29 0 47 -16.5t18 -49.5q0 -30 -18 -57h-40q21 25 21 55q0 17 -7.5 25.5t-20.5 8.5q-23 0 -31 -27l-36 9q7 24 24.5 38z" />
    <glyph glyph-name="uni1EA3" unicode="&#x1ea3;" horiz-adv-x="459" 
d="M311 50q-22 -30 -55.5 -46t-71.5 -16q-40 0 -73.5 19.5t-53.5 56t-20 85.5t20 85t53.5 54.5t73.5 18.5q39 0 72.5 -15t54.5 -45v77q0 47 -25 72.5t-71 25.5q-65 0 -121 -57l-35 60q34 35 78 52.5t92 17.5q78 0 123 -39.5t45 -121.5v-334h-86v50zM311 188q-15 27 -41 42.5
t-56 15.5q-41 0 -65.5 -28t-24.5 -71t24.5 -71t65.5 -28q30 0 56 15.5t41 42.5v82zM187.5 636q17.5 14 42.5 14q29 0 47 -16.5t18 -49.5q0 -30 -18 -57h-40q21 25 21 55q0 17 -7.5 25.5t-20.5 8.5q-23 0 -31 -27l-36 9q7 24 24.5 38z" />
    <glyph glyph-name="uni1EA4" unicode="&#x1ea4;" horiz-adv-x="523" 
d="M355 736l112 108h82l-134 -108h-60zM261 758l-66 -76h-53l79 108h80l82 -108h-53zM376 141h-229l-39 -141h-103l199 667h114l200 -667h-103zM167 225h189l-95 339z" />
    <glyph glyph-name="uni1EA5" unicode="&#x1ea5;" horiz-adv-x="459" 
d="M311 50q-22 -30 -55.5 -46t-71.5 -16q-40 0 -73.5 19.5t-53.5 56t-20 85.5t20 85t53.5 54.5t73.5 18.5q39 0 72.5 -15t54.5 -45v77q0 47 -25 72.5t-71 25.5q-65 0 -121 -57l-35 60q34 35 78 52.5t92 17.5q78 0 123 -39.5t45 -121.5v-334h-86v50zM311 188q-15 27 -41 42.5
t-56 15.5q-41 0 -65.5 -28t-24.5 -71t24.5 -71t65.5 -28q30 0 56 15.5t41 42.5v82zM229 657l-66 -101h-53l79 144h81l82 -144h-53zM320 627l111 144h83l-134 -144h-60z" />
    <glyph glyph-name="uni1EA6" unicode="&#x1ea6;" horiz-adv-x="523" 
d="M-25 844h83l111 -108h-60zM261 758l-66 -76h-53l79 108h80l82 -108h-53zM376 141h-229l-39 -141h-103l199 667h114l200 -667h-103zM167 225h189l-95 339z" />
    <glyph glyph-name="uni1EA7" unicode="&#x1ea7;" horiz-adv-x="459" 
d="M311 50q-22 -30 -55.5 -46t-71.5 -16q-40 0 -73.5 19.5t-53.5 56t-20 85.5t20 85t53.5 54.5t73.5 18.5q39 0 72.5 -15t54.5 -45v77q0 47 -25 72.5t-71 25.5q-65 0 -121 -57l-35 60q34 35 78 52.5t92 17.5q78 0 123 -39.5t45 -121.5v-334h-86v50zM311 188q-15 27 -41 42.5
t-56 15.5q-41 0 -65.5 -28t-24.5 -71t24.5 -71t65.5 -28q30 0 56 15.5t41 42.5v82zM229 657l-66 -101h-53l79 144h81l82 -144h-53zM-55 771h83l111 -144h-60z" />
    <glyph glyph-name="uni1EA8" unicode="&#x1ea8;" horiz-adv-x="523" 
d="M347 825q18 11 43 11q29 0 47 -12.5t18 -37.5q0 -21 -18 -42h-41q22 18 22 41q0 13 -8 19t-20 6q-24 0 -32 -20l-35 7q6 17 24 28zM261 758l-66 -76h-53l79 108h80l82 -108h-53zM376 141h-229l-39 -141h-103l199 667h114l200 -667h-103zM167 225h189l-95 339z" />
    <glyph glyph-name="uni1EA9" unicode="&#x1ea9;" horiz-adv-x="459" 
d="M311 50q-22 -30 -55.5 -46t-71.5 -16q-40 0 -73.5 19.5t-53.5 56t-20 85.5t20 85t53.5 54.5t73.5 18.5q39 0 72.5 -15t54.5 -45v77q0 47 -25 72.5t-71 25.5q-65 0 -121 -57l-35 60q34 35 78 52.5t92 17.5q78 0 123 -39.5t45 -121.5v-334h-86v50zM311 188q-15 27 -41 42.5
t-56 15.5q-41 0 -65.5 -28t-24.5 -71t24.5 -71t65.5 -28q30 0 56 15.5t41 42.5v82zM229 657l-66 -101h-53l79 144h81l82 -144h-53zM272.5 776q17.5 14 42.5 14q29 0 47 -16.5t18 -49.5q0 -30 -18 -57h-40q21 25 21 55q0 17 -7.5 25.5t-20.5 8.5q-23 0 -31 -27l-36 9
q7 24 24.5 38z" />
    <glyph glyph-name="uni1EAA" unicode="&#x1eaa;" horiz-adv-x="523" 
d="M235.5 790q-6.5 6 -13.5 8.5t-14 2.5q-16 0 -26.5 -10.5t-10.5 -30.5h-48q0 30 23 48.5t65 18.5q24 0 37.5 -6.5t28.5 -19.5q12 -9 19.5 -13t17.5 -4q17 0 27 10t10 30h48q0 -30 -23 -48.5t-65 -18.5q-24 0 -37.5 6.5t-29.5 19.5q-2 1 -8.5 7zM261 729l-66 -51h-53l79 72
h80l82 -72h-53zM376 141h-229l-39 -141h-103l199 667h114l200 -667h-103zM167 225h189l-95 339z" />
    <glyph glyph-name="uni1EAB" unicode="&#x1eab;" horiz-adv-x="459" 
d="M311 50q-22 -30 -55.5 -46t-71.5 -16q-40 0 -73.5 19.5t-53.5 56t-20 85.5t20 85t53.5 54.5t73.5 18.5q39 0 72.5 -15t54.5 -45v77q0 47 -25 72.5t-71 25.5q-65 0 -121 -57l-35 60q34 35 78 52.5t92 17.5q78 0 123 -39.5t45 -121.5v-334h-86v50zM311 188q-15 27 -41 42.5
t-56 15.5q-41 0 -65.5 -28t-24.5 -71t24.5 -71t65.5 -28q30 0 56 15.5t41 42.5v82zM229 624l-66 -101h-53l79 144h81l82 -144h-53zM194 760.5q-7 8.5 -18 8.5q-16 0 -26.5 -20.5t-10.5 -60.5h-48q0 60 23 97t65 37q24 0 37.5 -13.5t28.5 -38.5q12 -18 19.5 -26.5t17.5 -8.5
q17 0 27 20t10 61h48q0 -60 -23 -97t-65 -37q-24 0 -37.5 13t-29.5 39q-11 18 -18 26.5z" />
    <glyph glyph-name="uni1EAC" unicode="&#x1eac;" horiz-adv-x="523" 
d="M376 141h-229l-39 -141h-103l199 667h114l200 -667h-103zM167 225h189l-95 339zM226.5 -99q15.5 15 35.5 15q21 0 36 -15t15 -36q0 -22 -15 -36.5t-36 -14.5t-36 15t-15 36t15.5 36zM260 824l-66 -101h-53l79 144h81l82 -144h-53z" />
    <glyph glyph-name="uni1EAD" unicode="&#x1ead;" horiz-adv-x="459" 
d="M311 50q-22 -30 -55.5 -46t-71.5 -16q-40 0 -73.5 19.5t-53.5 56t-20 85.5t20 85t53.5 54.5t73.5 18.5q39 0 72.5 -15t54.5 -45v77q0 47 -25 72.5t-71 25.5q-65 0 -121 -57l-35 60q34 35 78 52.5t92 17.5q78 0 123 -39.5t45 -121.5v-334h-86v50zM311 188q-15 27 -41 42.5
t-56 15.5q-41 0 -65.5 -28t-24.5 -71t24.5 -71t65.5 -28q30 0 56 15.5t41 42.5v82zM194.5 -99q15.5 15 35.5 15q21 0 36 -15t15 -36q0 -22 -15 -36.5t-36 -14.5t-36 15t-15 36t15.5 36zM227 657l-66 -101h-53l79 144h81l82 -144h-53z" />
    <glyph glyph-name="uni1EAE" unicode="&#x1eae;" horiz-adv-x="523" 
d="M213 748l111 94h83l-134 -94h-60zM178 700.5q-39 16.5 -65 44.5l42 28q17 -21 45.5 -33.5t60.5 -12.5q33 0 60.5 12.5t45.5 33.5l42 -28q-26 -28 -64.5 -44.5t-83.5 -16.5q-44 0 -83 16.5zM376 141h-229l-39 -141h-103l199 667h114l200 -667h-103zM167 225h189l-95 339z
" />
    <glyph glyph-name="uni1EAF" unicode="&#x1eaf;" horiz-adv-x="459" 
d="M311 50q-22 -30 -55.5 -46t-71.5 -16q-40 0 -73.5 19.5t-53.5 56t-20 85.5t20 85t53.5 54.5t73.5 18.5q39 0 72.5 -15t54.5 -45v77q0 47 -25 72.5t-71 25.5q-65 0 -121 -57l-35 60q34 35 78 52.5t92 17.5q78 0 123 -39.5t45 -121.5v-334h-86v50zM311 188q-15 27 -41 42.5
t-56 15.5q-41 0 -65.5 -28t-24.5 -71t24.5 -71t65.5 -28q30 0 56 15.5t41 42.5v82zM147 542q-39 20 -65 55l42 33q17 -25 45.5 -40t60.5 -15q33 0 61 14.5t45 40.5l42 -33q-26 -35 -64.5 -55t-83.5 -20q-44 0 -83 20zM181 625l111 144h83l-134 -144h-60z" />
    <glyph glyph-name="uni1EB0" unicode="&#x1eb0;" horiz-adv-x="523" 
d="M118 842h83l111 -95h-60zM178 698.5q-39 16.5 -65 44.5l42 28q17 -21 45.5 -33t60.5 -12q33 0 61 12t45 33l42 -28q-26 -28 -64.5 -44.5t-83.5 -16.5q-44 0 -83 16.5zM376 141h-229l-39 -141h-103l199 667h114l200 -667h-103zM167 225h189l-95 339z" />
    <glyph glyph-name="uni1EB1" unicode="&#x1eb1;" horiz-adv-x="459" 
d="M311 50q-22 -30 -55.5 -46t-71.5 -16q-40 0 -73.5 19.5t-53.5 56t-20 85.5t20 85t53.5 54.5t73.5 18.5q39 0 72.5 -15t54.5 -45v77q0 47 -25 72.5t-71 25.5q-65 0 -121 -57l-35 60q34 35 78 52.5t92 17.5q78 0 123 -39.5t45 -121.5v-334h-86v50zM311 188q-15 27 -41 42.5
t-56 15.5q-41 0 -65.5 -28t-24.5 -71t24.5 -71t65.5 -28q30 0 56 15.5t41 42.5v82zM147 543q-39 20 -65 55l42 33q17 -25 45.5 -40t60.5 -15q33 0 61 14.5t45 40.5l42 -33q-26 -35 -64.5 -55t-83.5 -20q-44 0 -83 20zM83 769h83l111 -144h-60z" />
    <glyph glyph-name="uni1EB2" unicode="&#x1eb2;" horiz-adv-x="523" 
d="M219.5 816.5q17.5 9.5 42.5 9.5q29 0 47 -11t18 -33q0 -19 -18 -37h-40q21 17 21 36q0 12 -7.5 17.5t-20.5 5.5q-23 0 -31 -18l-36 6q7 15 24.5 24.5zM178 699.5q-39 16.5 -65 44.5l42 27q17 -21 45.5 -33t60.5 -12q33 0 61 12t45 33l42 -27q-26 -28 -64.5 -44.5
t-83.5 -16.5q-44 0 -83 16.5zM376 141h-229l-39 -141h-103l199 667h114l200 -667h-103zM167 225h189l-95 339z" />
    <glyph glyph-name="uni1EB3" unicode="&#x1eb3;" horiz-adv-x="459" 
d="M311 50q-22 -30 -55.5 -46t-71.5 -16q-40 0 -73.5 19.5t-53.5 56t-20 85.5t20 85t53.5 54.5t73.5 18.5q39 0 72.5 -15t54.5 -45v77q0 47 -25 72.5t-71 25.5q-65 0 -121 -57l-35 60q34 35 78 52.5t92 17.5q78 0 123 -39.5t45 -121.5v-334h-86v50zM311 188q-15 27 -41 42.5
t-56 15.5q-41 0 -65.5 -28t-24.5 -71t24.5 -71t65.5 -28q30 0 56 15.5t41 42.5v82zM147 543q-39 20 -65 55l42 33q17 -25 45.5 -40t60.5 -15q33 0 61 14.5t45 40.5l42 -33q-26 -35 -64.5 -55t-83.5 -20q-44 0 -83 20zM188.5 732q17.5 14 42.5 14q29 0 47 -16.5t18 -49.5
q0 -30 -18 -57h-40q21 25 21 55q0 17 -7.5 25.5t-20.5 8.5q-23 0 -31 -27l-36 9q7 24 24.5 38z" />
    <glyph glyph-name="uni1EB4" unicode="&#x1eb4;" horiz-adv-x="523" 
d="M235.5 790q-6.5 6 -13.5 8.5t-14 2.5q-16 0 -26.5 -10.5t-10.5 -30.5h-48q0 30 23 48.5t65 18.5q24 0 37.5 -6.5t28.5 -19.5q12 -9 19.5 -13t17.5 -4q17 0 27 10t10 30h48q0 -30 -23 -48.5t-65 -18.5q-24 0 -37.5 6.5t-29.5 19.5q-2 1 -8.5 7zM179 694.5
q-39 12.5 -66 34.5l42 21q18 -16 46.5 -25.5t60.5 -9.5t60 9t46 26l42 -21q-26 -22 -64.5 -34.5t-83.5 -12.5q-44 0 -83 12.5zM376 141h-229l-39 -141h-103l199 667h114l200 -667h-103zM167 225h189l-95 339z" />
    <glyph glyph-name="uni1EB5" unicode="&#x1eb5;" horiz-adv-x="459" 
d="M311 50q-22 -30 -55.5 -46t-71.5 -16q-40 0 -73.5 19.5t-53.5 56t-20 85.5t20 85t53.5 54.5t73.5 18.5q39 0 72.5 -15t54.5 -45v77q0 47 -25 72.5t-71 25.5q-65 0 -121 -57l-35 60q34 35 78 52.5t92 17.5q78 0 123 -39.5t45 -121.5v-334h-86v50zM311 188q-15 27 -41 42.5
t-56 15.5q-41 0 -65.5 -28t-24.5 -71t24.5 -71t65.5 -28q30 0 56 15.5t41 42.5v82zM147 543q-39 20 -65 55l42 33q17 -25 45.5 -40t60.5 -15q33 0 61 14.5t45 40.5l42 -33q-26 -35 -64.5 -55t-83.5 -20q-44 0 -83 20zM193 730.5q-7 8.5 -18 8.5q-16 0 -26.5 -20.5
t-10.5 -60.5h-48q0 60 23 97t65 37q24 0 37.5 -13.5t28.5 -38.5q12 -18 19.5 -26.5t17.5 -8.5q17 0 27 20t10 61h48q0 -60 -23 -97t-65 -37q-24 0 -37.5 13t-29.5 39q-11 18 -18 26.5z" />
    <glyph glyph-name="uni1EB6" unicode="&#x1eb6;" horiz-adv-x="523" 
d="M376 141h-229l-39 -141h-103l199 667h114l200 -667h-103zM167 225h189l-95 339zM178 730q-39 20 -65 55l42 33q17 -25 45.5 -40t60.5 -15q33 0 61 14.5t45 40.5l42 -33q-26 -35 -64.5 -55t-83.5 -20q-44 0 -83 20zM226.5 -99q15.5 15 35.5 15q21 0 36 -15t15 -36
q0 -22 -15 -36.5t-36 -14.5t-36 15t-15 36t15.5 36z" />
    <glyph glyph-name="uni1EB7" unicode="&#x1eb7;" horiz-adv-x="459" 
d="M311 50q-22 -30 -55.5 -46t-71.5 -16q-40 0 -73.5 19.5t-53.5 56t-20 85.5t20 85t53.5 54.5t73.5 18.5q39 0 72.5 -15t54.5 -45v77q0 47 -25 72.5t-71 25.5q-65 0 -121 -57l-35 60q34 35 78 52.5t92 17.5q78 0 123 -39.5t45 -121.5v-334h-86v50zM311 188q-15 27 -41 42.5
t-56 15.5q-41 0 -65.5 -28t-24.5 -71t24.5 -71t65.5 -28q30 0 56 15.5t41 42.5v82zM146 563q-39 20 -65 55l42 33q17 -25 45.5 -40t60.5 -15q33 0 61 14.5t45 40.5l42 -33q-26 -35 -64.5 -55t-83.5 -20q-44 0 -83 20zM194.5 -99q15.5 15 35.5 15q21 0 36 -15t15 -36
q0 -22 -15 -36.5t-36 -14.5t-36 15t-15 36t15.5 36z" />
    <glyph glyph-name="uni1EB8" unicode="&#x1eb8;" horiz-adv-x="466" 
d="M67 667h354v-84h-259v-201h252v-84h-252v-214h259v-84h-354v667zM212.5 -99q15.5 15 35.5 15q21 0 36 -15t15 -36q0 -22 -15 -36.5t-36 -14.5t-36 15t-15 36t15.5 36z" />
    <glyph glyph-name="uni1EB9" unicode="&#x1eb9;" horiz-adv-x="471" 
d="M62.5 370q24.5 58 70.5 91.5t107 33.5q93 0 144.5 -72t51.5 -184v-25h-310q3 -69 38 -112t95 -43q30 0 60 15t51 41l44 -52q-31 -36 -73 -55.5t-90 -19.5q-64 0 -112.5 32t-74.5 90t-26 132q0 70 24.5 128zM156 378.5q-28 -45.5 -31 -103.5h227q-1 59 -29 104t-84 45
q-55 0 -83 -45.5zM205.5 -99q15.5 15 35.5 15q21 0 36 -15t15 -36q0 -22 -15 -36.5t-36 -14.5t-36 15t-15 36t15.5 36z" />
    <glyph glyph-name="uni1EBA" unicode="&#x1eba;" horiz-adv-x="466" 
d="M67 667h354v-84h-259v-201h252v-84h-252v-214h259v-84h-354v667zM195.5 806q17.5 14 42.5 14q29 0 47 -16.5t18 -49.5q0 -30 -18 -57h-40q21 25 21 55q0 17 -7.5 25.5t-20.5 8.5q-23 0 -31 -27l-36 9q7 24 24.5 38z" />
    <glyph glyph-name="uni1EBB" unicode="&#x1ebb;" horiz-adv-x="471" 
d="M62.5 370q24.5 58 70.5 91.5t107 33.5q93 0 144.5 -72t51.5 -184v-25h-310q3 -69 38 -112t95 -43q30 0 60 15t51 41l44 -52q-31 -36 -73 -55.5t-90 -19.5q-64 0 -112.5 32t-74.5 90t-26 132q0 70 24.5 128zM156 378.5q-28 -45.5 -31 -103.5h227q-1 59 -29 104t-84 45
q-55 0 -83 -45.5zM197.5 636q17.5 14 42.5 14q29 0 47 -16.5t18 -49.5q0 -30 -18 -57h-40q21 25 21 55q0 17 -7.5 25.5t-20.5 8.5q-23 0 -31 -27l-36 9q7 24 24.5 38z" />
    <glyph glyph-name="uni1EBC" unicode="&#x1ebc;" horiz-adv-x="466" 
d="M67 667h354v-84h-259v-201h252v-84h-252v-214h259v-84h-354v667zM209 799.5q-7 8.5 -18 8.5q-16 0 -26.5 -20.5t-10.5 -60.5h-48q0 60 23 97t65 37q24 0 37.5 -13.5t28.5 -38.5q12 -18 19.5 -26.5t17.5 -8.5q17 0 27 20t10 61h48q0 -60 -23 -97t-65 -37q-24 0 -37.5 13
t-29.5 39q-11 18 -18 26.5z" />
    <glyph glyph-name="uni1EBD" unicode="&#x1ebd;" horiz-adv-x="471" 
d="M62.5 370q24.5 58 70.5 91.5t107 33.5q93 0 144.5 -72t51.5 -184v-25h-310q3 -69 38 -112t95 -43q30 0 60 15t51 41l44 -52q-31 -36 -73 -55.5t-90 -19.5q-64 0 -112.5 32t-74.5 90t-26 132q0 70 24.5 128zM156 378.5q-28 -45.5 -31 -103.5h227q-1 59 -29 104t-84 45
q-55 0 -83 -45.5zM206 632.5q-7 8.5 -18 8.5q-16 0 -26.5 -20.5t-10.5 -60.5h-48q0 60 23 97t65 37q24 0 37.5 -13.5t28.5 -38.5q12 -18 19.5 -26.5t17.5 -8.5q17 0 27 20t10 61h48q0 -60 -23 -97t-65 -37q-24 0 -37.5 13t-29.5 39q-11 18 -18 26.5z" />
    <glyph glyph-name="uni1EBE" unicode="&#x1ebe;" horiz-adv-x="466" 
d="M340 736l112 108h82l-134 -108h-60zM246 758l-67 -76h-53l80 108h80l82 -108h-53zM67 667h354v-84h-259v-201h252v-84h-252v-214h259v-84h-354v667z" />
    <glyph glyph-name="uni1EBF" unicode="&#x1ebf;" horiz-adv-x="471" 
d="M62.5 370q24.5 58 70.5 91.5t107 33.5q93 0 144.5 -72t51.5 -184v-25h-310q3 -69 38 -112t95 -43q30 0 60 15t51 41l44 -52q-31 -36 -73 -55.5t-90 -19.5q-64 0 -112.5 32t-74.5 90t-26 132q0 70 24.5 128zM156 378.5q-28 -45.5 -31 -103.5h227q-1 59 -29 104t-84 45
q-55 0 -83 -45.5zM239 657l-66 -101h-53l79 144h81l82 -144h-53zM328 627l111 144h83l-134 -144h-60z" />
    <glyph glyph-name="uni1EC0" unicode="&#x1ec0;" horiz-adv-x="466" 
d="M-41 844h83l111 -108h-60zM245 758l-66 -76h-54l80 108h80l82 -108h-53zM67 667h354v-84h-259v-201h252v-84h-252v-214h259v-84h-354v667z" />
    <glyph glyph-name="uni1EC1" unicode="&#x1ec1;" horiz-adv-x="471" 
d="M62.5 370q24.5 58 70.5 91.5t107 33.5q93 0 144.5 -72t51.5 -184v-25h-310q3 -69 38 -112t95 -43q30 0 60 15t51 41l44 -52q-31 -36 -73 -55.5t-90 -19.5q-64 0 -112.5 32t-74.5 90t-26 132q0 70 24.5 128zM156 378.5q-28 -45.5 -31 -103.5h227q-1 59 -29 104t-84 45
q-55 0 -83 -45.5zM-46 771h83l111 -144h-60zM238 657l-66 -101h-53l79 144h81l82 -144h-53z" />
    <glyph glyph-name="uni1EC2" unicode="&#x1ec2;" horiz-adv-x="466" 
d="M330.5 825q17.5 11 43.5 11q29 0 47 -12.5t18 -37.5q0 -21 -19 -42h-40q22 19 22 41q0 13 -8 19t-20 6q-24 0 -32 -20l-35 7q6 17 23.5 28zM245 758l-66 -76h-53l79 108h81l82 -108h-54zM67 667h354v-84h-259v-201h252v-84h-252v-214h259v-84h-354v667z" />
    <glyph glyph-name="uni1EC3" unicode="&#x1ec3;" horiz-adv-x="471" 
d="M62.5 370q24.5 58 70.5 91.5t107 33.5q93 0 144.5 -72t51.5 -184v-25h-310q3 -69 38 -112t95 -43q30 0 60 15t51 41l44 -52q-31 -36 -73 -55.5t-90 -19.5q-64 0 -112.5 32t-74.5 90t-26 132q0 70 24.5 128zM156 378.5q-28 -45.5 -31 -103.5h227q-1 59 -29 104t-84 45
q-55 0 -83 -45.5zM238 657l-66 -101h-53l79 144h81l82 -144h-53zM280.5 776q17.5 14 42.5 14q29 0 47 -16.5t18 -49.5q0 -30 -18 -57h-40q21 25 21 55q0 17 -7.5 25.5t-20.5 8.5q-23 0 -31 -27l-36 9q7 24 24.5 38z" />
    <glyph glyph-name="uni1EC4" unicode="&#x1ec4;" horiz-adv-x="466" 
d="M209 797q-7 4 -17 4q-17 0 -27.5 -10.5t-10.5 -30.5h-47q0 30 23 48.5t65 18.5q24 0 37.5 -6.5t28.5 -19.5q11 -9 18.5 -13t18.5 -4q16 0 26 10t10 30h48q0 -30 -22.5 -48.5t-65.5 -18.5q-23 0 -37.5 7t-28.5 19q-12 10 -19 14zM245 729l-67 -51h-53l80 72h80l82 -72h-53
zM67 667h354v-84h-259v-201h252v-84h-252v-214h259v-84h-354v667z" />
    <glyph glyph-name="uni1EC5" unicode="&#x1ec5;" horiz-adv-x="471" 
d="M62.5 370q24.5 58 70.5 91.5t107 33.5q93 0 144.5 -72t51.5 -184v-25h-310q3 -69 38 -112t95 -43q30 0 60 15t51 41l44 -52q-31 -36 -73 -55.5t-90 -19.5q-64 0 -112.5 32t-74.5 90t-26 132q0 70 24.5 128zM156 378.5q-28 -45.5 -31 -103.5h227q-1 59 -29 104t-84 45
q-55 0 -83 -45.5zM238 624l-66 -101h-53l79 144h81l82 -144h-53zM204 760.5q-7 8.5 -18 8.5q-16 0 -26.5 -20.5t-10.5 -60.5h-48q0 60 23 97t65 37q24 0 37.5 -13.5t28.5 -38.5q12 -18 19.5 -26.5t17.5 -8.5q17 0 27 20t10 61h48q0 -60 -23 -97t-65 -37q-24 0 -37.5 13
t-29.5 39q-11 18 -18 26.5z" />
    <glyph glyph-name="uni1EC6" unicode="&#x1ec6;" horiz-adv-x="466" 
d="M67 667h354v-84h-259v-201h252v-84h-252v-214h259v-84h-354v667zM212.5 -99q15.5 15 35.5 15q21 0 36 -15t15 -36q0 -22 -15 -36.5t-36 -14.5t-36 15t-15 36t15.5 36zM243 824l-66 -101h-53l79 144h81l82 -144h-53z" />
    <glyph glyph-name="uni1EC7" unicode="&#x1ec7;" horiz-adv-x="471" 
d="M62.5 370q24.5 58 70.5 91.5t107 33.5q93 0 144.5 -72t51.5 -184v-25h-310q3 -69 38 -112t95 -43q30 0 60 15t51 41l44 -52q-31 -36 -73 -55.5t-90 -19.5q-64 0 -112.5 32t-74.5 90t-26 132q0 70 24.5 128zM156 378.5q-28 -45.5 -31 -103.5h227q-1 59 -29 104t-84 45
q-55 0 -83 -45.5zM205.5 -99q15.5 15 35.5 15q21 0 36 -15t15 -36q0 -22 -15 -36.5t-36 -14.5t-36 15t-15 36t15.5 36zM239 657l-66 -101h-53l79 144h81l82 -144h-53z" />
    <glyph glyph-name="uni1EC8" unicode="&#x1ec8;" horiz-adv-x="229" 
d="M67 667h95v-667h-95v667zM72.5 806q17.5 14 42.5 14q29 0 47 -16.5t18 -49.5q0 -30 -18 -57h-40q21 25 21 55q0 17 -7.5 25.5t-20.5 8.5q-23 0 -31 -27l-36 9q7 24 24.5 38z" />
    <glyph glyph-name="uni1EC9" unicode="&#x1ec9;" horiz-adv-x="210" 
d="M62 483h86v-483h-86v483zM62.5 636q17.5 14 42.5 14q29 0 47 -16.5t18 -49.5q0 -30 -18 -57h-40q21 25 21 55q0 17 -7.5 25.5t-20.5 8.5q-23 0 -31 -27l-36 9q7 24 24.5 38z" />
    <glyph glyph-name="uni1ECA" unicode="&#x1eca;" horiz-adv-x="229" 
d="M67 667h95v-667h-95v667zM79.5 -99q15.5 15 35.5 15q21 0 36 -15t15 -36q0 -22 -15 -36.5t-36 -14.5t-36 15t-15 36t15.5 36z" />
    <glyph glyph-name="uni1ECB" unicode="&#x1ecb;" horiz-adv-x="210" 
d="M65.5 564.5q-16.5 16.5 -16.5 39.5t16.5 39.5t39.5 16.5t39.5 -16.5t16.5 -39.5t-16.5 -39.5t-39.5 -16.5t-39.5 16.5zM62 483h86v-483h-86v483zM70.5 -99q15.5 15 35.5 15q21 0 36 -15t15 -36q0 -22 -15 -36.5t-36 -14.5t-36 15t-15 36t15.5 36z" />
    <glyph glyph-name="uni1ECC" unicode="&#x1ecc;" horiz-adv-x="606" 
d="M73.5 509.5q30.5 78.5 89.5 123.5t139 45q81 0 140 -45t90 -123.5t31 -176.5t-31 -176.5t-90 -123.5t-140 -45q-80 0 -139 45t-89.5 123.5t-30.5 176.5t30.5 176.5zM422 520q-43 73 -120 73q-76 0 -119 -73t-43 -187q0 -113 43 -186.5t119 -73.5q51 0 88 34t56 93.5
t19 132.5q0 114 -43 187zM269.5 -99q15.5 15 35.5 15q21 0 36 -15t15 -36q0 -22 -15 -36.5t-36 -14.5t-36 15t-15 36t15.5 36z" />
    <glyph glyph-name="uni1ECD" unicode="&#x1ecd;" horiz-adv-x="482" 
d="M131 22.5q-46 34.5 -69.5 92t-23.5 127.5q0 69 23.5 127t69.5 92t110 34t110 -34t69.5 -92t23.5 -127q0 -70 -23.5 -127.5t-69.5 -92t-110 -34.5t-110 34.5zM326 115q29 51 29 127q0 75 -29 126t-85 51q-55 0 -84 -51t-29 -126t29 -126.5t84 -51.5q56 0 85 51zM205.5 -99
q15.5 15 35.5 15q21 0 36 -15t15 -36q0 -22 -15 -36.5t-36 -14.5t-36 15t-15 36t15.5 36z" />
    <glyph glyph-name="uni1ECE" unicode="&#x1ece;" horiz-adv-x="606" 
d="M73.5 509.5q30.5 78.5 89.5 123.5t139 45q81 0 140 -45t90 -123.5t31 -176.5t-31 -176.5t-90 -123.5t-140 -45q-80 0 -139 45t-89.5 123.5t-30.5 176.5t30.5 176.5zM422 520q-43 73 -120 73q-76 0 -119 -73t-43 -187q0 -113 43 -186.5t119 -73.5q51 0 88 34t56 93.5
t19 132.5q0 114 -43 187zM260.5 806q17.5 14 42.5 14q29 0 47 -16.5t18 -49.5q0 -30 -18 -57h-40q21 25 21 55q0 17 -7.5 25.5t-20.5 8.5q-23 0 -31 -27l-36 9q7 24 24.5 38z" />
    <glyph glyph-name="uni1ECF" unicode="&#x1ecf;" horiz-adv-x="482" 
d="M131 22.5q-46 34.5 -69.5 92t-23.5 127.5q0 69 23.5 127t69.5 92t110 34t110 -34t69.5 -92t23.5 -127q0 -70 -23.5 -127.5t-69.5 -92t-110 -34.5t-110 34.5zM326 115q29 51 29 127q0 75 -29 126t-85 51q-55 0 -84 -51t-29 -126t29 -126.5t84 -51.5q56 0 85 51zM199.5 636
q17.5 14 42.5 14q29 0 47 -16.5t18 -49.5q0 -30 -18 -57h-40q21 25 21 55q0 17 -7.5 25.5t-20.5 8.5q-23 0 -31 -27l-36 9q7 24 24.5 38z" />
    <glyph glyph-name="uni1ED0" unicode="&#x1ed0;" horiz-adv-x="606" 
d="M393 736l112 108h82l-134 -108h-60zM299 758l-66 -76h-54l80 108h80l82 -108h-53zM73.5 509.5q30.5 78.5 89.5 123.5t139 45q81 0 140 -45t90 -123.5t31 -176.5t-31 -176.5t-90 -123.5t-140 -45q-80 0 -139 45t-89.5 123.5t-30.5 176.5t30.5 176.5zM422 520
q-43 73 -120 73q-76 0 -119 -73t-43 -187q0 -113 43 -186.5t119 -73.5q51 0 88 34t56 93.5t19 132.5q0 114 -43 187z" />
    <glyph glyph-name="uni1ED1" unicode="&#x1ed1;" horiz-adv-x="482" 
d="M131 22.5q-46 34.5 -69.5 92t-23.5 127.5q0 69 23.5 127t69.5 92t110 34t110 -34t69.5 -92t23.5 -127q0 -70 -23.5 -127.5t-69.5 -92t-110 -34.5t-110 34.5zM326 115q29 51 29 127q0 75 -29 126t-85 51q-55 0 -84 -51t-29 -126t29 -126.5t84 -51.5q56 0 85 51zM239 657
l-66 -101h-53l79 144h81l82 -144h-53zM330 627l111 144h83l-134 -144h-60z" />
    <glyph glyph-name="uni1ED2" unicode="&#x1ed2;" horiz-adv-x="606" 
d="M11 844h83l111 -108h-60zM297 758l-66 -76h-53l79 108h81l82 -108h-53zM73.5 509.5q30.5 78.5 89.5 123.5t139 45q81 0 140 -45t90 -123.5t31 -176.5t-31 -176.5t-90 -123.5t-140 -45q-80 0 -139 45t-89.5 123.5t-30.5 176.5t30.5 176.5zM422 520q-43 73 -120 73
q-76 0 -119 -73t-43 -187q0 -113 43 -186.5t119 -73.5q51 0 88 34t56 93.5t19 132.5q0 114 -43 187z" />
    <glyph glyph-name="uni1ED3" unicode="&#x1ed3;" horiz-adv-x="482" 
d="M131 22.5q-46 34.5 -69.5 92t-23.5 127.5q0 69 23.5 127t69.5 92t110 34t110 -34t69.5 -92t23.5 -127q0 -70 -23.5 -127.5t-69.5 -92t-110 -34.5t-110 34.5zM326 115q29 51 29 127q0 75 -29 126t-85 51q-55 0 -84 -51t-29 -126t29 -126.5t84 -51.5q56 0 85 51zM-45 771
h83l111 -144h-60zM239 657l-66 -101h-53l79 144h81l82 -144h-53z" />
    <glyph glyph-name="uni1ED4" unicode="&#x1ed4;" horiz-adv-x="606" 
d="M383.5 825q17.5 11 42.5 11q29 0 47 -12.5t18 -37.5q0 -22 -18 -42h-40q21 18 21 41q0 25 -28 25q-23 0 -31 -20l-36 7q7 17 24.5 28zM297 758l-66 -76h-53l79 108h81l82 -108h-54zM73.5 509.5q30.5 78.5 89.5 123.5t139 45q81 0 140 -45t90 -123.5t31 -176.5t-31 -176.5
t-90 -123.5t-140 -45q-80 0 -139 45t-89.5 123.5t-30.5 176.5t30.5 176.5zM422 520q-43 73 -120 73q-76 0 -119 -73t-43 -187q0 -113 43 -186.5t119 -73.5q51 0 88 34t56 93.5t19 132.5q0 114 -43 187z" />
    <glyph glyph-name="uni1ED5" unicode="&#x1ed5;" horiz-adv-x="482" 
d="M131 22.5q-46 34.5 -69.5 92t-23.5 127.5q0 69 23.5 127t69.5 92t110 34t110 -34t69.5 -92t23.5 -127q0 -70 -23.5 -127.5t-69.5 -92t-110 -34.5t-110 34.5zM326 115q29 51 29 127q0 75 -29 126t-85 51q-55 0 -84 -51t-29 -126t29 -126.5t84 -51.5q56 0 85 51zM239 657
l-66 -101h-53l79 144h81l82 -144h-53zM281.5 776q17.5 14 42.5 14q29 0 47 -16.5t18 -49.5q0 -30 -18 -57h-40q21 25 21 55q0 17 -7.5 25.5t-20.5 8.5q-23 0 -31 -27l-36 9q7 24 24.5 38z" />
    <glyph glyph-name="uni1ED6" unicode="&#x1ed6;" horiz-adv-x="606" 
d="M275.5 790q-6.5 6 -13.5 8.5t-14 2.5q-17 0 -27.5 -10.5t-10.5 -30.5h-47q0 30 23 48.5t65 18.5q24 0 37.5 -6.5t28.5 -19.5q11 -9 18.5 -13t18.5 -4q17 0 27 10t10 30h48q0 -30 -23 -48.5t-66 -18.5q-23 0 -37.5 7t-28.5 19q-2 1 -8.5 7zM301 729l-67 -51h-53l80 72h80
l82 -72h-53zM73.5 509.5q30.5 78.5 89.5 123.5t139 45q81 0 140 -45t90 -123.5t31 -176.5t-31 -176.5t-90 -123.5t-140 -45q-80 0 -139 45t-89.5 123.5t-30.5 176.5t30.5 176.5zM422 520q-43 73 -120 73q-76 0 -119 -73t-43 -187q0 -113 43 -186.5t119 -73.5q51 0 88 34
t56 93.5t19 132.5q0 114 -43 187z" />
    <glyph glyph-name="uni1ED7" unicode="&#x1ed7;" horiz-adv-x="482" 
d="M131 22.5q-46 34.5 -69.5 92t-23.5 127.5q0 69 23.5 127t69.5 92t110 34t110 -34t69.5 -92t23.5 -127q0 -70 -23.5 -127.5t-69.5 -92t-110 -34.5t-110 34.5zM326 115q29 51 29 127q0 75 -29 126t-85 51q-55 0 -84 -51t-29 -126t29 -126.5t84 -51.5q56 0 85 51zM239 624
l-66 -101h-53l79 144h81l82 -144h-53zM206 760.5q-7 8.5 -18 8.5q-16 0 -26.5 -20.5t-10.5 -60.5h-48q0 60 23 97t65 37q24 0 37.5 -13.5t28.5 -38.5q12 -18 19.5 -26.5t17.5 -8.5q17 0 27 20t10 61h48q0 -60 -23 -97t-65 -37q-24 0 -37.5 13t-29.5 39q-11 18 -18 26.5z" />
    <glyph glyph-name="uni1ED8" unicode="&#x1ed8;" horiz-adv-x="606" 
d="M73.5 509.5q30.5 78.5 89.5 123.5t139 45q81 0 140 -45t90 -123.5t31 -176.5t-31 -176.5t-90 -123.5t-140 -45q-80 0 -139 45t-89.5 123.5t-30.5 176.5t30.5 176.5zM422 520q-43 73 -120 73q-76 0 -119 -73t-43 -187q0 -113 43 -186.5t119 -73.5q51 0 88 34t56 93.5
t19 132.5q0 114 -43 187zM269.5 -99q15.5 15 35.5 15q21 0 36 -15t15 -36q0 -22 -15 -36.5t-36 -14.5t-36 15t-15 36t15.5 36zM302 824l-66 -101h-53l79 144h81l82 -144h-53z" />
    <glyph glyph-name="uni1ED9" unicode="&#x1ed9;" horiz-adv-x="482" 
d="M131 22.5q-46 34.5 -69.5 92t-23.5 127.5q0 69 23.5 127t69.5 92t110 34t110 -34t69.5 -92t23.5 -127q0 -70 -23.5 -127.5t-69.5 -92t-110 -34.5t-110 34.5zM326 115q29 51 29 127q0 75 -29 126t-85 51q-55 0 -84 -51t-29 -126t29 -126.5t84 -51.5q56 0 85 51zM205.5 -99
q15.5 15 35.5 15q21 0 36 -15t15 -36q0 -22 -15 -36.5t-36 -14.5t-36 15t-15 36t15.5 36zM239 657l-66 -101h-53l79 144h81l82 -144h-53z" />
    <glyph glyph-name="uni1EDA" unicode="&#x1eda;" horiz-adv-x="606" 
d="M567 593.5q-18 -33.5 -48 -55.5q44 -86 44 -205q0 -98 -31 -176.5t-90 -123.5t-140 -45q-80 0 -139 45t-89.5 123.5t-30.5 176.5t30.5 176.5t89.5 123.5t139 45q63 0 112.5 -27.5t84.5 -78.5q16 15 27.5 34t13.5 36q-4 -2 -11 -2q-18 0 -30 12.5t-12 31.5t13.5 32.5
t32.5 13.5q22 0 37 -17.5t15 -47.5q0 -38 -18 -71.5zM390 107q37 34 56 93.5t19 132.5q0 114 -43 187t-120 73q-76 0 -119 -73t-43 -187q0 -113 43 -186.5t119 -73.5q51 0 88 34zM254 723l111 144h83l-134 -144h-60z" />
    <glyph glyph-name="uni1EDB" unicode="&#x1edb;" horiz-adv-x="482" 
d="M441 464.5q-16 -31.5 -42 -54.5q45 -70 45 -168q0 -70 -23.5 -127.5t-69.5 -92t-110 -34.5t-110 34.5t-69.5 92t-23.5 127.5q0 69 23.5 127t69.5 92t110 34q81 0 133 -54q34 36 37 67l-11 -1q-18 0 -29.5 12t-11.5 31t13.5 32.5t32.5 13.5q21 0 36.5 -17.5t15.5 -47.5
q0 -35 -16 -66.5zM326 115q29 51 29 127q0 75 -29 126t-85 51q-55 0 -84 -51t-29 -126t29 -126.5t84 -51.5q56 0 85 51zM192 556l111 144h83l-134 -144h-60z" />
    <glyph glyph-name="uni1EDC" unicode="&#x1edc;" horiz-adv-x="606" 
d="M567 593.5q-18 -33.5 -48 -55.5q44 -86 44 -205q0 -98 -31 -176.5t-90 -123.5t-140 -45q-80 0 -139 45t-89.5 123.5t-30.5 176.5t30.5 176.5t89.5 123.5t139 45q63 0 112.5 -27.5t84.5 -78.5q16 15 27.5 34t13.5 36q-4 -2 -11 -2q-18 0 -30 12.5t-12 31.5t13.5 32.5
t32.5 13.5q22 0 37 -17.5t15 -47.5q0 -38 -18 -71.5zM390 107q37 34 56 93.5t19 132.5q0 114 -43 187t-120 73q-76 0 -119 -73t-43 -187q0 -113 43 -186.5t119 -73.5q51 0 88 34zM158 867h83l111 -144h-60z" />
    <glyph glyph-name="uni1EDD" unicode="&#x1edd;" horiz-adv-x="482" 
d="M441 464.5q-16 -31.5 -42 -54.5q45 -70 45 -168q0 -70 -23.5 -127.5t-69.5 -92t-110 -34.5t-110 34.5t-69.5 92t-23.5 127.5q0 69 23.5 127t69.5 92t110 34q81 0 133 -54q34 36 37 67l-11 -1q-18 0 -29.5 12t-11.5 31t13.5 32.5t32.5 13.5q21 0 36.5 -17.5t15.5 -47.5
q0 -35 -16 -66.5zM326 115q29 51 29 127q0 75 -29 126t-85 51q-55 0 -84 -51t-29 -126t29 -126.5t84 -51.5q56 0 85 51zM96 700h83l111 -144h-60z" />
    <glyph glyph-name="uni1EDE" unicode="&#x1ede;" horiz-adv-x="606" 
d="M567 593.5q-18 -33.5 -48 -55.5q44 -86 44 -205q0 -98 -31 -176.5t-90 -123.5t-140 -45q-80 0 -139 45t-89.5 123.5t-30.5 176.5t30.5 176.5t89.5 123.5t139 45q63 0 112.5 -27.5t84.5 -78.5q16 15 27.5 34t13.5 36q-4 -2 -11 -2q-18 0 -30 12.5t-12 31.5t13.5 32.5
t32.5 13.5q22 0 37 -17.5t15 -47.5q0 -38 -18 -71.5zM390 107q37 34 56 93.5t19 132.5q0 114 -43 187t-120 73q-76 0 -119 -73t-43 -187q0 -113 43 -186.5t119 -73.5q51 0 88 34zM260.5 806q17.5 14 42.5 14q29 0 47 -16.5t18 -49.5q0 -30 -18 -57h-40q21 25 21 55
q0 17 -7.5 25.5t-20.5 8.5q-23 0 -31 -27l-36 9q7 24 24.5 38z" />
    <glyph glyph-name="uni1EDF" unicode="&#x1edf;" horiz-adv-x="482" 
d="M441 464.5q-16 -31.5 -42 -54.5q45 -70 45 -168q0 -70 -23.5 -127.5t-69.5 -92t-110 -34.5t-110 34.5t-69.5 92t-23.5 127.5q0 69 23.5 127t69.5 92t110 34q81 0 133 -54q34 36 37 67l-11 -1q-18 0 -29.5 12t-11.5 31t13.5 32.5t32.5 13.5q21 0 36.5 -17.5t15.5 -47.5
q0 -35 -16 -66.5zM326 115q29 51 29 127q0 75 -29 126t-85 51q-55 0 -84 -51t-29 -126t29 -126.5t84 -51.5q56 0 85 51zM199.5 636q17.5 14 42.5 14q29 0 47 -16.5t18 -49.5q0 -30 -18 -57h-40q21 25 21 55q0 17 -7.5 25.5t-20.5 8.5q-23 0 -31 -27l-36 9q7 24 24.5 38z" />
    <glyph glyph-name="uni1EE0" unicode="&#x1ee0;" horiz-adv-x="606" 
d="M567 593.5q-18 -33.5 -48 -55.5q44 -86 44 -205q0 -98 -31 -176.5t-90 -123.5t-140 -45q-80 0 -139 45t-89.5 123.5t-30.5 176.5t30.5 176.5t89.5 123.5t139 45q63 0 112.5 -27.5t84.5 -78.5q16 15 27.5 34t13.5 36q-4 -2 -11 -2q-18 0 -30 12.5t-12 31.5t13.5 32.5
t32.5 13.5q22 0 37 -17.5t15 -47.5q0 -38 -18 -71.5zM390 107q37 34 56 93.5t19 132.5q0 114 -43 187t-120 73q-76 0 -119 -73t-43 -187q0 -113 43 -186.5t119 -73.5q51 0 88 34zM268 799.5q-7 8.5 -18 8.5q-16 0 -26.5 -20.5t-10.5 -60.5h-48q0 60 23 97t65 37
q24 0 37.5 -13.5t28.5 -38.5q12 -18 19.5 -26.5t17.5 -8.5q17 0 27 20t10 61h48q0 -60 -23 -97t-65 -37q-24 0 -37.5 13t-29.5 39q-11 18 -18 26.5z" />
    <glyph glyph-name="uni1EE1" unicode="&#x1ee1;" horiz-adv-x="482" 
d="M441 464.5q-16 -31.5 -42 -54.5q45 -70 45 -168q0 -70 -23.5 -127.5t-69.5 -92t-110 -34.5t-110 34.5t-69.5 92t-23.5 127.5q0 69 23.5 127t69.5 92t110 34q81 0 133 -54q34 36 37 67l-11 -1q-18 0 -29.5 12t-11.5 31t13.5 32.5t32.5 13.5q21 0 36.5 -17.5t15.5 -47.5
q0 -35 -16 -66.5zM326 115q29 51 29 127q0 75 -29 126t-85 51q-55 0 -84 -51t-29 -126t29 -126.5t84 -51.5q56 0 85 51zM200 632.5q-7 8.5 -18 8.5q-16 0 -26.5 -20.5t-10.5 -60.5h-48q0 60 23 97t65 37q24 0 37.5 -13.5t28.5 -38.5q12 -18 19.5 -26.5t17.5 -8.5q17 0 27 20
t10 61h48q0 -60 -23 -97t-65 -37q-24 0 -37.5 13t-29.5 39q-11 18 -18 26.5z" />
    <glyph glyph-name="uni1EE2" unicode="&#x1ee2;" horiz-adv-x="606" 
d="M567 593.5q-18 -33.5 -48 -55.5q44 -86 44 -205q0 -98 -31 -176.5t-90 -123.5t-140 -45q-80 0 -139 45t-89.5 123.5t-30.5 176.5t30.5 176.5t89.5 123.5t139 45q63 0 112.5 -27.5t84.5 -78.5q16 15 27.5 34t13.5 36q-4 -2 -11 -2q-18 0 -30 12.5t-12 31.5t13.5 32.5
t32.5 13.5q22 0 37 -17.5t15 -47.5q0 -38 -18 -71.5zM390 107q37 34 56 93.5t19 132.5q0 114 -43 187t-120 73q-76 0 -119 -73t-43 -187q0 -113 43 -186.5t119 -73.5q51 0 88 34zM269.5 -99q15.5 15 35.5 15q21 0 36 -15t15 -36q0 -22 -15 -36.5t-36 -14.5t-36 15t-15 36
t15.5 36z" />
    <glyph glyph-name="uni1EE3" unicode="&#x1ee3;" horiz-adv-x="482" 
d="M441 464.5q-16 -31.5 -42 -54.5q45 -70 45 -168q0 -70 -23.5 -127.5t-69.5 -92t-110 -34.5t-110 34.5t-69.5 92t-23.5 127.5q0 69 23.5 127t69.5 92t110 34q81 0 133 -54q34 36 37 67l-11 -1q-18 0 -29.5 12t-11.5 31t13.5 32.5t32.5 13.5q21 0 36.5 -17.5t15.5 -47.5
q0 -35 -16 -66.5zM326 115q29 51 29 127q0 75 -29 126t-85 51q-55 0 -84 -51t-29 -126t29 -126.5t84 -51.5q56 0 85 51zM206.5 -99q15.5 15 35.5 15q21 0 36 -15t15 -36q0 -22 -15 -36.5t-36 -14.5t-36 15t-15 36t15.5 36z" />
    <glyph glyph-name="uni1EE4" unicode="&#x1ee4;" horiz-adv-x="580" 
d="M67 667h95v-448q0 -71 33.5 -109t94.5 -38t94.5 38t33.5 109v448h95v-447q0 -111 -59 -171.5t-164 -60.5t-164 60.5t-59 171.5v447zM256.5 -99q15.5 15 35.5 15q21 0 36 -15t15 -36q0 -22 -15 -36.5t-36 -14.5t-36 15t-15 36t15.5 36z" />
    <glyph glyph-name="uni1EE5" unicode="&#x1ee5;" 
d="M327 65q-24 -33 -61 -55t-80 -22q-63 0 -93.5 32.5t-30.5 97.5v365h86v-338q0 -43 18.5 -62t54.5 -19q32 0 60.5 20t45.5 50v349h85v-483h-85v65zM202.5 -99q15.5 15 35.5 15q21 0 36 -15t15 -36q0 -22 -15 -36.5t-36 -14.5t-36 15t-15 36t15.5 36z" />
    <glyph glyph-name="uni1EE6" unicode="&#x1ee6;" horiz-adv-x="580" 
d="M67 667h95v-448q0 -71 33.5 -109t94.5 -38t94.5 38t33.5 109v448h95v-447q0 -111 -59 -171.5t-164 -60.5t-164 60.5t-59 171.5v447zM248.5 806q17.5 14 42.5 14q29 0 47 -16.5t18 -49.5q0 -30 -18 -57h-40q21 25 21 55q0 17 -7.5 25.5t-20.5 8.5q-23 0 -31 -27l-36 9
q7 24 24.5 38z" />
    <glyph glyph-name="uni1EE7" unicode="&#x1ee7;" 
d="M327 65q-24 -33 -61 -55t-80 -22q-63 0 -93.5 32.5t-30.5 97.5v365h86v-338q0 -43 18.5 -62t54.5 -19q32 0 60.5 20t45.5 50v349h85v-483h-85v65zM195.5 636q17.5 14 42.5 14q29 0 47 -16.5t18 -49.5q0 -30 -18 -57h-40q21 25 21 55q0 17 -7.5 25.5t-20.5 8.5
q-23 0 -31 -27l-36 9q7 24 24.5 38z" />
    <glyph glyph-name="uni1EE8" unicode="&#x1ee8;" horiz-adv-x="580" 
d="M589 642.5q-27 -40.5 -76 -64.5v-358q0 -111 -59 -171.5t-164 -60.5t-164 60.5t-59 171.5v447h95v-448q0 -71 33.5 -109t94.5 -38t94.5 38t33.5 109v448h95v-45q23 15 39.5 38.5t18.5 45.5q-2 -2 -11 -2q-18 0 -29.5 12t-11.5 31t13 32.5t32 13.5q22 0 37 -17.5t15 -47.5
q0 -45 -27 -85.5zM241 723l111 144h83l-134 -144h-60z" />
    <glyph glyph-name="uni1EE9" unicode="&#x1ee9;" 
d="M472.5 462.5q-21.5 -36.5 -60.5 -61.5v-401h-85v65q-24 -33 -61 -55t-80 -22q-63 0 -93.5 32.5t-30.5 97.5v365h86v-338q0 -43 18.5 -62t54.5 -19q32 0 60.5 20t45.5 50v349h85v-32q15 15 25 32t11 33q-2 -2 -11 -2q-18 0 -29.5 12t-11.5 31t13 32.5t32 13.5
q22 0 37.5 -17.5t15.5 -47.5q0 -39 -21.5 -75.5zM188 556l111 144h83l-134 -144h-60z" />
    <glyph glyph-name="uni1EEA" unicode="&#x1eea;" horiz-adv-x="580" 
d="M589 642.5q-27 -40.5 -76 -64.5v-358q0 -111 -59 -171.5t-164 -60.5t-164 60.5t-59 171.5v447h95v-448q0 -71 33.5 -109t94.5 -38t94.5 38t33.5 109v448h95v-45q23 15 39.5 38.5t18.5 45.5q-2 -2 -11 -2q-18 0 -29.5 12t-11.5 31t13 32.5t32 13.5q22 0 37 -17.5t15 -47.5
q0 -45 -27 -85.5zM145 867h83l111 -144h-60z" />
    <glyph glyph-name="uni1EEB" unicode="&#x1eeb;" 
d="M472.5 462.5q-21.5 -36.5 -60.5 -61.5v-401h-85v65q-24 -33 -61 -55t-80 -22q-63 0 -93.5 32.5t-30.5 97.5v365h86v-338q0 -43 18.5 -62t54.5 -19q32 0 60.5 20t45.5 50v349h85v-32q15 15 25 32t11 33q-2 -2 -11 -2q-18 0 -29.5 12t-11.5 31t13 32.5t32 13.5
q22 0 37.5 -17.5t15.5 -47.5q0 -39 -21.5 -75.5zM92 700h83l111 -144h-60z" />
    <glyph glyph-name="uni1EEC" unicode="&#x1eec;" horiz-adv-x="580" 
d="M589 642.5q-27 -40.5 -76 -64.5v-358q0 -111 -59 -171.5t-164 -60.5t-164 60.5t-59 171.5v447h95v-448q0 -71 33.5 -109t94.5 -38t94.5 38t33.5 109v448h95v-45q23 15 39.5 38.5t18.5 45.5q-2 -2 -11 -2q-18 0 -29.5 12t-11.5 31t13 32.5t32 13.5q22 0 37 -17.5t15 -47.5
q0 -45 -27 -85.5zM248.5 806q17.5 14 42.5 14q29 0 47 -16.5t18 -49.5q0 -30 -18 -57h-40q21 25 21 55q0 17 -7.5 25.5t-20.5 8.5q-23 0 -31 -27l-36 9q7 24 24.5 38z" />
    <glyph glyph-name="uni1EED" unicode="&#x1eed;" 
d="M472.5 462.5q-21.5 -36.5 -60.5 -61.5v-401h-85v65q-24 -33 -61 -55t-80 -22q-63 0 -93.5 32.5t-30.5 97.5v365h86v-338q0 -43 18.5 -62t54.5 -19q32 0 60.5 20t45.5 50v349h85v-32q15 15 25 32t11 33q-2 -2 -11 -2q-18 0 -29.5 12t-11.5 31t13 32.5t32 13.5
q22 0 37.5 -17.5t15.5 -47.5q0 -39 -21.5 -75.5zM195.5 636q17.5 14 42.5 14q29 0 47 -16.5t18 -49.5q0 -30 -18 -57h-40q21 25 21 55q0 17 -7.5 25.5t-20.5 8.5q-23 0 -31 -27l-36 9q7 24 24.5 38z" />
    <glyph glyph-name="uni1EEE" unicode="&#x1eee;" horiz-adv-x="580" 
d="M589 642.5q-27 -40.5 -76 -64.5v-358q0 -111 -59 -171.5t-164 -60.5t-164 60.5t-59 171.5v447h95v-448q0 -71 33.5 -109t94.5 -38t94.5 38t33.5 109v448h95v-45q23 15 39.5 38.5t18.5 45.5q-2 -2 -11 -2q-18 0 -29.5 12t-11.5 31t13 32.5t32 13.5q22 0 37 -17.5t15 -47.5
q0 -45 -27 -85.5zM255 799.5q-7 8.5 -18 8.5q-16 0 -26.5 -20.5t-10.5 -60.5h-48q0 60 23 97t65 37q24 0 37.5 -13.5t28.5 -38.5q12 -18 19.5 -26.5t17.5 -8.5q17 0 27 20t10 61h48q0 -60 -23 -97t-65 -37q-24 0 -37.5 13t-29.5 39q-11 18 -18 26.5z" />
    <glyph glyph-name="uni1EEF" unicode="&#x1eef;" 
d="M472.5 462.5q-21.5 -36.5 -60.5 -61.5v-401h-85v65q-24 -33 -61 -55t-80 -22q-63 0 -93.5 32.5t-30.5 97.5v365h86v-338q0 -43 18.5 -62t54.5 -19q32 0 60.5 20t45.5 50v349h85v-32q15 15 25 32t11 33q-2 -2 -11 -2q-18 0 -29.5 12t-11.5 31t13 32.5t32 13.5
q22 0 37.5 -17.5t15.5 -47.5q0 -39 -21.5 -75.5zM203 632.5q-7 8.5 -18 8.5q-16 0 -26.5 -20.5t-10.5 -60.5h-48q0 60 23 97t65 37q24 0 37.5 -13.5t28.5 -38.5q12 -18 19.5 -26.5t17.5 -8.5q17 0 27 20t10 61h48q0 -60 -23 -97t-65 -37q-24 0 -37.5 13t-29.5 39
q-11 18 -18 26.5z" />
    <glyph glyph-name="uni1EF0" unicode="&#x1ef0;" horiz-adv-x="580" 
d="M589 642.5q-27 -40.5 -76 -64.5v-358q0 -111 -59 -171.5t-164 -60.5t-164 60.5t-59 171.5v447h95v-448q0 -71 33.5 -109t94.5 -38t94.5 38t33.5 109v448h95v-45q23 15 39.5 38.5t18.5 45.5q-2 -2 -11 -2q-18 0 -29.5 12t-11.5 31t13 32.5t32 13.5q22 0 37 -17.5t15 -47.5
q0 -45 -27 -85.5zM256.5 -99q15.5 15 35.5 15q21 0 36 -15t15 -36q0 -22 -15 -36.5t-36 -14.5t-36 15t-15 36t15.5 36z" />
    <glyph glyph-name="uni1EF1" unicode="&#x1ef1;" 
d="M472.5 462.5q-21.5 -36.5 -60.5 -61.5v-401h-85v65q-24 -33 -61 -55t-80 -22q-63 0 -93.5 32.5t-30.5 97.5v365h86v-338q0 -43 18.5 -62t54.5 -19q32 0 60.5 20t45.5 50v349h85v-32q15 15 25 32t11 33q-2 -2 -11 -2q-18 0 -29.5 12t-11.5 31t13 32.5t32 13.5
q22 0 37.5 -17.5t15.5 -47.5q0 -39 -21.5 -75.5zM202.5 -99q15.5 15 35.5 15q21 0 36 -15t15 -36q0 -22 -15 -36.5t-36 -14.5t-36 15t-15 36t15.5 36z" />
    <glyph glyph-name="Ygrave" unicode="&#x1ef2;" horiz-adv-x="510" 
d="M208 280l-206 387h106l147 -297l148 297h105l-205 -387v-280h-95v280zM110 867h83l111 -144h-60z" />
    <glyph glyph-name="ygrave" unicode="&#x1ef3;" horiz-adv-x="419" 
d="M86 -120q21 0 34 10t22 34l23 66l-161 493h92l113 -379l115 379h91l-192 -579q-18 -55 -49.5 -77.5t-81.5 -22.5q-12 0 -27 2t-24 5l14 76q13 -7 31 -7zM64 700h83l111 -144h-60z" />
    <glyph glyph-name="uni1EF4" unicode="&#x1ef4;" horiz-adv-x="510" 
d="M208 280l-206 387h106l147 -297l148 297h105l-205 -387v-280h-95v280zM219.5 -99q15.5 15 35.5 15q21 0 36 -15t15 -36q0 -22 -15 -36.5t-36 -14.5t-36 15t-15 36t15.5 36z" />
    <glyph glyph-name="uni1EF5" unicode="&#x1ef5;" horiz-adv-x="419" 
d="M86 -120q21 0 34 10t22 34l23 66l-161 493h92l113 -379l115 379h91l-192 -579q-18 -55 -49.5 -77.5t-81.5 -22.5q-12 0 -27 2t-24 5l14 76q13 -7 31 -7zM172.5 -228q15.5 15 35.5 15q21 0 36 -15t15 -36q0 -22 -15 -36.5t-36 -14.5t-36 15t-15 36t15.5 36z" />
    <glyph glyph-name="uni1EF6" unicode="&#x1ef6;" horiz-adv-x="510" 
d="M208 280l-206 387h106l147 -297l148 297h105l-205 -387v-280h-95v280zM209.5 806q17.5 14 42.5 14q29 0 47 -16.5t18 -49.5q0 -30 -18 -57h-40q21 25 21 55q0 17 -7.5 25.5t-20.5 8.5q-23 0 -31 -27l-36 9q7 24 24.5 38z" />
    <glyph glyph-name="uni1EF7" unicode="&#x1ef7;" horiz-adv-x="419" 
d="M86 -120q21 0 34 10t22 34l23 66l-161 493h92l113 -379l115 379h91l-192 -579q-18 -55 -49.5 -77.5t-81.5 -22.5q-12 0 -27 2t-24 5l14 76q13 -7 31 -7zM162.5 639q17.5 14 42.5 14q29 0 47 -16.5t18 -49.5q0 -30 -18 -57h-40q21 25 21 55q0 17 -7.5 25.5t-20.5 8.5
q-23 0 -31 -27l-36 9q7 24 24.5 38z" />
    <glyph glyph-name="uni1EF8" unicode="&#x1ef8;" horiz-adv-x="510" 
d="M208 280l-206 387h106l147 -297l148 297h105l-205 -387v-280h-95v280zM220 799.5q-7 8.5 -18 8.5q-16 0 -26.5 -20.5t-10.5 -60.5h-48q0 60 23 97t65 37q24 0 37.5 -13.5t28.5 -38.5q12 -18 19.5 -26.5t17.5 -8.5q17 0 27 20t10 61h48q0 -60 -23 -97t-65 -37
q-24 0 -37.5 13t-29.5 39q-11 18 -18 26.5z" />
    <glyph glyph-name="uni1EF9" unicode="&#x1ef9;" horiz-adv-x="419" 
d="M86 -120q21 0 34 10t22 34l23 66l-161 493h92l113 -379l115 379h91l-192 -579q-18 -55 -49.5 -77.5t-81.5 -22.5q-12 0 -27 2t-24 5l14 76q13 -7 31 -7zM174 632.5q-7 8.5 -18 8.5q-16 0 -26.5 -20.5t-10.5 -60.5h-48q0 60 23 97t65 37q24 0 37.5 -13.5t28.5 -38.5
q12 -18 19.5 -26.5t17.5 -8.5q17 0 27 20t10 61h48q0 -60 -23 -97t-65 -37q-24 0 -37.5 13t-29.5 39q-11 18 -18 26.5z" />
    <glyph glyph-name="uni2009" unicode="&#x2009;" horiz-adv-x="125" 
 />
    <glyph glyph-name="endash" unicode="&#x2013;" horiz-adv-x="527" 
d="M30 279h467v-74h-467v74z" />
    <glyph glyph-name="emdash" unicode="&#x2014;" horiz-adv-x="737" 
d="M30 279h677v-74h-677v74z" />
    <glyph glyph-name="uni2015" unicode="&#x2015;" horiz-adv-x="527" 
d="M30 279h467v-74h-467v74z" />
    <glyph glyph-name="quoteleft" unicode="&#x2018;" horiz-adv-x="236" 
d="M176 644q-24 -15 -43.5 -42t-23.5 -51q2 0 5.5 1t8.5 1q23 0 38 -16t15 -40q0 -23 -17 -40.5t-42 -17.5q-28 0 -47.5 21.5t-19.5 59.5q0 47 23.5 88.5t61.5 68.5z" />
    <glyph glyph-name="quoteright" unicode="&#x2019;" horiz-adv-x="236" 
d="M57 471q24 16 43.5 43t23.5 51q-6 -3 -14 -3q-23 0 -38 16t-15 40t17 41.5t42 17.5q28 0 47.5 -21.5t19.5 -59.5q0 -47 -23.5 -89t-61.5 -69z" />
    <glyph glyph-name="quotesinglbase" unicode="&#x201a;" horiz-adv-x="235" 
d="M57 -96q24 16 43.5 43t23.5 51q-4 -2 -14 -2q-23 0 -38 15.5t-15 39.5t17 41.5t42 17.5q28 0 47.5 -21.5t19.5 -59.5q0 -47 -23.5 -89t-61.5 -69z" />
    <glyph glyph-name="quotereversed" unicode="&#x201b;" horiz-adv-x="236" 
d="M161 659.5q17 -17.5 17 -41.5t-15 -40t-37 -16q-8 0 -14 3q4 -24 23.5 -51t43.5 -43l-41 -33q-38 27 -61.5 69t-23.5 89q0 38 19.5 59.5t47.5 21.5q24 0 41 -17.5z" />
    <glyph glyph-name="quotedblleft" unicode="&#x201c;" horiz-adv-x="404" 
d="M179 644q-25 -15 -44.5 -42t-22.5 -51q1 0 4.5 1t9.5 1q22 0 37 -16t15 -40q0 -23 -17 -40.5t-42 -17.5q-28 0 -47 22t-19 59q0 46 23 88t61 69zM348 644q-25 -15 -44.5 -42t-22.5 -51q1 0 4.5 1t9.5 1q22 0 37 -16t15 -40q0 -23 -17 -40.5t-42 -17.5q-28 0 -47.5 22
t-19.5 59q0 46 23.5 87.5t61.5 69.5z" />
    <glyph glyph-name="quotedblright" unicode="&#x201d;" horiz-adv-x="404" 
d="M57 471q24 16 43.5 43t23.5 51q-6 -3 -14 -3q-23 0 -38 16t-15 40t17 41.5t42 17.5q28 0 47.5 -21.5t19.5 -59.5q0 -47 -23.5 -89t-61.5 -69zM226 471q24 16 43.5 43t23.5 51q-6 -3 -15 -3q-22 0 -37 16t-15 40t17 41.5t42 17.5q28 0 47.5 -21.5t19.5 -59.5
q0 -46 -23.5 -88.5t-61.5 -69.5z" />
    <glyph glyph-name="quotedblbase" unicode="&#x201e;" horiz-adv-x="404" 
d="M57 -96q24 16 43.5 43t23.5 51q-4 -2 -14 -2q-23 0 -38 15.5t-15 39.5t17 41.5t42 17.5q28 0 47.5 -21.5t19.5 -59.5q0 -47 -23.5 -89t-61.5 -69zM226 -96q24 16 43.5 43t23.5 51q-4 -2 -15 -2q-22 0 -37 15.5t-15 39.5t17 41.5t42 17.5q28 0 47.5 -21.5t19.5 -59.5
q0 -46 -23.5 -88.5t-61.5 -69.5z" />
    <glyph glyph-name="dagger" unicode="&#x2020;" horiz-adv-x="266" 
d="M159 327h-53l5 206l-89 -4v47l89 -3l-5 104h53l-4 -104l89 3v-47l-89 4z" />
    <glyph glyph-name="daggerdbl" unicode="&#x2021;" horiz-adv-x="266" 
d="M155 533v-209l89 4v-47l-89 3l4 -104h-53l4 104l-88 -3v47l88 -4v209l-88 -4v47l88 -3l-4 104h53l-4 -104l89 3v-47z" />
    <glyph glyph-name="bullet" unicode="&#x2022;" horiz-adv-x="358" 
d="M102 165q-32 32 -32 77q0 46 32 78t78 32t78 -32t32 -78q0 -45 -32 -77t-78 -32t-78 32z" />
    <glyph glyph-name="ellipsis" unicode="&#x2026;" horiz-adv-x="705" 
d="M74.5 8q-17.5 18 -17.5 42q0 25 17.5 42.5t42.5 17.5t42.5 -17.5t17.5 -42.5q0 -24 -17.5 -42t-42.5 -18t-42.5 18zM309.5 8q-17.5 18 -17.5 42q0 25 17.5 42.5t42.5 17.5t43 -17.5t18 -42.5q0 -24 -18 -42t-43 -18t-42.5 18zM544.5 8q-17.5 18 -17.5 42q0 25 17.5 42.5
t42.5 17.5t43 -17.5t18 -42.5q0 -24 -18 -42t-43 -18t-42.5 18z" />
    <glyph glyph-name="perthousand" unicode="&#x2030;" horiz-adv-x="971" 
d="M67.5 393.5q-39.5 46.5 -39.5 117.5q0 72 39.5 119t103.5 47t104 -47t40 -119q0 -71 -40 -117.5t-104 -46.5t-103.5 46.5zM129 0l350 667h53l-352 -667h-51zM113.5 591.5q-21.5 -31.5 -21.5 -80.5q0 -48 21.5 -79t57.5 -31t58 31t22 79q0 49 -22 80.5t-58 31.5
t-57.5 -31.5zM381.5 34.5q-39.5 46.5 -39.5 117.5q0 72 39.5 119t103.5 47t104 -47t40 -119q0 -71 -40 -117.5t-104 -46.5t-103.5 46.5zM696 34.5q-39 46.5 -39 117.5q0 72 39 119t103 47t104 -47t40 -119q0 -71 -40 -117.5t-104 -46.5t-103 46.5zM427.5 232
q-21.5 -31 -21.5 -80t21.5 -79.5t57.5 -30.5t58 30.5t22 79.5t-22 80t-58 31t-57.5 -31zM741.5 232q-21.5 -31 -21.5 -80t21.5 -79.5t57.5 -30.5t58 30.5t22 79.5t-22 80t-58 31t-57.5 -31z" />
    <glyph glyph-name="minute" unicode="&#x2032;" horiz-adv-x="219" 
d="M73.5 541.5q24.5 95.5 28.5 104.5q6 14 19 22.5t28 8.5q21 0 35.5 -15t14.5 -35q0 -12 -4 -20q-4 -9 -52 -94t-65 -116l-38 15q9 34 33.5 129.5z" />
    <glyph glyph-name="second" unicode="&#x2033;" horiz-adv-x="378" 
d="M73.5 541.5q24.5 95.5 28.5 104.5q6 14 19 22.5t28 8.5q21 0 35.5 -15t14.5 -35q0 -12 -4 -20q-4 -9 -52 -94t-65 -116l-38 15q9 34 33.5 129.5zM232.5 541.5q24.5 95.5 28.5 104.5q6 14 19 22.5t28 8.5q21 0 35.5 -15t14.5 -35q0 -12 -4 -20q-4 -9 -52 -94t-65 -116
l-38 15q9 34 33.5 129.5z" />
    <glyph glyph-name="guilsinglleft" unicode="&#x2039;" horiz-adv-x="262" 
d="M30 243l125 177h77l-125 -177l125 -180h-77z" />
    <glyph glyph-name="guilsinglright" unicode="&#x203a;" horiz-adv-x="262" 
d="M30 63l125 180l-125 177h77l125 -177l-125 -180h-77z" />
    <glyph glyph-name="uni203D" unicode="&#x203d;" horiz-adv-x="398" 
d="M287 656q41 -22 64 -61t23 -88q0 -67 -39.5 -115.5t-99.5 -86.5l-6 -112h-72l-17 329h92l-4 -133q59 45 59 113q0 41 -27 66.5t-71 25.5q-40 0 -66.5 -14t-48.5 -41l-49 61q31 38 74.5 58t94.5 20q52 0 93 -22zM235.5 92.5q17.5 -17.5 17.5 -42.5t-17.5 -42.5
t-42.5 -17.5t-43 17.5t-18 42.5t18 42.5t43 17.5t42.5 -17.5z" />
    <glyph glyph-name="uni203E" unicode="&#x203e;" horiz-adv-x="307" 
d="M0 623h307v-53h-307v53z" />
    <glyph glyph-name="fraction" unicode="&#x2044;" horiz-adv-x="132" 
d="M-136 0l351 667h53l-352 -667h-52z" />
    <glyph glyph-name="uni2070" unicode="&#x2070;" horiz-adv-x="332" 
d="M59 475.5q-36 61.5 -36 145.5t36 145t107 61q70 0 106 -61t36 -145t-36 -145.5t-106 -61.5q-71 0 -107 61.5zM109 730q-17 -42 -17 -109t17 -109.5t57 -42.5t56.5 42.5t16.5 109.5t-17 109t-56 42q-40 0 -57 -42z" />
    <glyph glyph-name="uni2074" unicode="&#x2074;" horiz-adv-x="332" 
d="M262 421h-67v97h-169v51l148 252h88v-249h46v-54h-46v-97zM89 572h106v182z" />
    <glyph glyph-name="uni2075" unicode="&#x2075;" horiz-adv-x="332" 
d="M30 479l41 42q34 -52 91 -52q32 0 51.5 22.5t19.5 55.5q0 36 -18.5 57t-50.5 21q-43 0 -74 -40l-49 17v219h236v-55h-169v-125q13 15 34.5 24.5t45.5 9.5q48 0 80 -33.5t32 -93.5q0 -59 -38 -96.5t-99 -37.5q-89 0 -133 65z" />
    <glyph glyph-name="uni2076" unicode="&#x2076;" horiz-adv-x="332" 
d="M63 472q-36 58 -36 149t40.5 148.5t116.5 57.5q64 0 104 -45l-33 -47q-14 19 -30 28t-40 9q-44 0 -67 -40.5t-23 -97.5v-12q14 23 39 39.5t55 16.5q49 0 82 -34.5t33 -96.5q0 -56 -35.5 -94.5t-94.5 -38.5q-75 0 -111 58zM127 610q-19 -14 -32 -37q4 -43 21 -73.5
t54 -30.5q31 0 48.5 23t17.5 53q0 40 -19 59.5t-49 19.5q-22 0 -41 -14z" />
    <glyph glyph-name="uni2077" unicode="&#x2077;" horiz-adv-x="306" 
d="M74 421l136 345h-187v55h257v-46l-136 -354h-70z" />
    </font>
</defs>
</svg>
